<svg width="7" height="8" viewBox="0 0 7 8" fill="none" xmlns="http://www.w3.org/2000/svg">
<path fill-rule="evenodd" clip-rule="evenodd" d="M3.8086 1.42876C4.00158 1.24623 4.00158 0.950287 3.8086 0.767757C3.61562 0.585227 3.30274 0.585227 3.10976 0.767757L0.171854 3.54661C0.0666961 3.63232 0.000122078 3.75921 0.000122078 3.90082L0.000123004 3.90173C-0.000122626 4.02165 0.0481216 4.14164 0.144856 4.23314L3.10976 7.03753C3.30274 7.22006 3.61562 7.22006 3.8086 7.03753C4.00158 6.855 4.00158 6.55906 3.8086 6.37653L1.68533 4.36821H6.42409C6.697 4.36821 6.91824 4.15895 6.91824 3.90082C6.91824 3.64268 6.697 3.43342 6.42409 3.43342H1.68919L3.8086 1.42876Z" fill="black" fill-opacity="0.85"/>
</svg>
