<svg width="23" height="23" viewBox="0 0 23 23" fill="none" xmlns="http://www.w3.org/2000/svg">
<path fill-rule="evenodd" clip-rule="evenodd" d="M11.2529 2.1875C6.28237 2.1875 2.25293 6.21694 2.25293 11.1875C2.25293 16.1581 6.28237 20.1875 11.2529 20.1875C16.2235 20.1875 20.2529 16.1581 20.2529 11.1875C20.2529 6.21694 16.2235 2.1875 11.2529 2.1875ZM0.25293 11.1875C0.25293 5.11237 5.1778 0.1875 11.2529 0.1875C17.3281 0.1875 22.2529 5.11237 22.2529 11.1875C22.2529 17.2626 17.3281 22.1875 11.2529 22.1875C5.1778 22.1875 0.25293 17.2626 0.25293 11.1875ZM9.04582 6.48039C9.43635 6.08987 10.0695 6.08987 10.46 6.48039L14.46 10.4804C14.8506 10.8709 14.8506 11.5041 14.46 11.8946L10.46 15.8946C10.0695 16.2851 9.43635 16.2851 9.04582 15.8946C8.6553 15.5041 8.6553 14.8709 9.04582 14.4804L12.3387 11.1875L9.04582 7.89461C8.6553 7.50408 8.6553 6.87092 9.04582 6.48039Z" fill="#51AAE8"/>
</svg>
