<svg width="22" height="22" viewBox="0 0 22 22" fill="none" xmlns="http://www.w3.org/2000/svg">
<path fill-rule="evenodd" clip-rule="evenodd" d="M1.60828 10.8342C1.60828 5.58752 5.86157 1.33423 11.1083 1.33423C16.355 1.33423 20.6083 5.58752 20.6083 10.8342C20.6083 16.0809 16.355 20.3342 11.1083 20.3342C5.86157 20.3342 1.60828 16.0809 1.60828 10.8342ZM11.1083 0.334229C5.30929 0.334229 0.608276 5.03524 0.608276 10.8342C0.608276 16.6332 5.30929 21.3342 11.1083 21.3342C16.9073 21.3342 21.6083 16.6332 21.6083 10.8342C21.6083 5.03524 16.9073 0.334229 11.1083 0.334229ZM7.46183 8.98067C7.26657 8.78541 6.94999 8.78541 6.75472 8.98067C6.55946 9.17594 6.55946 9.49252 6.75472 9.68778L10.7547 13.6878C10.95 13.883 11.2666 13.883 11.4618 13.6878L15.4618 9.68778C15.6571 9.49252 15.6571 9.17594 15.4618 8.98067C15.2666 8.78541 14.95 8.78541 14.7547 8.98067L11.1083 12.6271L7.46183 8.98067Z" fill="#C2E8EF"/>
</svg>
