<svg width="8" height="15" viewBox="0 0 8 15" fill="none" xmlns="http://www.w3.org/2000/svg">
<path d="M7.72788 0.519283C7.6422 0.433382 7.54041 0.365229 7.42835 0.318728C7.31628 0.272227 7.19615 0.248291 7.07482 0.248291C6.95349 0.248291 6.83335 0.272227 6.72129 0.318728C6.60923 0.365229 6.50744 0.433382 6.42176 0.519283L0.215802 6.72524C0.147393 6.7935 0.0931208 6.87459 0.0560906 6.96386C0.0190604 7.05313 0 7.14883 0 7.24547C0 7.34212 0.0190604 7.43781 0.0560906 7.52708C0.0931208 7.61635 0.147393 7.69744 0.215802 7.76571L6.42176 13.9717C6.78334 14.3332 7.3663 14.3332 7.72788 13.9717C8.08947 13.6101 8.08947 13.0271 7.72788 12.6655L2.31151 7.24916L7.73526 1.82541C8.08947 1.46383 8.08947 0.880866 7.72788 0.519283Z" fill="black"/>
</svg>
