<svg width="26" height="25" viewBox="0 0 26 25" fill="none" xmlns="http://www.w3.org/2000/svg">
<path d="M19.2304 9.56727C19.3794 9.41324 19.4605 9.20953 19.4567 8.99903C19.4528 8.78854 19.3643 8.58771 19.2097 8.43884C19.0551 8.28998 18.8465 8.20471 18.6279 8.20099C18.4094 8.19728 18.1978 8.27541 18.0379 8.41893L11.3216 14.8864L8.54285 12.2106C8.38291 12.0671 8.17136 11.9889 7.95277 11.9927C7.73418 11.9964 7.52562 12.0816 7.37103 12.2305C7.21644 12.3794 7.12789 12.5802 7.12403 12.7907C7.12018 13.0012 7.20131 13.2049 7.35035 13.3589L10.7254 16.6089C10.8836 16.7611 11.098 16.8466 11.3216 16.8466C11.5452 16.8466 11.7597 16.7611 11.9179 16.6089L19.2304 9.56727Z" fill="white"/>
<path fill-rule="evenodd" clip-rule="evenodd" d="M13.2903 0.597168C6.45591 0.597168 0.915283 5.93258 0.915283 12.5138C0.915283 19.0951 6.45591 24.4305 13.2903 24.4305C20.1247 24.4305 25.6653 19.0951 25.6653 12.5138C25.6653 5.93258 20.1247 0.597168 13.2903 0.597168ZM2.60278 12.5138C2.60278 9.78431 3.72878 7.16659 5.73308 5.23653C7.73737 3.30646 10.4558 2.22217 13.2903 2.22217C16.1248 2.22217 18.8432 3.30646 20.8475 5.23653C22.8518 7.16659 23.9778 9.78431 23.9778 12.5138C23.9778 15.2434 22.8518 17.8611 20.8475 19.7911C18.8432 21.7212 16.1248 22.8055 13.2903 22.8055C10.4558 22.8055 7.73737 21.7212 5.73308 19.7911C3.72878 17.8611 2.60278 15.2434 2.60278 12.5138Z" fill="white"/>
</svg>
