<svg width="23" height="23" viewBox="0 0 23 23" fill="none" xmlns="http://www.w3.org/2000/svg">
<path d="M19.9102 0.374023C21.2357 0.374023 22.3202 1.40556 22.4048 2.70965L22.4102 2.87402V15.874C22.4102 17.1995 21.3786 18.2841 20.0745 18.3687L19.9102 18.374H19.4102V19.874C19.4102 21.1995 18.3786 22.2841 17.0745 22.3687L16.9102 22.374H2.91016C1.52944 22.374 0.410156 21.2547 0.410156 19.874V5.87402C0.410156 4.49331 1.52944 3.37402 2.91016 3.37402H4.41016V2.87402C4.41016 1.54854 5.44168 0.463984 6.74578 0.379341L6.91016 0.374023H19.9102ZM16.9102 5.37402H2.91016C2.63401 5.37402 2.41016 5.59788 2.41016 5.87402V19.874C2.41016 20.1502 2.63401 20.374 2.91016 20.374H16.9102C17.1863 20.374 17.4102 20.1502 17.4102 19.874V5.87402C17.4102 5.59788 17.1863 5.37402 16.9102 5.37402ZM11.2782 11.5975C12.4101 12.7294 12.4345 14.5552 11.3139 15.6758L11.3002 15.686L11.2789 15.7091L8.73171 18.02C7.61104 19.1407 5.78525 19.1162 4.65335 17.9843C3.52241 16.8533 3.53176 14.9266 4.66583 13.7928L5.30221 13.1731L5.43603 13.0404C5.82652 12.6499 6.45968 12.6498 6.85024 13.0403C7.24081 13.4308 7.24087 14.0639 6.85038 14.4545L6.06756 15.2192C5.72397 15.5628 5.72076 16.2233 6.06756 16.5701C6.39684 16.8993 6.89459 16.9331 7.25714 16.6558L7.35244 16.5725L9.90416 14.255L9.97534 14.1743C10.2041 13.8692 10.197 13.4301 9.94643 13.1054L9.78076 12.9175C9.47574 12.5252 9.50347 11.958 9.86395 11.5975C10.2545 11.2069 10.8876 11.2069 11.2782 11.5975ZM19.9102 2.37402H6.91016C6.66469 2.37402 6.46055 2.55089 6.41821 2.78415L6.41016 2.87402V3.37402H16.9102C18.2356 3.37402 19.3202 4.40556 19.4048 5.70965L19.4102 5.87402V16.374H19.9102C20.1556 16.374 20.3598 16.1972 20.4021 15.9639L20.4102 15.874V2.87402C20.4102 2.62856 20.2333 2.42441 20 2.38208L19.9102 2.37402ZM14.6475 7.50277C15.7341 8.58938 15.8001 10.3155 14.8299 11.4252L13.7481 12.572C13.3689 12.9735 12.736 12.9917 12.3345 12.6125C11.9638 12.2625 11.9199 11.6963 12.2135 11.2954L12.294 11.1989L13.269 10.1669C13.6 9.83592 13.5925 9.27619 13.2332 8.91698C12.904 8.5877 12.4062 8.55396 12.0814 8.79454L11.9974 8.86694L9.53981 11.4264C9.52615 11.4469 9.51164 11.4671 9.49629 11.4869L9.41311 11.5811C9.24196 11.7523 9.15722 11.9864 9.17392 12.2338C9.18589 12.4106 9.24897 12.5811 9.35826 12.7268L9.44881 12.8311C9.83934 13.2216 9.83934 13.8548 9.44881 14.2453C9.05829 14.6358 8.42512 14.6358 8.0346 14.2453C7.52523 13.7359 7.2259 13.0695 7.17848 12.3687C7.13174 11.6765 7.33365 10.9947 7.75404 10.4462C7.77542 10.4072 7.80003 10.3689 7.82751 10.332L7.90879 10.2362L10.5691 7.46707C11.6898 6.34639 13.5156 6.37087 14.6475 7.50277Z" fill="black" fill-opacity="0.85"/>
</svg>
