<svg width="19" height="23" viewBox="0 0 19 23" fill="none" xmlns="http://www.w3.org/2000/svg">
<path d="M0.547363 2.78125C0.547363 1.67668 1.44279 0.78125 2.54736 0.78125H16.5474C17.652 0.78125 18.5474 1.67669 18.5474 2.78125V13.2812C18.5474 13.8335 18.0996 14.2812 17.5474 14.2812C16.9951 14.2812 16.5474 13.8335 16.5474 13.2812V2.78125H2.54736V20.7812H8.04736C8.59965 20.7812 9.04736 21.229 9.04736 21.7812C9.04736 22.3335 8.59965 22.7812 8.04736 22.7812H2.54736C1.4428 22.7812 0.547363 21.8858 0.547363 20.7812V2.78125Z" fill="white"/>
<path d="M5.04736 5.78125C5.04736 5.22897 5.49508 4.78125 6.04736 4.78125H13.0474C13.5996 4.78125 14.0474 5.22897 14.0474 5.78125C14.0474 6.33353 13.5996 6.78125 13.0474 6.78125H6.04736C5.49508 6.78125 5.04736 6.33353 5.04736 5.78125Z" fill="white"/>
<path d="M6.04736 8.78125C5.49508 8.78125 5.04736 9.22896 5.04736 9.78125C5.04736 10.3335 5.49508 10.7812 6.04736 10.7812H13.0474C13.5996 10.7812 14.0474 10.3335 14.0474 9.78125C14.0474 9.22896 13.5996 8.78125 13.0474 8.78125H6.04736Z" fill="white"/>
<path d="M5.04736 13.7812C5.04736 13.229 5.49508 12.7812 6.04736 12.7812H9.04736C9.59965 12.7812 10.0474 13.229 10.0474 13.7812C10.0474 14.3335 9.59965 14.7812 9.04736 14.7812H6.04736C5.49508 14.7812 5.04736 14.3335 5.04736 13.7812Z" fill="white"/>
<path fill-rule="evenodd" clip-rule="evenodd" d="M13.5474 14.7812C11.6144 14.7812 10.0474 16.3483 10.0474 18.2812C10.0474 20.2142 11.6144 21.7812 13.5474 21.7812C14.1497 21.7812 14.7171 21.6286 15.2123 21.3604L16.3403 22.4884C16.7308 22.8789 17.3639 22.8789 17.7545 22.4884C18.145 22.0978 18.145 21.4647 17.7545 21.0741L16.6265 19.9462C16.8947 19.451 17.0474 18.8836 17.0474 18.2812C17.0474 16.3483 15.4803 14.7812 13.5474 14.7812ZM15.0474 18.2812C15.0474 18.6958 14.8806 19.0694 14.608 19.3419C14.3355 19.6144 13.9619 19.7812 13.5474 19.7812C12.7189 19.7812 12.0474 19.1097 12.0474 18.2812C12.0474 17.4528 12.7189 16.7812 13.5474 16.7812C14.3758 16.7812 15.0474 17.4528 15.0474 18.2812Z" fill="white"/>
</svg>
