<svg width="24" height="24" viewBox="0 0 24 24" fill="none" xmlns="http://www.w3.org/2000/svg">
<path d="M1.80791 7.00041C3.41035 3.92632 6.74225 2.15851 10.1862 2.55517C13.3678 2.92161 16.0363 5.06529 17.1037 8.03725H17.5256C19.855 8.03572 22.1831 9.26687 22.9534 11.698C23.6919 14.0289 22.8343 16.5696 20.8341 17.9761C20.3824 18.2937 19.7586 18.185 19.4409 17.7333C19.1232 17.2815 19.2319 16.6577 19.6837 16.34C20.9702 15.4354 21.5218 13.8013 21.0468 12.302C20.6036 10.9032 19.2152 10.0359 17.5271 10.0372L16.3659 10.0372C15.9093 10.0372 15.5107 9.72802 15.3972 9.28579C14.7416 6.73045 12.5782 4.84389 9.95734 4.54203C7.33648 4.24017 4.80089 5.58548 3.58142 7.92489C2.36196 10.2643 2.71115 13.1134 4.45947 15.089C4.82547 15.5026 4.78689 16.1346 4.37329 16.5006C3.9597 16.8666 3.32771 16.828 2.96171 16.4145C0.664331 13.8183 0.205479 10.0745 1.80791 7.00041Z" fill="white" fill-opacity="0.93"/>
<path d="M11.9996 10.5C12.5519 10.4997 12.9998 10.9472 13.0001 11.4995L13.0032 18.0829L14.4748 16.6113C14.8653 16.2207 15.4985 16.2207 15.889 16.6113C16.2795 17.0018 16.2795 17.6349 15.889 18.0255L12.7629 21.1516C12.5942 21.3478 12.3507 21.4778 12.0766 21.4974C11.7958 21.5189 11.5076 21.4222 11.2928 21.2075L8.11081 18.0255C7.72028 17.6349 7.72028 17.0018 8.11081 16.6113C8.50133 16.2207 9.1345 16.2207 9.52502 16.6113L11.0032 18.0894L11.0001 11.5005C10.9998 10.9482 11.4474 10.5003 11.9996 10.5Z" fill="white" fill-opacity="0.93"/>
</svg>
