<svg width="41" height="41" viewBox="0 0 41 41" fill="none" xmlns="http://www.w3.org/2000/svg">
<path fill-rule="evenodd" clip-rule="evenodd" d="M20.094 10.444C18.0563 10.444 16.0644 11.035 14.3701 12.1424C12.6758 13.2497 11.3553 14.8236 10.5755 16.6651C9.79572 18.5065 9.59169 20.5328 9.98923 22.4877C10.3868 24.4426 11.368 26.2383 12.8089 27.6477C14.2497 29.057 16.0855 30.0169 18.084 30.4057C20.0826 30.7946 22.1541 30.595 24.0367 29.8322C25.9193 29.0695 27.5283 27.7778 28.6604 26.1205C29.7925 24.4632 30.3967 22.5148 30.3967 20.5217C30.3937 17.8498 29.3072 15.2882 27.3758 13.3989C25.4443 11.5097 22.8255 10.4469 20.094 10.444ZM20.094 26.3413C18.9172 26.3417 17.7667 26.0006 16.7881 25.3613C15.8095 24.7221 15.0466 23.8133 14.5961 22.7499C14.1455 21.6865 14.0275 20.5163 14.2568 19.3873C14.4862 18.2583 15.0527 17.2211 15.8848 16.4071C16.7168 15.593 17.7769 15.0386 18.931 14.8139C20.0852 14.5893 21.2815 14.7044 22.3688 15.1448C23.456 15.5852 24.3853 16.3312 25.0392 17.2883C25.693 18.2453 26.042 19.3706 26.042 20.5217C26.0398 22.0642 25.4125 23.543 24.2976 24.6339C23.1826 25.7248 21.671 26.3388 20.094 26.3413Z" fill="white"/>
<path d="M29.3752 8.16556C29.7753 7.90268 30.2461 7.76169 30.7282 7.7604C31.0487 7.75977 31.3663 7.82094 31.6626 7.94037C31.959 8.05984 32.2284 8.23523 32.4555 8.45658C32.6825 8.67794 32.8627 8.94086 32.9859 9.23035C33.109 9.51985 33.1726 9.83026 33.173 10.1438C33.1733 10.6153 33.0308 11.0763 32.7633 11.4686C32.4959 11.8609 32.1156 12.1668 31.6705 12.3478C31.2253 12.5287 30.7354 12.5766 30.2625 12.4852C29.7896 12.3939 29.3549 12.1675 29.0135 11.8347C28.6721 11.5019 28.4392 11.0775 28.3442 10.6152C28.2493 10.1529 28.2965 9.67353 28.48 9.23752C28.6635 8.80152 28.975 8.42849 29.3752 8.16556Z" fill="white"/>
<path fill-rule="evenodd" clip-rule="evenodd" d="M30.0046 0.958496H10.1851C7.50983 0.961043 4.94489 2.00158 3.05306 3.85178C1.16123 5.70198 0.0970361 8.21074 0.0939941 10.8275V30.2158C0.0970361 32.8326 1.16123 35.3413 3.05306 37.1915C4.94489 39.0417 7.50983 40.0822 10.1851 40.0848H30.0046C32.6797 40.0822 35.2444 39.0417 37.136 37.1914C39.0276 35.3412 40.0914 32.8324 40.094 30.2158V10.8275C40.0914 8.2109 39.0276 5.70213 37.136 3.85189C35.2444 2.00162 32.6797 0.961043 30.0046 0.958496ZM35.7475 30.2158C35.7475 31.7056 35.1424 33.1344 34.0654 34.1879C32.9884 35.2414 31.5277 35.8332 30.0046 35.8332H10.1851C8.66195 35.8332 7.20123 35.2414 6.12423 34.1879C5.04723 33.1344 4.44218 31.7056 4.44218 30.2158V10.8275C4.44218 9.33772 5.04723 7.90887 6.12423 6.8554C7.20123 5.80193 8.66195 5.2101 10.1851 5.2101H30.0046C31.5277 5.2101 32.9884 5.80193 34.0654 6.8554C35.1424 7.90887 35.7475 9.33772 35.7475 10.8275V30.2158Z" fill="white"/>
</svg>
