<svg width="34" height="33" viewBox="0 0 34 33" fill="none" xmlns="http://www.w3.org/2000/svg">
<path d="M16.8969 32.7777H25.0864V29.5019H16.8969C9.78838 29.5019 3.79364 23.5071 3.79364 16.3986C3.79364 9.29009 9.78838 3.29535 16.8969 3.29535C24.0054 3.29535 30.0002 9.29009 30.0002 16.3986V18.7408C30.0002 20.0348 28.8372 21.3123 27.5433 21.3123C26.2493 21.3123 25.0864 20.0348 25.0864 18.7408V16.3986C25.0864 11.878 21.4175 8.20907 16.8969 8.20907C12.3763 8.20907 8.70736 11.878 8.70736 16.3986C8.70736 20.9192 12.3763 24.5881 16.8969 24.5881C19.1572 24.5881 21.221 23.6709 22.6951 22.1804C23.7597 23.6382 25.5942 24.5881 27.5433 24.5881C30.77 24.5881 33.276 21.9675 33.276 18.7408V16.3986C33.276 7.35736 25.9381 0.0195312 16.8969 0.0195312C7.85565 0.0195312 0.517822 7.35736 0.517822 16.3986C0.517822 25.4399 7.85565 32.7777 16.8969 32.7777ZM16.8969 21.3123C14.178 21.3123 11.9832 19.1175 11.9832 16.3986C11.9832 13.6797 14.178 11.4849 16.8969 11.4849C19.6158 11.4849 21.8106 13.6797 21.8106 16.3986C21.8106 19.1175 19.6158 21.3123 16.8969 21.3123Z" fill="#B4B4B4"/>
</svg>
