<svg width="173" height="62" viewBox="0 0 173 62" fill="none" xmlns="http://www.w3.org/2000/svg">
<path d="M19.716 61.278C14.606 61.075 10.4252 59.6767 7.15623 57.0797C6.53236 56.5836 5.04573 55.0961 4.54698 54.4687C3.22135 52.8018 2.32011 51.1796 1.71898 49.3797C-0.13077 43.8392 0.82123 36.5689 4.44198 28.5897C7.5421 21.7586 12.3257 14.9835 20.6715 5.59999C21.9009 4.21924 25.5619 0.181091 25.5855 0.181091C25.5942 0.181091 25.3947 0.526722 25.1436 0.947598C22.9736 4.58235 21.1169 8.86371 20.1054 12.5702C18.4805 18.5176 18.6765 23.6215 20.6793 27.5791C22.061 30.3056 24.4296 32.6672 27.0931 33.9727C31.756 36.2574 38.5827 36.4463 46.9197 34.5257C47.4937 34.3927 75.9365 26.8424 110.126 17.7467C144.316 8.65023 172.294 1.2136 172.298 1.21973C172.308 1.2276 92.866 35.2214 51.6264 52.857C45.0954 55.6491 43.3488 56.3544 40.2785 57.4324C32.4297 60.1886 25.3991 61.5037 19.716 61.278Z" fill="white"/>
</svg>
