<svg width="269" height="63" viewBox="0 0 269 63" fill="none" xmlns="http://www.w3.org/2000/svg">
<path fill-rule="evenodd" clip-rule="evenodd" d="M69.4816 41.0622H75.6937C78.1174 41.0622 79.0391 41.898 79.0391 43.9453C79.0391 45.9167 78.1169 46.7516 75.6937 46.7516H69.4816V41.0622ZM59.858 61.7695H69.4821V53.3492H79.7906C86.6156 53.3492 89.0729 49.331 89.0729 44.1359C89.0729 38.1054 86.5462 34.6929 79.7211 34.6929H59.858V61.7695Z" fill="white"/>
<path fill-rule="evenodd" clip-rule="evenodd" d="M92.2468 34.6929H118.149V41.29H101.871V44.9308H116.99V51.5307H101.871V55.171H118.149V61.7695H92.2468V34.6929Z" fill="white"/>
<path fill-rule="evenodd" clip-rule="evenodd" d="M131.801 41.0622H138.013C140.436 41.0622 141.358 41.898 141.358 43.9453C141.358 45.9167 140.436 46.7516 138.013 46.7516H131.801V41.0622ZM122.177 61.7695H131.801V53.3492H142.108C148.935 53.3492 151.393 49.331 151.393 44.1359C151.393 38.1054 148.866 34.6929 142.039 34.6929H122.177V61.7695Z" fill="white"/>
<path fill-rule="evenodd" clip-rule="evenodd" d="M160.708 50.2787C155.999 49.4811 154.055 46.4474 154.055 42.6561C154.055 35.6392 160.233 33.7448 168.149 33.7448C179 33.7448 183.472 36.8912 183.814 42.6184H172.619C172.619 41.5183 172.038 40.8344 171.153 40.4556C170.299 40.0395 169.208 39.8881 168.149 39.8881C165.282 39.8881 164.293 40.6834 164.293 41.8221C164.293 42.5793 164.599 43.0741 165.555 43.225L177.056 45.1204C181.903 45.9167 184.906 48.4197 184.906 53.0072C184.906 59.608 180.06 62.7177 169.24 62.7177C161.835 62.7177 153.746 61.5803 153.712 53.6162H165.316C165.349 54.5252 165.657 55.1319 166.341 55.5493C167.055 55.9291 168.114 56.1192 169.615 56.1192C172.618 56.1192 173.438 55.2083 173.438 53.9186C173.438 53.1223 172.994 52.3265 171.7 52.1001L160.708 50.2787Z" fill="white"/>
<path fill-rule="evenodd" clip-rule="evenodd" d="M188.045 34.6929H197.668V61.7695H188.045V34.6929Z" fill="white"/>
<path fill-rule="evenodd" clip-rule="evenodd" d="M233.335 51.2267C232.721 54.7915 231.627 57.6737 229.238 59.6451C226.885 61.6174 223.197 62.7174 217.329 62.7174C211.493 62.7174 200.674 62.2613 200.674 48.2317C200.674 34.1993 211.493 33.7441 217.329 33.7441C223.129 33.7441 232.071 34.5776 233.335 45.3112H222.482C222.209 43.3753 221.047 40.5695 217.329 40.5695C213.402 40.5695 210.911 42.7309 210.911 48.2312C210.911 53.7301 213.335 55.8902 216.85 55.8902C219.888 55.8902 221.697 54.4872 222.482 51.2262H233.335V51.2267Z" fill="white"/>
<path fill-rule="evenodd" clip-rule="evenodd" d="M245.928 48.2324C245.928 42.7316 248.42 40.5706 252.345 40.5706C256.269 40.5706 258.762 42.7321 258.762 48.2324C258.762 53.7313 256.269 55.8913 252.345 55.8913C248.42 55.8909 245.928 53.7308 245.928 48.2324ZM235.688 48.2324C235.688 62.2615 246.507 62.7181 252.345 62.7181C258.181 62.7181 269 62.262 269 48.2324C269 34.2 258.181 33.7448 252.345 33.7448C246.507 33.7448 235.688 34.1995 235.688 48.2324Z" fill="white"/>
<path fill-rule="evenodd" clip-rule="evenodd" d="M45.3156 34.9611C45.937 21.9706 34.7279 7.34132 19.4465 5.53305L19.4726 5.35553C34.5377 5.35553 46.0867 19.2943 46.0867 30.2907C46.0722 32.5798 45.8913 33.9981 45.5687 35.0278L45.3156 34.9611ZM44.4028 36.6124C43.4004 37.8364 42.1399 39.0688 40.663 40.2387C37.946 24.6212 26.4632 10.9649 18.3449 6.97883L18.171 7.09997C26.3355 13.7968 36.0733 26.8032 39.8602 40.8514C38.0486 42.1858 35.9544 43.414 33.6407 44.4111C25.9364 35.6302 18.7538 18.6956 16.4391 7.94936L16.2037 8.02018C16.2559 18.4514 23.666 36.1595 32.7027 44.8002C30.6972 45.5909 28.5405 46.2073 26.2758 46.5749C17.6135 43.1452 11.4476 32.1604 11.4476 20.9078C11.4476 13.5619 13.6886 9.01773 14.1221 8.08774L13.9375 8.01459C13.4131 8.8076 10.1301 13.3495 10.1301 21.2801C10.1301 33.9995 16.4065 43.7215 24.7392 46.7832C21.8884 47.093 18.8885 46.9994 15.8107 46.3643L15.7487 46.5581C16.64 46.8861 19.6642 48.1549 24.2777 48.1549C34.7125 48.1549 41.7664 41.6752 44.606 36.7498L44.4028 36.6124Z" fill="white"/>
<path fill-rule="evenodd" clip-rule="evenodd" d="M23.2343 0.76561C15.324 0.76561 6.04858 6.47138 6.04858 11.687C6.04858 13.7045 7.89517 15.4088 11.717 15.4088C20.5891 15.4088 28.8319 9.31681 28.8319 4.57971C28.8319 2.08699 26.4366 0.76561 23.2343 0.76561ZM26.3923 4.43247C26.3923 8.42549 18.7202 13.3066 12.3068 13.3066C9.47324 13.3066 7.94226 12.1921 7.94226 10.353C7.94226 6.30271 15.7016 1.50457 21.7173 1.50457C25.6394 1.50457 26.3923 3.49922 26.3923 4.43247Z" fill="white"/>
<path fill-rule="evenodd" clip-rule="evenodd" d="M2.89723 14.1017C2.67485 14.4861 1.78442 16.2287 1.78442 18.0141C1.78442 21.3255 5.13215 24.3997 11.2896 24.3997C23.1351 24.3997 36.8207 15.6854 36.8207 7.59641C36.8207 3.96543 33.3816 1.99128 30.9937 1.58313L30.949 1.72477C31.6916 1.9596 34.4123 3.22367 34.4123 6.45815C34.4123 12.9033 22.3291 21.6852 10.2929 21.6852C5.68506 21.6852 2.78208 19.4119 2.78208 16.1006C2.78208 15.0531 3.00025 14.3631 3.05806 14.1632L2.89723 14.1017Z" fill="white"/>
<path fill-rule="evenodd" clip-rule="evenodd" d="M41.7045 8.20145C42.0294 8.44792 43.9805 10.0731 43.9805 13.1464C43.9805 23.6251 27.5527 33.9291 13.0294 33.9291C4.36852 33.9291 0.420331 29.6552 0.595154 25.8602H0.750396C1.08978 27.8311 3.90186 31.3577 11.4822 31.3577C26.0236 31.3577 42.2597 20.6958 42.2597 11.3544C42.2597 9.75206 41.8243 8.75357 41.5782 8.30954L41.7045 8.20145Z" fill="white"/>
<path fill-rule="evenodd" clip-rule="evenodd" d="M47.1953 17.9843C47.2633 18.2075 47.6172 19.2107 47.6172 20.7818C47.6172 32.4384 30.9923 42.4177 16.5333 42.4177C9.09145 42.4177 5.20527 38.8049 4.38477 37.3377L4.51716 37.2398C6.57634 39.0397 10.6322 40.4072 15.3655 40.4072C28.1354 40.4072 47.1901 30.6972 47.02 18.0267L47.1953 17.9843Z" fill="white"/>
</svg>
