<svg width="15" height="15" viewBox="0 0 15 15" fill="none" xmlns="http://www.w3.org/2000/svg">
<path d="M7.93555 0.902832C4.06992 0.902832 0.935547 4.03721 0.935547 7.90283C0.935547 11.7685 4.06992 14.9028 7.93555 14.9028C11.8012 14.9028 14.9355 11.7685 14.9355 7.90283C14.9355 4.03721 11.8012 0.902832 7.93555 0.902832ZM7.93555 11.9653C7.59023 11.9653 7.31055 11.6856 7.31055 11.3403C7.31055 10.995 7.59023 10.7153 7.93555 10.7153C8.28086 10.7153 8.56055 10.995 8.56055 11.3403C8.56055 11.6856 8.28086 11.9653 7.93555 11.9653ZM8.91836 8.53564C8.77686 8.59029 8.6551 8.6863 8.56898 8.81117C8.48285 8.93604 8.43635 9.08396 8.43555 9.23564V9.59033C8.43555 9.65908 8.3793 9.71533 8.31055 9.71533H7.56055C7.4918 9.71533 7.43555 9.65908 7.43555 9.59033V9.25439C7.43555 8.89346 7.54023 8.53721 7.74648 8.24033C7.94805 7.94971 8.2293 7.72783 8.56055 7.60127C9.0918 7.39658 9.43555 6.95127 9.43555 6.46533C9.43555 5.77627 8.76211 5.21533 7.93555 5.21533C7.10898 5.21533 6.43555 5.77627 6.43555 6.46533V6.58408C6.43555 6.65283 6.3793 6.70908 6.31055 6.70908H5.56055C5.4918 6.70908 5.43555 6.65283 5.43555 6.58408V6.46533C5.43555 5.85127 5.7043 5.27783 6.1918 4.85127C6.66055 4.44033 7.2793 4.21533 7.93555 4.21533C8.5918 4.21533 9.21055 4.44189 9.6793 4.85127C10.1668 5.27783 10.4355 5.85127 10.4355 6.46533C10.4355 7.36846 9.84023 8.18096 8.91836 8.53564Z" fill="#C4C4C4"/>
</svg>
