<svg width="29" height="28" viewBox="0 0 29 28" fill="none" xmlns="http://www.w3.org/2000/svg">
<path fill-rule="evenodd" clip-rule="evenodd" d="M15.1949 8.08955C15.8722 7.41266 16.7907 7.03259 17.7483 7.03292C18.7059 7.03326 19.6242 7.41399 20.3011 8.09135C20.9779 8.76872 21.358 9.68722 21.3577 10.6448C21.3573 11.6024 20.9766 12.5207 20.2992 13.1975C19.9639 13.5327 19.5657 13.7985 19.1276 13.9798C18.6895 14.1611 18.2199 14.2543 17.7458 14.2542C16.7882 14.2538 15.8699 13.8731 15.1931 13.1957C14.5162 12.5184 14.1361 11.5999 14.1364 10.6423C14.1368 9.68467 14.5175 8.76643 15.1949 8.08955ZM19.0236 9.3688C18.6855 9.03024 18.2268 8.83985 17.7483 8.83951C17.2699 8.83917 16.8109 9.02891 16.4723 9.367C16.1338 9.70508 15.9434 10.1638 15.943 10.6423C15.9427 11.1207 16.1324 11.5797 16.4705 11.9183C16.8084 12.2568 17.2669 12.4473 17.7451 12.4478C18.2234 12.4483 18.6823 12.2588 19.0209 11.921C19.3595 11.5831 19.5499 11.1247 19.5504 10.6464C19.551 10.1681 19.3614 9.70917 19.0236 9.37061V9.3688Z" fill="white"/>
<path fill-rule="evenodd" clip-rule="evenodd" d="M16.9915 22.6872C16.4861 22.927 15.9188 23.0045 15.3675 22.909C14.8163 22.8136 14.3081 22.5499 13.9126 22.1542L12.8123 21.052L11.4896 23.2564C11.4191 23.3741 11.3227 23.4742 11.2077 23.5491C11.0926 23.624 10.9621 23.6717 10.8259 23.6886C10.6897 23.7054 10.5514 23.6911 10.4216 23.6466C10.2918 23.6021 10.1738 23.5285 10.0767 23.4316L4.96146 18.3182C4.86411 18.2212 4.79019 18.1032 4.74533 17.9733C4.70046 17.8433 4.68584 17.7049 4.70257 17.5685C4.71929 17.432 4.76693 17.3012 4.84186 17.186C4.91678 17.0707 5.01701 16.9741 5.13492 16.9034L7.33928 15.5826L6.23891 14.4804C5.84316 14.085 5.57947 13.5768 5.48404 13.0255C5.3886 12.4743 5.4661 11.907 5.70588 11.4016L3.6822 9.37787C3.51284 9.20846 3.41769 8.97871 3.41769 8.73915C3.41769 8.49959 3.51284 8.26984 3.6822 8.10042L5.59747 6.18515C6.38989 5.39302 7.40811 4.86563 8.51229 4.6754C9.61647 4.48517 10.7525 4.64143 11.7643 5.12272L13.4573 3.42789C14.9256 1.96004 16.7676 0.922062 18.7838 0.426467C20.7999 -0.0691285 22.9133 -0.00343901 24.8947 0.616415C26.2697 1.04645 27.3466 2.12334 27.7767 3.49655C29.0415 7.53668 27.9574 11.9436 24.9652 14.934L23.2704 16.6288C23.7517 17.6406 23.9079 18.7766 23.7177 19.8808C23.5274 20.985 23.0001 22.0032 22.2079 22.7956L20.2927 24.7109C20.1232 24.8802 19.8935 24.9754 19.6539 24.9754C19.4144 24.9754 19.1846 24.8802 19.0152 24.7109L16.9915 22.6872ZM24.3563 2.34197C22.6897 1.81997 20.9121 1.76409 19.216 2.18038C17.52 2.59666 15.9702 3.46924 14.7348 4.70353L13.2622 6.17793L13.2694 6.18515L11.9919 7.4626L11.9847 7.45537L8.15056 11.2895L8.15779 11.2968L7.42963 12.0231C7.30027 12.1972 7.23786 12.412 7.25378 12.6283C7.2697 12.8446 7.3629 13.0479 7.51636 13.2012L15.1901 20.8749C15.3437 21.0286 15.5475 21.1217 15.7642 21.1373C15.9809 21.1529 16.196 21.0899 16.37 20.9598L17.0963 20.2335L17.1017 20.2407L20.9359 16.4066L20.9287 16.4011L22.2079 15.1237L22.2133 15.1291L23.6877 13.6565C24.9227 12.4214 25.7959 10.8718 26.2128 9.17577C26.6298 7.4797 26.5745 5.70187 26.0529 4.03499C25.9283 3.63614 25.7088 3.27344 25.4133 2.97795C25.1178 2.68247 24.7551 2.463 24.3563 2.33835V2.34197ZM18.3792 21.52L19.653 22.7938L20.9305 21.5182C21.3792 21.0704 21.7022 20.5124 21.8671 19.9003C22.0321 19.2882 22.0331 18.6435 21.87 18.0309L18.3792 21.52ZM10.3622 6.52484C9.74954 6.36201 9.10488 6.3631 8.49282 6.52801C7.88076 6.69292 7.32281 7.01585 6.87492 7.46441L5.59928 8.74005L6.87312 10.0139L10.3604 6.52484H10.3622ZM8.65829 16.8998L7.05741 17.8575L10.5356 21.3357L11.4951 19.7366L8.65829 16.8998Z" fill="white"/>
<path d="M6.50086 22.7868C6.50292 23.0236 6.41186 23.2518 6.24729 23.4222L3.05277 26.6168C2.96889 26.7008 2.86929 26.7674 2.75965 26.8129C2.65001 26.8584 2.53248 26.8819 2.41378 26.882C2.29507 26.8821 2.17751 26.8588 2.06781 26.8134C1.95811 26.7681 1.85841 26.7015 1.77441 26.6177C1.69042 26.5338 1.62376 26.4342 1.57826 26.3245C1.53276 26.2149 1.50929 26.0974 1.50921 25.9787C1.50912 25.86 1.53242 25.7424 1.57777 25.6327C1.62312 25.523 1.68963 25.4233 1.77351 25.3393L4.96985 22.1448C5.14023 21.9802 5.36844 21.8892 5.60532 21.8912C5.84219 21.8933 6.06879 21.9883 6.23629 22.1558C6.40379 22.3233 6.4988 22.5499 6.50086 22.7868Z" fill="white"/>
<path d="M3.68805 19.588C3.85742 19.7574 3.95256 19.9871 3.95256 20.2267C3.95256 20.4662 3.85742 20.696 3.68805 20.8654L2.40879 22.1465C2.23939 22.3161 2.00954 22.4115 1.76981 22.4117C1.53007 22.4119 1.30008 22.3168 1.13044 22.1474C0.960802 21.978 0.865404 21.7481 0.865235 21.5084C0.865065 21.2687 0.960138 21.0387 1.12954 20.869L2.41241 19.5862C2.58175 19.4173 2.81111 19.3225 3.05023 19.3225C3.28934 19.3225 3.51871 19.4173 3.68805 19.5862V19.588Z" fill="white"/>
<path d="M9.00414 25.6875C8.9568 25.7977 8.88799 25.8973 8.80172 25.9807L7.52061 27.2618C7.43662 27.3457 7.33692 27.4122 7.22722 27.4575C7.11752 27.5029 6.99996 27.5262 6.88125 27.5261C6.76255 27.526 6.64502 27.5025 6.53538 27.457C6.42574 27.4115 6.32614 27.3449 6.24226 27.2609C6.15838 27.1769 6.09187 27.0772 6.04652 26.9675C6.00117 26.8578 5.97787 26.7402 5.97796 26.6215C5.97804 26.5028 6.00151 26.3853 6.04701 26.2756C6.09251 26.166 6.15917 26.0664 6.24317 25.9825L7.52423 24.7033C7.60757 24.617 7.70726 24.5481 7.81748 24.5008C7.9277 24.4535 8.04625 24.4285 8.1662 24.4275C8.28616 24.4264 8.40512 24.4493 8.51615 24.4947C8.62718 24.5402 8.72805 24.6072 8.81287 24.6921C8.8977 24.7769 8.96478 24.8778 9.01021 24.9888C9.05563 25.0998 9.07849 25.2188 9.07745 25.3387C9.07641 25.4587 9.05149 25.5772 9.00414 25.6875Z" fill="white"/>
</svg>
