<svg width="20" height="20" viewBox="0 0 20 20" fill="none" xmlns="http://www.w3.org/2000/svg">
<path d="M8.82275 16.8291C10.5977 16.8287 12.3216 16.2345 13.7198 15.1411L18.1158 19.5371L19.5298 18.1231L15.1338 13.7271C16.2278 12.3288 16.8223 10.6045 16.8228 8.8291C16.8228 4.4181 13.2338 0.829102 8.82275 0.829102C4.41175 0.829102 0.822754 4.4181 0.822754 8.8291C0.822754 13.2401 4.41175 16.8291 8.82275 16.8291ZM8.82275 2.8291C12.1318 2.8291 14.8228 5.5201 14.8228 8.8291C14.8228 12.1381 12.1318 14.8291 8.82275 14.8291C5.51375 14.8291 2.82275 12.1381 2.82275 8.8291C2.82275 5.5201 5.51375 2.8291 8.82275 2.8291Z" fill="white"/>
</svg>
