<svg width="37" height="33" viewBox="0 0 37 33" fill="none" xmlns="http://www.w3.org/2000/svg">
<path d="M34.916 0.791562C34.4518 0.405441 33.8917 0.152406 33.2951 0.0593918C32.6986 -0.0336227 32.0879 0.0368651 31.5283 0.263352L2.31201 12.0584C1.68737 12.3155 1.15567 12.7565 0.787439 13.3227C0.419211 13.889 0.231866 14.5539 0.250259 15.2291C0.268652 15.9043 0.491913 16.558 0.890422 17.1034C1.28893 17.6488 1.84385 18.0601 2.48155 18.2828L8.39132 20.3386L11.6845 31.2322C11.7296 31.3775 11.7949 31.5158 11.8785 31.643C11.8915 31.6626 11.9095 31.6756 11.9225 31.6968C12.0186 31.8305 12.1346 31.9487 12.2665 32.0473C12.3033 32.0762 12.3414 32.1033 12.3806 32.1288C12.535 32.2313 12.706 32.3063 12.886 32.3505L12.9072 32.3522L12.917 32.3571C13.0259 32.3789 13.1368 32.3899 13.2479 32.3897L13.2773 32.3848C13.4442 32.382 13.6098 32.3534 13.768 32.3C13.8055 32.287 13.8365 32.2674 13.8723 32.2511C13.9907 32.2026 14.1029 32.1402 14.2065 32.0652C14.2891 31.9951 14.3717 31.925 14.4543 31.8549L18.8594 26.9918L25.4294 32.0815C26.0077 32.532 26.7196 32.7769 27.4526 32.7777C28.2208 32.7768 28.9654 32.5117 29.5614 32.027C30.1575 31.5423 30.5687 30.8674 30.7262 30.1154L36.0458 4.00322C36.1661 3.41576 36.1245 2.80664 35.9255 2.24097C35.7266 1.67529 35.3776 1.17431 34.916 0.791562ZM13.8935 20.8571C13.6677 21.0824 13.5135 21.3694 13.4501 21.682L12.9447 24.1339L11.6666 19.9066L18.2936 16.4553L13.8935 20.8571ZM27.4281 29.5041L19.6631 23.4883C19.3382 23.2376 18.9307 23.1185 18.5219 23.1548C18.1131 23.191 17.733 23.38 17.4573 23.684L16.0455 25.2409L16.5444 22.8167L28.0916 11.2694C28.3656 10.9937 28.5321 10.6293 28.5611 10.2417C28.5901 9.85411 28.4796 9.46894 28.2497 9.1556C28.0198 8.84226 27.6854 8.62138 27.307 8.53277C26.9286 8.44416 26.531 8.49366 26.1858 8.67234L9.61403 17.2998L3.54124 15.0777L32.8521 3.35436L27.4281 29.5041Z" fill="#B4B4B4"/>
</svg>
