<svg width="33" height="33" viewBox="0 0 33 33" fill="none" xmlns="http://www.w3.org/2000/svg">
<path d="M16.0993 0.0195312C13.6196 0.0195312 7.48559 0.280552 4.22283 3.41281C1.87364 5.63148 0.960067 9.02476 0.829556 13.0706C0.568535 19.4656 2.00415 23.5114 4.35334 25.5996C4.87538 25.9911 6.18049 27.0352 8.66019 27.8183V31.081C8.66019 31.081 8.66019 32.3861 9.44325 32.6472C9.57376 32.6472 9.70427 32.7777 9.83478 32.7777C10.6178 32.7777 11.2704 31.8641 12.184 30.9505C12.967 30.037 13.6196 29.3844 14.0111 28.7318H16.8824C19.3621 28.7318 25.496 28.4708 28.7588 25.3386C31.108 22.9894 32.0216 19.5961 32.0216 15.2893C32.1521 14.6367 32.1521 13.8536 32.1521 13.0706C32.0216 8.24169 30.586 4.97893 28.6283 3.15178C27.8452 2.49923 24.452 0.0195312 17.1434 0.0195312H16.0993ZM15.8383 2.49923H17.0129C23.9299 2.49923 26.5401 4.71791 26.8012 4.97893C28.3673 6.28404 29.2809 9.15527 29.4114 12.9401V13.4621C29.5419 14.2452 29.5419 14.8977 29.5419 15.2893C29.4114 19.2046 28.6283 21.8148 27.0622 23.5114C24.3215 25.9911 18.579 26.1216 17.0129 26.1216H14.5332L12.445 28.4708L11.1399 29.9064L10.8789 30.298C10.6178 30.559 10.2263 31.081 9.96529 31.2115V25.3386C7.35508 24.686 6.311 23.7724 6.04998 23.5114C4.22283 21.9453 3.17875 18.1605 3.43977 13.0706V11.7655C3.70079 8.63323 4.48385 6.54506 5.78896 5.10944C8.52968 2.62974 14.2721 2.49923 15.8383 2.49923ZM15.7078 5.37046C15.0552 5.37046 15.0552 6.28404 15.7078 6.28404C20.5366 6.28404 24.713 9.5468 24.713 15.6808C24.713 16.3333 25.6266 16.3333 25.6266 15.6808C25.6266 9.02476 21.1892 5.23995 15.7078 5.37046ZM10.5356 6.57768C10.2399 6.54225 9.94206 6.62374 9.70558 6.80477C8.40047 7.45733 7.09406 8.76504 7.48559 10.2007C7.48559 10.2007 7.74661 11.3739 9.18223 13.8536C9.96529 15.0282 10.6178 16.0723 11.2704 16.8554C11.923 17.769 12.967 18.813 14.0111 19.5961C16.0993 21.2927 19.3621 22.9894 20.7977 23.3809C22.1028 23.7724 23.5384 22.4673 24.1909 21.1622C24.452 20.6402 24.3215 19.9876 23.7994 19.5961C23.0163 18.813 21.7112 17.8995 20.7977 17.3774C20.1451 16.9859 19.3621 17.2469 19.101 17.6385L18.4485 18.4215C18.1875 18.813 17.5349 18.813 17.5349 18.813C13.2281 17.6385 12.0535 13.2011 12.0535 13.2011C12.0535 13.2011 12.0535 12.6791 12.445 12.2875L13.2281 11.635C13.6196 11.3739 13.8806 10.5909 13.4891 9.93833C13.2281 9.5468 12.8365 8.76374 12.445 8.3722C12.0535 7.85016 11.2704 6.93659 11.2704 6.93659C11.0724 6.73831 10.8137 6.61197 10.5356 6.57768ZM16.6213 7.98067C15.9688 7.85016 15.8383 8.89425 16.4908 8.89425C20.1451 9.15527 22.2333 11.635 22.1028 14.7672C21.9723 15.4198 23.0163 15.4198 23.0163 14.7672C23.1469 11.1129 20.7977 8.11119 16.6213 7.98067ZM17.0129 10.4604C16.3603 10.3299 16.3603 11.3739 17.0129 11.3739C18.579 11.3739 19.3621 12.2875 19.3621 13.8536C19.4926 14.5062 20.4061 14.5062 20.4061 13.8536C20.2756 11.7655 19.101 10.4604 17.0129 10.4604Z" fill="#B4B4B4"/>
</svg>
