<svg width="33" height="33" viewBox="0 0 33 33" fill="none" xmlns="http://www.w3.org/2000/svg">
<path d="M4.65929 32.2448H27.2339C27.9642 32.2448 28.5618 31.6473 28.5618 30.9169V25.6052H31.2176C31.948 25.6052 32.5455 25.0077 32.5455 24.2773V17.6378C32.5455 16.9074 31.948 16.3098 31.2176 16.3098H28.5618V10.9982C28.5618 10.2678 27.9642 9.67026 27.2339 9.67026H25.9059V4.35859C25.9059 3.62824 25.3084 3.03068 24.578 3.03068H15.515L12.0624 0.60723C11.4649 0.175657 10.6349 0.341647 10.2033 0.939209C10.1701 0.972407 10.1701 1.0056 10.1369 1.0388L9.00821 3.03068H5.32324C2.767 3.03068 0.675537 5.12214 0.675537 7.67838C0.675537 7.84437 0.708735 7.97716 0.708735 8.10996C0.708735 8.20955 0.675537 8.27595 0.675537 8.34234V28.2611C0.675537 30.4521 2.46822 32.2448 4.65929 32.2448ZM29.8897 22.9494H23.9141C22.8185 22.9494 21.9222 22.0531 21.9222 20.9575C21.9222 19.862 22.8185 18.9657 23.9141 18.9657H29.8897V22.9494ZM23.9141 16.3098C21.3578 16.3098 19.2664 18.4013 19.2664 20.9575C19.2664 23.5138 21.3578 25.6052 23.9141 25.6052H25.9059V29.589H4.65929C3.92893 29.589 3.33137 28.9914 3.33137 28.2611V11.8613C3.96213 12.1601 4.62609 12.3261 5.32324 12.3261H25.9059V16.3098H23.9141ZM23.2501 5.68651V8.44193L19.2996 5.68651H23.2501ZM11.7304 3.62824L20.3619 9.67026H8.27786L11.7304 3.62824ZM5.32324 5.68651H7.48111L5.22365 9.67026C4.12812 9.63706 3.26497 8.74072 3.26497 7.64518C3.26497 6.54965 4.22771 5.65331 5.32324 5.68651Z" fill="white"/>
</svg>
