<svg width="34" height="33" viewBox="0 0 34 33" fill="none" xmlns="http://www.w3.org/2000/svg">
<path fill-rule="evenodd" clip-rule="evenodd" d="M24.732 19.6499C24.3253 19.4465 22.3311 18.4665 21.9598 18.33C21.5886 18.1949 21.3183 18.128 21.0467 18.5347C20.7765 18.9387 19.9998 19.8532 19.7637 20.1235C19.5262 20.3951 19.2901 20.4279 18.8847 20.2259C18.4793 20.0211 17.1717 19.5939 15.6225 18.2126C14.4173 17.1371 13.6024 15.809 13.3663 15.4022C13.1302 14.9969 13.3404 14.7771 13.5438 14.5751C13.7267 14.3936 13.9491 14.1015 14.1525 13.8653C14.3559 13.6278 14.4228 13.4586 14.5579 13.187C14.6944 12.9167 14.6261 12.6806 14.5238 12.4772C14.4228 12.2738 13.612 10.277 13.2735 9.46484C12.9446 8.67455 12.6101 8.78238 12.3617 8.76873C12.1242 8.75781 11.854 8.75508 11.5837 8.75508C11.3135 8.75508 10.874 8.85608 10.5027 9.26283C10.1301 9.66821 9.08319 10.6496 9.08319 12.6465C9.08319 14.642 10.5355 16.5706 10.7388 16.8422C10.9422 17.1125 13.5983 21.21 17.6672 22.9666C18.6363 23.3843 19.3911 23.6341 19.9793 23.8197C20.9512 24.1295 21.8356 24.0859 22.5345 23.9808C23.3125 23.8647 24.934 22.9994 25.2725 22.0521C25.6096 21.1049 25.6096 20.2927 25.5086 20.1235C25.4076 19.9542 25.1374 19.8532 24.7306 19.6499H24.732ZM17.3314 29.7544H17.3259C14.9093 29.7548 12.5369 29.1052 10.4577 27.8735L9.96629 27.5814L4.85876 28.9218L6.22232 23.9425L5.90156 23.4321C4.55048 21.2814 3.83547 18.7924 3.83917 16.2526C3.8419 8.81377 9.89395 2.76171 17.3369 2.76171C20.9403 2.76171 24.328 4.16758 26.8749 6.71725C28.1312 7.96831 29.1269 9.45605 29.8044 11.0944C30.482 12.7328 30.8279 14.4892 30.8223 16.2621C30.8195 23.701 24.7675 29.7544 17.3314 29.7544ZM28.8131 4.78043C27.3092 3.26663 25.5199 2.06634 23.5487 1.24911C21.5776 0.43188 19.4639 0.0139675 17.33 0.0195872C8.38435 0.0195872 1.10114 7.30144 1.09841 16.2512C1.09704 19.1121 1.84365 21.9047 3.26453 24.3657L0.961914 32.7777L9.56637 30.5201C11.9466 31.8169 14.614 32.4964 17.3246 32.4965H17.3314C26.2771 32.4965 33.5603 25.2147 33.563 16.2635C33.5696 14.1305 33.1532 12.0174 32.3379 10.0463C31.5226 8.0753 30.3246 6.28549 28.8131 4.78043Z" fill="#B4B4B4"/>
</svg>
