<svg width="41" height="29" viewBox="0 0 41 29" fill="none" xmlns="http://www.w3.org/2000/svg">
<path d="M39.2592 4.99079C39.0315 4.14275 38.585 3.36938 37.9645 2.7481C37.344 2.12681 36.5712 1.67939 35.7235 1.45061C32.6029 0.611328 20.094 0.611328 20.094 0.611328C20.094 0.611328 7.58507 0.611328 4.46453 1.44615C3.61641 1.67418 2.84321 2.12135 2.22259 2.74276C1.60197 3.36416 1.15578 4.13792 0.928815 4.98633C0.093994 8.11133 0.0939941 14.6292 0.0939941 14.6292C0.0939941 14.6292 0.093994 21.147 0.928815 24.2676C1.38864 25.9908 2.74578 27.3479 4.46453 27.8078C7.58507 28.647 20.094 28.647 20.094 28.647C20.094 28.647 32.6029 28.647 35.7235 27.8078C37.4467 27.3479 38.7994 25.9908 39.2592 24.2676C40.094 21.147 40.094 14.6292 40.094 14.6292C40.094 14.6292 40.094 8.11133 39.2592 4.99079ZM16.1208 20.6113V8.64704L26.4779 14.5845L16.1208 20.6113Z" fill="white"/>
</svg>
