<svg fill="none" height="189" viewBox="0 0 188 189" width="188" xmlns="http://www.w3.org/2000/svg"><path d="m39.5854 161.522h108.7776c3.519 0 6.398 2.879 6.398 6.399v12.797c0 3.519-2.879 6.399-6.398 6.399h-108.7776c-3.5192 0-6.3986-2.88-6.3986-6.399v-12.797c0-3.52 2.8794-6.399 6.3986-6.399z" fill="#06aae9"/><path d="m139.445 178.358c2.208 0 3.999-1.79 3.999-3.999 0-2.208-1.791-3.999-3.999-3.999-2.209 0-4 1.791-4 3.999 0 2.209 1.791 3.999 4 3.999z" fill="#000"/><path d="m39.5854 84.7378h108.7776c3.519 0 6.398 2.8794 6.398 6.3987v12.7975c0 3.519-2.879 6.398-6.398 6.398h-108.7776c-3.5192 0-6.3986-2.879-6.3986-6.398v-12.7975c0-3.5193 2.8794-6.3987 6.3986-6.3987z" fill="#06aae9"/><g fill="#000"><path d="m138.605 101.774c2.209 0 3.999-1.79 3.999-3.9987s-1.79-3.9992-3.999-3.9992-3.999 1.7905-3.999 3.9992 1.79 3.9987 3.999 3.9987z"/><path d="m20.7494 88.8571c-11.11767 0-20.115794-9.0381-20.115794-20.1158s9.038114-20.1158 20.115794-20.1158c3.6393 0 7.1985.9597 10.3179 2.7594l3.3193 1.9196.08-3.8392c.0799-4.5591 1.3997-8.9982 3.7992-12.8773 4.639-7.5185 12.7173-11.9575 21.5555-11.9575 4.679 0 9.318 1.3197 13.3172 3.7992l2.2795 1.4397.9998-2.5195c6.3587-15.9567 21.5955-26.474499 38.7922-26.754441h.72c11.197 0 21.795 4.319101 29.793 12.197441 7.999 7.8784 12.518 18.3962 12.718 29.5938 0 1.5997-.12 3.1994-.32 4.7591l-.44 3.5192 3.359-1.0798c2-.6398 4.079-.9597 6.199-.9597 11.118 0 20.156 9.0381 20.156 20.1158 0 11.1176-9.038 20.1158-20.116 20.1158-.52 0-.92-.3999-.92-.9198s.4-.9199.92-.9199c10.078 0 18.276-8.1982 18.276-18.2761s-8.198-18.2762-18.276-18.2762c-3.879 0-7.599 1.1997-10.758 3.3993-.16.1199-.32.1599-.52.1599-.08 0-.16 0-.24-.04-.32-.08-.48-.3199-.56-.4399-.08-.1199-.16-.3999-.08-.7198.96-3.3993 1.48-6.9586 1.48-10.5178v-.04c-.16-8.7582-3.079-17.0365-8.398-23.955-5.319-6.9186-12.598-11.87756-20.996-14.27706-3.679-1.03978-7.438-1.59966-11.237-1.59966-17.9967 0-34.0733 12.11752-39.0323 29.43382-.04.16-.12.28-.2.4-.2399.2799-.5598.3199-.7198.3199s-.3999-.04-.5999-.24c-4.2791-3.7592-9.7979-5.8787-15.5167-5.8787h-.2c-12.7174 0-23.1552 10.3178-23.2752 23.0352 0 2.9593.5999 5.8387 1.7197 8.5582.16.3999 0 .8798-.3599 1.1197-.16.12-.32.16-.5199.16-.32 0-.5999-.1599-.7999-.4399-3.2793-5.1589-8.9581-8.3183-15.1168-8.4382-.12 0-.2 0-.3199 0-9.918 0-18.07628 8.0783-18.27624 17.9562-.07998 4.879 1.75964 9.4781 5.11894 12.9973 3.3593 3.5193 7.9583 5.4789 12.8373 5.5589.5599 0 .9598.3999.9598.9198s-.3999.9598-.9198.9598z"/><path d="m39.5854 149.685c-4.0391 0-7.3184-3.28-7.3184-7.319v-12.797c0-4.039 3.2793-7.319 7.3184-7.319h108.7776c4.039 0 7.318 3.28 7.318 7.319v12.797c0 4.039-3.279 7.319-7.318 7.319zm0-25.595c-2.9993 0-5.4788 2.439-5.4788 5.479v12.797c0 2.999 2.4395 5.479 5.4788 5.479h108.7776c2.999 0 5.479-2.44 5.479-5.479v-12.797c0-3-2.44-5.479-5.479-5.479z"/><path d="m45.3443 136.887c-.5199 0-.9198-.4-.9198-.92 0-.519.3999-.919.9198-.919h60.7877c.52 0 .919.4.919.919 0 .52-.399.92-.919.92z"/><path d="m117.409 136.887c-.52 0-.92-.4-.92-.92 0-.519.4-.919.92-.919h8.518c.52 0 .92.4.92.919 0 .52-.4.92-.92.92z"/><path d="m39.5854 188.076c-4.0391 0-7.3184-3.279-7.3184-7.318v-12.797c0-4.04 3.2793-7.319 7.3184-7.319h108.7776c4.039 0 7.318 3.279 7.318 7.319v12.797c0 4.039-3.279 7.318-7.318 7.318zm0-25.594c-2.9993 0-5.4788 2.439-5.4788 5.479v12.797c0 2.999 2.4395 5.479 5.4788 5.479h108.7776c2.999 0 5.479-2.44 5.479-5.479v-12.797c0-3-2.44-5.479-5.479-5.479z"/><path d="m45.3443 175.279c-.5199 0-.9198-.4-.9198-.92 0-.519.3999-.919.9198-.919h60.7877c.52 0 .919.4.919.919 0 .52-.399.92-.919.92z"/><path d="m117.409 175.279c-.52 0-.92-.4-.92-.92 0-.519.4-.919.92-.919h8.518c.52 0 .92.4.92.919 0 .52-.4.92-.92.92z"/><path d="m39.5854 111.292c-4.0391 0-7.3184-3.279-7.3184-7.318v-12.7974c0-4.0391 3.2793-7.3184 7.3184-7.3184h108.7776c4.039 0 7.318 3.2793 7.318 7.3184v12.7974c0 4.039-3.279 7.318-7.318 7.318zm0-25.6342c-2.9993 0-5.4788 2.4395-5.4788 5.4788v12.7974c0 2.999 2.4395 5.479 5.4788 5.479h108.7776c2.999 0 5.479-2.44 5.479-5.479v-12.7974c0-2.9993-2.44-5.4788-5.479-5.4788z"/><path d="m44.7044 98.4951c-.5199 0-.9199-.3999-.9199-.9198s.4-.9198.9199-.9198h60.7876c.52 0 .919.3999.919.9198s-.399.9198-.919.9198z"/><path d="m115.33 98.4951c-.52 0-.92-.3999-.92-.9198s.4-.9198.92-.9198h8.518c.52 0 .92.3999.92.9198s-.4.9198-.92.9198z"/><path d="m68.3794 72.8604c-.5198 0-.9198-.3999-.9198-.9198v-26.5545l-7.9983 7.9983c-.2.2-.4799.24-.5999.24-.1599 0-.3999-.04-.6398-.28-.36-.3599-.4-.9598-.04-1.3197l9.558-9.558c.2399-.2399.5199-.2799.6398-.2799.16 0 .44.04.6399.2799l9.598 9.598c.32.3199.3199.9198-.04 1.2797-.2399.24-.5199.28-.6798.28-.16 0-.4-.04-.6399-.28l-7.9983-7.9983v26.5545c.0799.5599-.36.9598-.8799.9598z"/><path d="m119.569 72.8604c-.16 0-.44-.04-.64-.2799l-9.598-9.598c-.32-.32-.32-.9198.04-1.2797.24-.24.52-.28.68-.28s.4.04.64.28l7.998 7.9983v-26.5545c0-.5199.4-.9198.92-.9198s.92.3999.92.9198v26.5545l7.998-7.9983c.2-.2.48-.24.6-.24s.4.04.64.2799c.36.36.36.9598.04 1.3198l-9.558 9.558c-.24.2399-.52.2399-.68.2399z"/><path d="m139.445 140.046c2.208 0 3.999-1.79 3.999-3.999 0-2.208-1.791-3.999-3.999-3.999-2.209 0-4 1.791-4 3.999 0 2.209 1.791 3.999 4 3.999z"/></g></svg>