<svg fill="none" height="38" viewBox="0 0 263 38" width="263" xmlns="http://www.w3.org/2000/svg"><path d="m84.7694 13.967c-1.1463 1.5587-3.0643 4.2683-4.2315 5.8509-.5926.8048-1.6628 2.2661 1.8851 2.2661h18.68s3.011-4.1125 5.535-7.552c3.433-4.67891.297-14.414446-11.977-14.414446-10.9856 0-48.3367 0-48.3367 0l-8.381 11.433546h45.6783c2.3061 0 2.2748.8812 1.1478 2.4159zm-13.723 10.9375c-3.548 0-2.4778-1.4642-1.8852-2.269 1.1672-1.5827 3.1166-4.2638 4.2629-5.8225 1.1284-1.5346 1.1583-2.4159-1.1508-2.4159-2.2285 0-20.8906 0-20.8906 0l-16.8321 22.9691h41.0482c13.5574 0 21.1056-9.259 23.4325-12.4602 0-.0015-24.2325-.0015-27.9849-.0015zm26.7028 12.4617h24.0798l9.129-12.4632-24.077.003c-.008-.0015-9.1318 12.4602-9.1318 12.4602zm62.1298-37.248646-9.236 12.596546h-10.747l9.232-12.596546h-24.073l-16.105 21.966446h58.898l16.101-21.966446zm-27.303 37.248646h24.072l9.133-12.4602h-24.071c-.009-.0015-9.134 12.4602-9.134 12.4602zm-132.385326-7.546v2.6467h33.535926l1.9375-2.6467zm39.078026-4.9157h-39.078026v2.6437h37.136126zm-39.078026 12.4617h29.943226l1.9285-2.6318h-31.871726zm226.984326-4.9008h35.339v-2.6467h-33.399zm-3.59 4.9008h38.929v-2.6318h-37.002zm9.129-12.4617-1.936 2.6467h31.736v-2.6467zm-31.53-2.8205 16.104-21.966446h-25.495c-.009 0-16.116 21.966446-16.116 21.966446zm-27.571 2.8205s-1.76 2.4144-2.615 3.5774c-3.023 4.1004-.35 8.8843 9.516 8.8843h38.661l9.133-12.4602h-54.695z" fill="#fff"/></svg>