<svg fill="none" height="46" viewBox="0 0 178 46" width="178" xmlns="http://www.w3.org/2000/svg"><g fill="#000"><path d="m8.50691 33.89c-1.69608 0-3.32591-.2385-4.88948-.7155-1.53708-.5035-2.742888-1.1263-3.61743-1.8683l1.27206-2.2262c.87454.6891 1.97435 1.2589 3.29941 1.7094 1.32507.424 2.70313.636 4.1342.636 1.90813 0 3.31263-.2915 4.21373-.8745.9275-.6096 1.3913-1.4576 1.3913-2.5442 0-.7685-.2518-1.3648-.7553-1.7888-.5035-.4505-1.1395-.7818-1.9081-.9938-.7685-.2385-1.78882-.4638-3.06088-.6758-1.69609-.318-3.0609-.636-4.09445-.954-1.03355-.3445-1.92135-.9143-2.66338-1.7094-.71554-.795-1.073303-1.8948-1.073303-3.2994 0-1.749.728783-3.1801 2.186353-4.2932 1.45757-1.113 3.48492-1.6695 6.08205-1.6695 1.35161 0 2.70311.1855 4.05471.5565 1.3515.3445 2.4646.8083 3.3391 1.3913l-1.2323 2.2659c-1.7225-1.1926-3.7764-1.7889-6.16151-1.7889-1.80209 0-3.16691.318-4.09445.9541-.90105.636-1.35157 1.4708-1.35157 2.5043 0 .7951.25177 1.4311.75529 1.9081.53003.4771 1.17931.8348 1.94784 1.0733.76854.212 1.82859.4373 3.18016.6758 1.66954.318 3.00794.636 4.01494.9541 1.0071.318 1.8683.8613 2.5839 1.6298.7155.7685 1.0733 1.8286 1.0733 3.1801 0 1.8286-.7686 3.2862-2.3056 4.3728-1.5106 1.06-3.6175 1.59-6.32059 1.59z"/><path d="m32.6466 32.4192c-.53.477-1.1793.8481-1.9479 1.1131-.7685.2385-1.5768.3577-2.4248.3577-1.9611 0-3.4717-.53-4.5318-1.59-1.06-1.0601-1.59-2.5574-1.59-4.492v-19.59771h2.8224v4.57151h6.3205v2.3851h-6.3205v12.4821c0 1.2455.3047 2.1996.9143 2.8621.6095.636 1.4973.9541 2.6633.9541 1.2721 0 2.3056-.3578 3.1007-1.0733z"/><path d="m56.1058 12.7818v20.9095h-2.7031v-4.1342c-.8481 1.4045-1.9744 2.4778-3.3789 3.2199-1.3781.742-2.9417 1.113-4.6908 1.113-1.9611 0-3.7366-.4505-5.3267-1.3515-1.5901-.9011-2.8357-2.1599-3.7367-3.7765-.901-1.6165-1.3516-3.4584-1.3516-5.5255s.4506-3.9089 1.3516-5.5255 2.1466-2.8621 3.7367-3.7367c1.5901-.901 3.3656-1.3515 5.3267-1.3515 1.6961 0 3.2199.3577 4.5715 1.0733 1.3781.689 2.5044 1.7093 3.3789 3.0608v-3.9751zm-10.5343 18.6039c1.4576 0 2.7694-.3313 3.9355-.9938 1.1925-.6891 2.1201-1.6564 2.7826-2.9019.6891-1.2456 1.0336-2.6634 1.0336-4.2535s-.3445-3.0079-1.0336-4.2534c-.6625-1.2456-1.5901-2.1996-2.7826-2.8622-1.1661-.689-2.4779-1.0335-3.9355-1.0335-1.484 0-2.8223.3445-4.0149 1.0335-1.1661.6626-2.0936 1.6166-2.7826 2.8622-.6626 1.2455-.9938 2.6633-.9938 4.2534s.3312 3.0079.9938 4.2535c.689 1.2455 1.6165 2.2128 2.7826 2.9019 1.1926.6625 2.5309.9938 4.0149.9938z"/><path d="m70.4059 6.3817c-1.219 0-2.1466.33126-2.7826.99379-.6095.66254-.9143 1.64309-.9143 2.94161v2.4647h6.4398v2.3851h-6.3603v18.5244h-2.8224v-23.4934c0-1.90811.5433-3.41868 1.6299-4.53174 1.113-1.11305 2.6766-1.66958 4.6907-1.66958.795 0 1.5636.11926 2.3056.35777.742.21201 1.3648.53003 1.8683.95405l-.954 2.10685c-.8215-.68904-1.8551-1.03355-3.1007-1.03355z"/><path d="m83.4107 6.3817c-1.219 0-2.1466.33126-2.7826.99379-.6095.66254-.9143 1.64309-.9143 2.94161v2.4647h6.4398v2.3851h-6.3603v18.5244h-2.8224v-23.4934c0-1.90811.5433-3.41868 1.6298-4.53174 1.1131-1.11305 2.6767-1.66958 4.6908-1.66958.795 0 1.5635.11926 2.3056.35777.742.21201 1.3648.53003 1.8683.95405l-.954 2.10685c-.8216-.68904-1.8551-1.03355-3.1007-1.03355z"/><path d="m95.5807 33.89c-1.6961 0-3.3259-.2385-4.8895-.7155-1.5371-.5035-2.7429-1.1263-3.6174-1.8683l1.2721-2.2262c.8745.6891 1.9743 1.2589 3.2994 1.7094 1.325.424 2.7031.636 4.1342.636 1.9081 0 3.3126-.2915 4.2137-.8745.9278-.6096 1.3908-1.4576 1.3908-2.5442 0-.7685-.251-1.3648-.755-1.7888-.503-.4505-1.1393-.7818-1.9079-.9938-.7685-.2385-1.7888-.4638-3.0609-.6758-1.6961-.318-3.0609-.636-4.0944-.954-1.0336-.3445-1.9214-.9143-2.6634-1.7094-.7155-.795-1.0733-1.8948-1.0733-3.2994 0-1.749.7288-3.1801 2.1863-4.2932 1.4576-1.113 3.485-1.6695 6.0821-1.6695 1.3516 0 2.7031.1855 4.0545.5565 1.352.3445 2.465.8083 3.339 1.3913l-1.232 2.2659c-1.723-1.1926-3.7764-1.7889-6.1615-1.7889-1.8021 0-3.1669.318-4.0945.9541-.901.636-1.3515 1.4708-1.3515 2.5043 0 .7951.2517 1.4311.7553 1.9081.53.4771 1.1793.8348 1.9478 1.0733.7685.212 1.8286.4373 3.1802.6758 1.6695.318 3.0079.636 4.0152.9541 1.007.318 1.868.8613 2.584 1.6298.715.7685 1.073 1.8286 1.073 3.1801 0 1.8286-.769 3.2862-2.306 4.3728-1.51 1.06-3.6172 1.59-6.3203 1.59z"/><path d="m118.091 33.89c-2.068 0-3.923-.4505-5.566-1.3515-1.616-.9011-2.888-2.1599-3.816-3.7765-.927-1.643-1.391-3.4849-1.391-5.5255s.464-3.8692 1.391-5.4857c.928-1.6166 2.2-2.8754 3.816-3.7765 1.643-.901 3.498-1.3515 5.566-1.3515 1.802 0 3.405.3577 4.81 1.0733 1.431.689 2.557 1.7093 3.378 3.0608l-2.106 1.4311c-.689-1.0335-1.564-1.8021-2.624-2.3056-1.06-.53-2.213-.795-3.458-.795-1.511 0-2.876.3445-4.095 1.0335-1.192.6626-2.133 1.6166-2.822 2.8622-.663 1.2455-.994 2.6633-.994 4.2534 0 1.6166.331 3.0477.994 4.2932.689 1.2191 1.63 2.1731 2.822 2.8622 1.219.6625 2.584.9938 4.095.9938 1.245 0 2.398-.2518 3.458-.7553s1.935-1.2721 2.624-2.3056l2.106 1.431c-.821 1.3516-1.947 2.3851-3.378 3.1007-1.432.689-3.035 1.0335-4.81 1.0335z"/><path d="m150.555 12.7818v20.9095h-2.703v-4.1342c-.848 1.4045-1.974 2.4778-3.379 3.2199-1.378.742-2.941 1.113-4.69 1.113-1.961 0-3.737-.4505-5.327-1.3515-1.59-.9011-2.836-2.1599-3.737-3.7765-.901-1.6165-1.351-3.4584-1.351-5.5255s.45-3.9089 1.351-5.5255 2.147-2.8621 3.737-3.7367c1.59-.901 3.366-1.3515 5.327-1.3515 1.696 0 3.22.3577 4.571 1.0733 1.378.689 2.505 1.7093 3.379 3.0608v-3.9751zm-10.534 18.6039c1.458 0 2.77-.3313 3.936-.9938 1.192-.6891 2.12-1.6564 2.782-2.9019.689-1.2456 1.034-2.6634 1.034-4.2535s-.345-3.0079-1.034-4.2534c-.662-1.2456-1.59-2.1996-2.782-2.8622-1.166-.689-2.478-1.0335-3.936-1.0335-1.484 0-2.822.3445-4.015 1.0335-1.166.6626-2.093 1.6166-2.782 2.8622-.663 1.2455-.994 2.6633-.994 4.2534s.331 3.0079.994 4.2535c.689 1.2455 1.616 2.2128 2.782 2.9019 1.193.6625 2.531.9938 4.015.9938z"/><path d="m169.069 12.6228c2.624 0 4.704.7685 6.241 2.3056 1.564 1.5105 2.346 3.7234 2.346 6.6385v12.1244h-2.823v-11.8461c0-2.1731-.543-3.8294-1.63-4.969-1.086-1.1395-2.636-1.7093-4.65-1.7093-2.253 0-4.042.6758-5.367 2.0273-1.299 1.3251-1.948 3.1669-1.948 5.5255v10.9716h-2.822v-20.9095h2.703v3.8559c.768-1.2721 1.828-2.2526 3.18-2.9416 1.378-.7156 2.968-1.0733 4.77-1.0733z"/></g><path d="m95.1794 6.9077c0-3.59254 2.9124-6.504868 6.5046-6.504868h31.991c3.592 0 6.504 2.912328 6.504 6.504858v31.99031c0 3.5925-2.912 6.5048-6.504 6.5048h-31.991c-3.5922 0-6.5046-2.9123-6.5046-6.5048z" fill="#29abe2"/><path d="m95.1794 31.4127c.199.0083.399.0125.6.0125 1.9081 0 3.3127-.2915 4.2138-.8745.9278-.6096 1.3908-1.4576 1.3908-2.5441 0-.7686-.251-1.3649-.755-1.7889-.503-.4505-1.1394-.7818-1.9079-.9938-.7685-.2385-1.7888-.4638-3.0609-.6758-.1633-.0306-.3236-.0612-.4808-.0918v-2.5475c.4135.083.8652.1677 1.3553.2542 1.6696.318 3.0079.6361 4.0153.9541 1.007.318 1.868.8613 2.584 1.6298.715.7685 1.073 1.8286 1.073 3.1801 0 1.8286-.769 3.2862-2.306 4.3728-1.51 1.06-3.6172 1.59-6.3203 1.59-.1342 0-.2679-.0015-.4013-.0044z" fill="#fff"/><path d="m140.179 12.6292c-.131-.0044-.263-.0066-.396-.0066-1.961 0-3.737.4505-5.327 1.3515-1.59.8746-2.836 2.1201-3.737 3.7367s-1.351 3.4584-1.351 5.5255.45 3.909 1.351 5.5255c.901 1.6166 2.147 2.8754 3.737 3.7765 1.59.901 3.366 1.3515 5.327 1.3515.133 0 .265-.0021.396-.0064v-2.4992c-.052.0008-.105.0013-.158.0013-1.484 0-2.822-.3313-4.015-.9938-1.166-.6891-2.093-1.6564-2.782-2.9019-.663-1.2456-.994-2.6634-.994-4.2535s.331-3.0079.994-4.2534c.689-1.2456 1.616-2.1996 2.782-2.8622 1.193-.689 2.531-1.0335 4.015-1.0335.053 0 .106.0004.158.0013z" fill="#fff"/><path d="m95.1794 15.0775v-2.4305c.2977-.0163.6037-.0244.9181-.0244 1.3515 0 2.7031.1855 4.0545.5565 1.352.3445 2.465.8083 3.339 1.3913l-1.232 2.2659c-1.723-1.1926-3.7764-1.7889-6.1615-1.7889-.3198 0-.6258.01-.9181.0301z" fill="#fff"/><path d="m112.525 32.5383c1.643.901 3.498 1.3515 5.566 1.3515 1.775 0 3.378-.3445 4.81-1.0335 1.431-.7155 2.557-1.7491 3.378-3.1007l-2.106-1.431c-.689 1.0335-1.564 1.8021-2.624 2.3056s-2.213.7553-3.458.7553c-1.511 0-2.876-.3313-4.095-.9938-1.192-.6891-2.133-1.6431-2.822-2.8622-.663-1.2455-.994-2.6766-.994-4.2932 0-1.5901.331-3.0079.994-4.2534.689-1.2456 1.63-2.1996 2.822-2.8622 1.219-.689 2.584-1.0335 4.095-1.0335 1.245 0 2.398.265 3.458.795 1.06.5035 1.935 1.2721 2.624 2.3056l2.106-1.431c-.821-1.3516-1.947-2.3719-3.378-3.0609-1.405-.7156-3.008-1.0733-4.81-1.0733-2.068 0-3.923.4505-5.566 1.3515-1.616.9011-2.888 2.1599-3.816 3.7765-.927 1.6165-1.391 3.4451-1.391 5.4857s.464 3.8825 1.391 5.5255c.928 1.6166 2.2 2.8754 3.816 3.7765z" fill="#fff"/></svg>