<svg fill="none" height="65" viewBox="0 0 252 65" width="252" xmlns="http://www.w3.org/2000/svg"><g fill="#fff"><path d="m12.0665 47.9196c-2.40575 0-4.71756-.3383-6.9354-1.0149-2.18025-.7142-3.89061-1.5976-5.1311-2.6501l1.80434-3.1576c1.24049.9773 2.80049 1.7855 4.68002 2.4246 1.87952.6014 3.83424.9021 5.86414.9021 2.7065 0 4.6988-.4135 5.9769-1.2405 1.3156-.8645 1.9735-2.0674 1.9735-3.6086 0-1.0902-.3572-1.936-1.0714-2.5374-.7142-.639-1.6164-1.1089-2.7065-1.4096-1.0901-.3384-2.5373-.6579-4.3417-.9586-2.40578-.4511-4.34169-.9022-5.80771-1.3533-1.46603-.4886-2.72531-1.2968-3.77785-2.4246-1.01494-1.1277-1.52241-2.6877-1.52241-4.68 0-2.4809 1.03374-4.5108 3.10121-6.0896 2.06748-1.5788 4.94315-2.3682 8.62706-2.3682 1.9171 0 3.8342.2631 5.7513.7894 1.9171.4887 3.4959 1.1465 4.7364 1.9735l-1.748 3.214c-2.4433-1.6916-5.3566-2.5374-8.7397-2.5374-2.5562 0-4.49211.4511-5.80777 1.3533-1.27808.9021-1.91712 2.0862-1.91712 3.5523 0 1.1277.35711 2.0298 1.07133 2.7065.75181.6766 1.67278 1.1841 2.7629 1.5224 1.09013.3007 2.59376.6202 4.51086.9586 2.3682.451 4.2665.9021 5.695 1.3532 1.4284.4511 2.6501 1.2217 3.665 2.3118 1.015 1.0901 1.5224 2.5938 1.5224 4.5109 0 2.5937-1.0901 4.6612-3.2703 6.2024-2.1427 1.5036-5.1311 2.2554-8.9654 2.2554z"/><path d="m46.3072 45.8334c-.7518.6766-1.6728 1.2029-2.7629 1.5788-1.0901.3383-2.2366.5074-3.4395.5074-2.7817 0-4.9244-.7518-6.428-2.2554s-2.2554-3.6275-2.2554-6.3716v-27.7981h4.0034v6.4843h8.9653v3.3832h-8.9653v17.7051c0 1.7667.4323 3.12 1.2968 4.0598.8646.9021 2.1239 1.3532 3.7779 1.3532 1.8043 0 3.2703-.5075 4.3981-1.5224z"/><path d="m79.5827 17.9788v29.6589h-3.8342v-5.8641c-1.2029 1.9923-2.8005 3.5147-4.7928 4.5672-1.9547 1.0526-4.1726 1.5788-6.6535 1.5788-2.7817 0-5.3003-.639-7.5557-1.9171s-4.0222-3.0636-5.3003-5.3566c-1.278-2.293-1.9171-4.9056-1.9171-7.8376 0-2.9321.6391-5.5446 1.9171-7.8376 1.2781-2.2931 3.0449-4.0598 5.3003-5.3003 2.2554-1.2781 4.774-1.9171 7.5557-1.9171 2.4058 0 4.5672.5074 6.4843 1.5224 1.9547.9773 3.5523 2.4246 4.7928 4.3417v-5.6386zm-14.9422 26.3885c2.0675 0 3.9282-.4698 5.5822-1.4096 1.6916-.9774 3.0072-2.3494 3.947-4.1162.9773-1.7667 1.466-3.7778 1.466-6.0332 0-2.2555-.4887-4.2666-1.466-6.0333-.9398-1.7668-2.2554-3.12-3.947-4.0598-1.654-.9773-3.5147-1.466-5.5822-1.466-2.1051 0-4.0034.4887-5.695 1.466-1.6539.9398-2.9696 2.293-3.947 4.0598-.9397 1.7667-1.4096 3.7778-1.4096 6.0333 0 2.2554.4699 4.2665 1.4096 6.0332.9774 1.7668 2.2931 3.1388 3.947 4.1162 1.6916.9398 3.5899 1.4096 5.695 1.4096z"/><path d="m99.8666 8.90072c-1.7292 0-3.0448.46988-3.947 1.40968-.8646.9397-1.2969 2.3306-1.2969 4.1725v3.4959h9.1343v3.3832h-9.0215v26.2757h-4.0034v-33.3239c0-2.7066.7706-4.84922 2.3118-6.42802 1.5788-1.5788 3.7967-2.3682 6.6535-2.3682 1.1276 0 2.2176.16916 3.2706.50747 1.052.30072 1.936.75181 2.65 1.35326l-1.353 2.98839c-1.166-.9773-2.632-1.46598-4.3984-1.46598z"/><path d="m118.313 8.90072c-1.729 0-3.045.46988-3.947 1.40968-.865.9397-1.297 2.3306-1.297 4.1725v3.4959h9.135v3.3832h-9.022v26.2757h-4.003v-33.3239c0-2.7066.77-4.84922 2.311-6.42802 1.579-1.5788 3.797-2.3682 6.654-2.3682 1.128 0 2.218.16916 3.27.50747 1.053.30072 1.936.75181 2.65 1.35326l-1.353 2.98839c-1.165-.9773-2.631-1.46598-4.398-1.46598z"/><path d="m135.575 47.9196c-2.405 0-4.717-.3383-6.935-1.0149-2.18-.7142-3.891-1.5976-5.131-2.6501l1.804-3.1576c1.241.9773 2.801 1.7855 4.68 2.4246 1.88.6014 3.835.9021 5.864.9021 2.707 0 4.699-.4135 5.977-1.2405 1.316-.8645 1.974-2.0674 1.974-3.6086 0-1.0902-.357-1.936-1.072-2.5374-.714-.639-1.616-1.1089-2.706-1.4096-1.09-.3384-2.537-.6579-4.342-.9586-2.406-.4511-4.341-.9022-5.807-1.3533-1.466-.4886-2.726-1.2968-3.778-2.4246-1.015-1.1277-1.523-2.6877-1.523-4.68 0-2.4809 1.034-4.5108 3.101-6.0896 2.068-1.5788 4.944-2.3682 8.628-2.3682 1.917 0 3.834.2631 5.751.7894 1.917.4887 3.496 1.1465 4.736 1.9735l-1.748 3.214c-2.443-1.6916-5.356-2.5374-8.739-2.5374-2.557 0-4.493.4511-5.808 1.3533-1.278.9021-1.917 2.0862-1.917 3.5523 0 1.1277.357 2.0298 1.071 2.7065.752.6766 1.673 1.1841 2.763 1.5224 1.09.3007 2.594.6202 4.511.9586 2.368.451 4.266.9021 5.695 1.3532 1.428.4511 2.65 1.2217 3.665 2.3118s1.522 2.5938 1.522 4.5109c0 2.5937-1.09 4.6612-3.27 6.2024-2.143 1.5036-5.131 2.2554-8.966 2.2554z"/><path d="m167.504 47.9196c-2.932 0-5.563-.639-7.894-1.9171-2.293-1.2781-4.097-3.0636-5.413-5.3566-1.315-2.3306-1.973-4.9432-1.973-7.8376 0-2.8945.658-5.4882 1.973-7.7813 1.316-2.293 3.12-4.0785 5.413-5.3566 2.331-1.2781 4.962-1.9171 7.894-1.9171 2.556 0 4.831.5074 6.823 1.5224 2.03.9773 3.627 2.4246 4.793 4.3417l-2.989 2.0299c-.977-1.466-2.217-2.5562-3.721-3.2704-1.504-.7518-3.139-1.1277-4.906-1.1277-2.142 0-4.078.4887-5.807 1.466-1.692.9398-3.026 2.293-4.004 4.0598-.94 1.7667-1.409 3.7778-1.409 6.0333 0 2.293.469 4.3229 1.409 6.0896.978 1.7292 2.312 3.0824 4.004 4.0598 1.729.9398 3.665 1.4096 5.807 1.4096 1.767 0 3.402-.3571 4.906-1.0713s2.744-1.8043 3.721-3.2704l2.989 2.0299c-1.166 1.9171-2.763 3.3832-4.793 4.3981-2.03.9774-4.304 1.466-6.823 1.466z"/><path d="m213.554 17.9788v29.6589h-3.834v-5.8641c-1.203 1.9923-2.801 3.5147-4.793 4.5672-1.955 1.0526-4.173 1.5788-6.654 1.5788-2.781 0-5.3-.639-7.555-1.9171-2.256-1.2781-4.023-3.0636-5.301-5.3566s-1.917-4.9056-1.917-7.8376c0-2.9321.639-5.5446 1.917-7.8376 1.278-2.2931 3.045-4.0598 5.301-5.3003 2.255-1.2781 4.774-1.9171 7.555-1.9171 2.406 0 4.568.5074 6.485 1.5224 1.954.9773 3.552 2.4246 4.792 4.3417v-5.6386zm-14.942 26.3885c2.067 0 3.928-.4698 5.582-1.4096 1.691-.9774 3.007-2.3494 3.947-4.1162.977-1.7667 1.466-3.7778 1.466-6.0332 0-2.2555-.489-4.2666-1.466-6.0333-.94-1.7668-2.256-3.12-3.947-4.0598-1.654-.9773-3.515-1.466-5.582-1.466-2.105 0-4.004.4887-5.695 1.466-1.654.9398-2.97 2.293-3.947 4.0598-.94 1.7667-1.41 3.7778-1.41 6.0333 0 2.2554.47 4.2665 1.41 6.0332.977 1.7668 2.293 3.1388 3.947 4.1162 1.691.9398 3.59 1.4096 5.695 1.4096z"/><path d="m239.815 17.7533c3.721 0 6.672 1.0901 8.852 3.2704 2.218 2.1426 3.327 5.2814 3.327 9.4164v17.1976h-4.003v-16.8029c0-3.0825-.771-5.4319-2.312-7.0483-1.541-1.6163-3.741-2.4245-6.597-2.4245-3.196 0-5.733.9585-7.612 2.8756-1.842 1.8796-2.763 4.4921-2.763 7.8377v15.5624h-4.004v-29.6589h3.834v5.4694c1.091-1.8043 2.594-3.1952 4.511-4.1725 1.955-1.015 4.21-1.5224 6.767-1.5224z"/><path d="m135.006 9.64668c0-5.09579 4.131-9.226758 9.227-9.226758h45.376c5.096 0 9.227 4.130958 9.227 9.226758v45.37632c0 5.0957-4.131 9.2267-9.227 9.2267h-45.376c-5.096 0-9.227-4.1309-9.227-9.2267z"/></g><path d="m135.006 44.407c.283.0119.566.0178.851.0178 2.707 0 4.699-.4135 5.977-1.2405 1.316-.8645 1.974-2.0674 1.974-3.6086 0-1.0902-.357-1.9359-1.072-2.5374-.714-.639-1.616-1.1089-2.706-1.4096-1.09-.3384-2.537-.6579-4.342-.9586-.231-.0434-.459-.0869-.682-.1303v-3.6135c.587.1178 1.228.238 1.923.3607 2.368.451 4.266.9021 5.695 1.3532 1.428.4511 2.65 1.2217 3.665 2.3118 1.015 1.0902 1.522 2.5938 1.522 4.5109 0 2.5937-1.09 4.6612-3.27 6.2024-2.143 1.5036-5.131 2.2554-8.966 2.2554-.19 0-.38-.0021-.569-.0063z" fill="#1468af"/><path d="m198.836 17.7638c-.186-.0063-.374-.0094-.563-.0094-2.781 0-5.3.639-7.555 1.9171-2.256 1.2405-4.023 3.0072-5.301 5.3003-1.278 2.293-1.917 4.9055-1.917 7.8376 0 2.932.639 5.5446 1.917 7.8376s3.045 4.0786 5.301 5.3566c2.255 1.2781 4.774 1.9171 7.555 1.9171.189 0 .377-.003.563-.0091v-3.545c-.074.0012-.149.0018-.224.0018-2.105 0-4.004-.4698-5.695-1.4096-1.654-.9773-2.97-2.3494-3.947-4.1162-.94-1.7667-1.41-3.7778-1.41-6.0332 0-2.2555.47-4.2665 1.41-6.0333.977-1.7667 2.293-3.12 3.947-4.0598 1.691-.9773 3.59-1.466 5.695-1.466.075 0 .15.0007.224.0019z" fill="#1468af"/><path d="m135.006 21.2365v-3.4474c.423-.0231.857-.0347 1.303-.0347 1.917 0 3.834.2631 5.751.7894 1.917.4887 3.496 1.1465 4.736 1.9735l-1.748 3.214c-2.443-1.6916-5.356-2.5374-8.739-2.5374-.454 0-.888.0142-1.303.0426z" fill="#1468af"/><path d="m159.61 46.0036c2.331 1.2781 4.962 1.9171 7.894 1.9171 2.519 0 4.793-.4886 6.823-1.466 2.03-1.0149 3.627-2.481 4.793-4.3981l-2.989-2.0298c-.977 1.466-2.217 2.5561-3.721 3.2703s-3.139 1.0713-4.906 1.0713c-2.142 0-4.078-.4698-5.807-1.4096-1.692-.9773-3.026-2.3306-4.004-4.0598-.94-1.7667-1.409-3.7966-1.409-6.0896 0-2.2555.469-4.2665 1.409-6.0333.978-1.7667 2.312-3.12 4.004-4.0598 1.729-.9773 3.665-1.466 5.807-1.466 1.767 0 3.402.3759 4.906 1.1277 1.504.7142 2.744 1.8044 3.721 3.2704l2.989-2.0299c-1.166-1.9171-2.763-3.3643-4.793-4.3417-1.992-1.0149-4.267-1.5224-6.823-1.5224-2.932 0-5.563.639-7.894 1.9171-2.293 1.2781-4.097 3.0636-5.413 5.3566-1.315 2.2931-1.973 4.8868-1.973 7.7813 0 2.8944.658 5.507 1.973 7.8376 1.316 2.293 3.12 4.0786 5.413 5.3566z" fill="#1468af"/></svg>