<svg fill="none" height="71" viewBox="0 0 72 71" width="72" xmlns="http://www.w3.org/2000/svg" xmlns:xlink="http://www.w3.org/1999/xlink"><clipPath id="a"><path d="m.820312 0h71v71h-71z"/></clipPath><g clip-path="url(#a)"><path d="m.820312 0v71h37.810588v-27.4271h-9.2423v-11.1955h9.2423v-9.3982c-.0005-1.6263.3194-3.2367.9414-4.7394.622-1.5026 1.5339-2.868 2.6837-4.0181 1.1498-1.1502 2.5149-2.0625 4.0173-2.685 1.5025-.6225 3.1128-.9429 4.7391-.9429h9.663v10.068h-6.9133c-1.0433 0-2.0438.4145-2.7815 1.1522s-1.1522 1.7383-1.1522 2.7816v7.7895h10.6737l-1.4762 11.1956h-9.1975v27.4193h21.9919v-71z" fill="#3a559f"/></g></svg>