<svg fill="none" height="70" viewBox="0 0 71 70" width="71" xmlns="http://www.w3.org/2000/svg"><path d="m70.2305 0h-70.000031v70h70.000031z" fill="#1bd741"/><g fill="#fff"><path d="m14.2109 56.0424 2.9429-10.4574c-1.8956-3.2229-2.8935-6.8947-2.8901-10.6338 0-11.5751 9.4187-20.9922 20.9939-20.9922 3.208.0011 6.373.7374 9.2521 2.1523 2.8791 1.415 5.3955 3.471 7.3562 6.0101 1.9606 2.5391 3.3132 5.4938 3.9539 8.6371.6407 3.1434.5525 6.3918-.2579 9.4957s-2.3213 5.9809-4.4169 8.4098c-2.0955 2.429-4.7199 4.3453-7.6715 5.6019-2.9517 1.2567-6.152 1.8201-9.3553 1.647-3.2033-.173-6.3244-1.0779-9.1234-2.6452zm11.3345-6.5946.6413.3907c3.6552 2.2285 8.0027 3.0339 12.2136 2.2626 4.2109-.7714 7.9906-3.0655 10.6186-6.4449 2.6279-3.3794 3.9202-7.6078 3.6305-11.8789s-2.1411-8.2863-5.2014-11.2799c-3.0602-2.9936-7.1151-4.7563-11.3915-4.9519-4.2765-.1957-8.4754 1.1894-11.7962 3.891-3.3208 2.7017-5.5312 6.531-6.2097 10.7578-.6785 4.2269.2223 8.5556 2.5307 12.1608l.432.6743-1.6948 6.0209z"/><path d="m29.3602 25.18-1.3618-.0759c-.428-.0239-.8484.1198-1.1722.4007-.6594.5737-1.7162 1.6832-2.041 3.1324-.4831 2.1548.2638 4.7926 2.1993 7.4305 1.9355 2.6378 5.5394 6.8583 11.9131 8.6603 2.0542.5803 3.6699.1896 4.9179-.6083.4887-.3161.9098-.726 1.2389-1.2059.3292-.48.5598-1.0205.6785-1.5903l.216-1.0155c.0339-.1568.0133-.3205-.0583-.4641-.0717-.1435-.1901-.2584-.3357-.3256l-4.6031-2.1218c-.1454-.0669-.3093-.0824-.4647-.0441-.1554.0384-.2932.1283-.3909.2551l-1.8135 2.3427c-.0664.0865-.1585.1498-.263.1809-.1045.031-.2161.0283-.319-.0078-1.2365-.4352-5.3828-2.1712-7.658-6.5534-.0487-.0926-.0685-.1978-.0567-.3019.0117-.1041.0545-.2022.1227-.2817l1.7311-1.9915c.0864-.1.1431-.2222.1635-.3528s.0037-.2643-.0481-.3858l-1.9784-4.6426c-.0515-.1212-.1359-.2255-.2438-.301-.1078-.0755-.2347-.1192-.3662-.126z"/></g></svg>