<svg fill="none" height="70" viewBox="0 0 71 70" width="71" xmlns="http://www.w3.org/2000/svg"><path d="m70.957 0h-69.999969v70h69.999969z" fill="#44678d"/><path d="m24.1333 25.3976c1.177 2.9049 2.6669 5.6427 4.6291 8.1003.2682.3295.5832.618.935.8563.5049.3456.9811.2246 1.1865-.3533.2445-.8034.3883-1.634.4282-2.4729.0326-1.6627 0-2.7532-.0941-4.4159-.0576-1.0637-.4358-1.9987-2.0006-2.2809-.4838-.0864-.528-.4858-.2189-.8813.6471-.8275 1.5475-.96 2.5248-1.0099 1.582-.0864 3.1718-.0173 4.7557 0 .6487-.0022 1.2959.0621 1.9315.192.8294.1805 1.273.768 1.4093 1.5724.0728.419.1056.844.0979 1.2691-.0422 1.8163-.1286 3.6307-.1498 5.4451-.0179.7173.0466 1.4343.192 2.1369.2131.96.8717 1.2076 1.536.5107.8467-.9048 1.6209-1.8748 2.3155-2.9011 1.2864-1.8431 2.2463-3.8668 3.0719-5.9519.4282-1.0771.7546-1.3113 1.92-1.3132h6.5279c.3894-.0059.7776.0459 1.152.1536.5913.192.8255.67.6873 1.2825-.3245 1.4361-1.0982 2.6553-1.9296 3.8265-1.3324 1.8816-2.7282 3.7171-4.0914 5.5679-.172.2384-.3291.4872-.4704.745-.5088.9215-.4742 1.438.2688 2.206 1.1846 1.2211 2.4518 2.3635 3.5999 3.6191.8384.9144 1.5958 1.8998 2.2637 2.9453.8352 1.3171.3187 2.5593-1.2403 2.782-.9831.1382-5.7772 0-6.0249 0-1.2411.0142-2.4373-.4635-3.3273-1.3286-1.0137-.9754-1.9315-2.0448-2.9049-3.072-.2912-.3091-.6057-.5954-.9408-.8563-.7948-.6048-1.5763-.4704-1.9468.4627-.3168.8007-.5914 2.9069-.6048 3.0873-.0672.9408-.6643 1.536-1.7184 1.5975-3.0412.1651-5.9864-.1748-8.732-1.6455-2.327-1.246-4.1855-3.0066-5.7944-5.061-2.5555-3.2639-4.5753-6.8504-6.4185-10.5425-.0941-.192-1.9622-4.1625-2.0121-4.3507-.167-.6278-.0115-1.2287.5203-1.4342.3302-.1286 6.4856 0 6.5893 0 .983.0538 1.6531.4685 2.0659 1.488z" fill="#fff"/></svg>