<svg fill="none" height="70" viewBox="0 0 71 70" width="71" xmlns="http://www.w3.org/2000/svg"><path d="m70.1621 0h-69.999991v70h69.999991z" fill="#61a8de"/><path d="m51.4391 19.1826-37.8748 14.7584c-.2689.1046-.4984.2907-.6561.5323-.1577.2417-.2358.5266-.2233.8149s.115.5654.2931.7924c.178.2271.4227.3926.6997.4735l9.6318 2.8414 3.5825 11.4043c.0857.2723.2404.5177.4492.7123.2088.1945.4645.3317.7421.398.2776.0664.5676.0597.8418-.0195.2742-.0791.5233-.228.7228-.4321l4.9713-5.08 9.7623 7.1664c.2749.2016.5961.3311.934.3765.338.0453.6819.0052 1.0003-.1167.3184-.122.6012-.3219.8223-.5814.2212-.2595.3737-.5704.4436-.9041l6.4673-30.915c.072-.3437.0498-.7005-.0644-1.0326-.1141-.3321-.3158-.6271-.5839-.854-.2681-.2268-.5924-.377-.9388-.4346s-.702-.0205-1.029.1074zm-4.7475 6.8619-17.5921 15.5569c-.174.1554-.2847.3694-.3107.6013l-.6773 6.0214c-.0038.0423-.0222.0819-.0521.112-.0299.0302-.0694.0489-.1116.0529-.0423.0041-.0846-.0068-.1197-.0306-.0351-.0239-.0607-.0593-.0724-.1001l-2.787-8.9794c-.0628-.2005-.057-.4163.0164-.6132s.2103-.3637.3891-.4742l20.7721-12.8818c.0975-.0467.2083-.0581.3134-.0321.105.0261.1977.0878.2622.1747.0644.0869.0967.1935.0911.3015-.0055.1081-.0484.2109-.1214.2907z" fill="#fff"/></svg>