<svg fill="none" height="70" viewBox="0 0 71 70" width="71" xmlns="http://www.w3.org/2000/svg"><path d="m70.0938 0h-70.00005v70h70.00005z" fill="#7d3daf"/><g fill="#fff"><path d="m54.9031 23.8707-.012-.0481c-1.0017-4.0463-5.5119-8.3864-9.6544-9.2901h-.0464c-6.6711-1.2783-13.5243-1.2783-20.1954 0h-.0481c-4.1425.9037-8.6527 5.2438-9.6544 9.2901l-.0121.0481c-1.237 5.6089-1.237 11.42 0 17.0288l.0121.0498c.9587 3.8728 5.1339 8.0136 9.1217 9.1527v4.5154c.0002.3622.1087.716.3115 1.0161.2028.3.4907.5326.8267.6678.3359.1352.7047.1669 1.0588.0909.3541-.0759.6774-.256.9284-.5171l4.5738-4.7559c.9931.055 1.9862.0859 2.9793.0859 3.3885-.0005 6.7694-.3209 10.0977-.957l.0464-.0103c4.1425-.9021 8.6527-5.2439 9.6544-9.2885l.012-.0567c1.2371-5.6088 1.2371-11.4199 0-17.0287zm-3.6202 16.2093c-.6684 2.6391-4.0944 5.9208-6.816 6.529-3.5383.6761-7.1393.967-10.7403.8677-.0354-.001-.0706.0053-.1034.0186-.0329.0133-.0626.0333-.0873.0587l-3.3401 3.4363-3.5532 3.646c-.0573.06-.1313.1015-.2125.1191-.0811.0177-.1657.0106-.2428-.0203-.077-.0309-.1431-.0841-.1897-.1528-.0465-.0688-.0714-.1499-.0715-.2329v-7.4895c-.0001-.0599-.0211-.1179-.0594-.164-.0382-.0461-.0913-.0774-.1502-.0886-2.7216-.6048-6.1459-3.8865-6.8142-6.5291-1.1134-5.0694-1.1134-10.3201 0-15.3896.6683-2.6391 4.0926-5.9191 6.8142-6.5291 6.1947-1.1838 12.5575-1.1838 18.7521 0 2.7233.6065 6.1477 3.8865 6.816 6.5291 1.1151 5.0693 1.1151 10.3203 0 15.3896z"/><path d="m41.0138 43.5332c-.4175-.1272-.8161-.2131-1.1872-.366-3.8367-1.5876-7.3676-3.6494-10.1647-6.7936-1.5911-1.7921-2.8367-3.8126-3.89-5.9518-.4982-1.0137-.9192-2.0618-1.3487-3.115-.3901-.9553.1855-1.9415.792-2.6615.5792-.6666 1.293-1.203 2.0945-1.5738.6185-.2972 1.2285-.1254 1.6804.3986.9904 1.1205 1.8622 2.3407 2.6013 3.6408.4467.8093.3247 1.7972-.4846 2.347-.1975.1341-.3762.2904-.5601.4416-.165.1234-.3079.2739-.4226.445-.0945.1607-.1509.3409-.1649.5267-.014.1859.0148.3725.0841.5455.9983 2.749 2.6821 4.8796 5.4449 6.0273.4415.1838.8848.3986 1.3951.3436.8591-.1013 1.1289-1.0309 1.7182-1.524.2726-.2256.6114-.356.9649-.3715.3536-.0155.7025.0848.9938.2856.6306.3986 1.2405.8247 1.847 1.2577.6014.4109 1.1812.8525 1.7371 1.323.5275.4656.7096 1.0756.4124 1.7061-.5447 1.1564-1.3368 2.1168-2.4793 2.7302-.3231.1718-.7079.2285-1.0722.3436-.4175-.1271.3643-.1134 0 0z"/><path d="m35.1054 21.75c5.0188.1409 9.1406 3.4724 10.0238 8.4345.1512.8453.2045 1.7096.2715 2.5669.0275.3609-.1719.7045-.5653.7096-.3935.0052-.5842-.3316-.61-.6872-.0515-.7148-.0876-1.433-.1855-2.1409-.2744-1.8446-1.1169-3.5578-2.4102-4.9013-1.2934-1.3436-2.9733-2.2506-4.8061-2.595-.5602-.0997-1.1323-.1255-1.6993-.1856-.3591-.0378-.8282-.0584-.9072-.5051-.0107-.0858-.0031-.1728.0223-.2553.0254-.0826.0679-.1589.1249-.2238s.1271-.117.2056-.1529c.0786-.0359.1639-.0548.2503-.0553h.2921c5.0187.1409-.098 0 0 0z"/><path d="m42.7316 31.6381c-.0078.1155-.0238.2304-.0481.3436-.134.5034-.8986.567-1.0739.0584-.0468-.157-.0671-.3208-.0601-.4845.0156-1.0665-.2499-2.1184-.7698-3.0498-.5571-.9616-1.3846-1.7384-2.3796-2.2336-.5986-.2842-1.2352-.4804-1.89-.5824-.2869-.0482-.5756-.0756-.8591-.1169-.0751-.0037-.1487-.0228-.216-.0562-.0674-.0334-.1272-.0804-.1756-.138s-.0843-.1245-.1056-.1967c-.0214-.0721-.0276-.1478-.0182-.2225.0004-.0758.0168-.1506.0482-.2196.0313-.069.0768-.1307.1335-.1809.0568-.0503.1235-.088.1958-.1108.0722-.0227.1485-.03.2238-.0213 1.1455.0445 2.2677.3376 3.2886.8591 2.0824 1.1031 3.2645 2.8453 3.6185 5.1682.0154.1066.0412.2097.0498.3162.0189.2612.0309.5154.0515.8591 0 .0618-.0206-.3437 0 0z"/><path d="m39.6109 31.5162c-.0861.0096-.1732.001-.2558-.0252s-.1587-.0694-.2235-.1269-.1168-.128-.1526-.2069-.0547-.1644-.0554-.251c-.0221-.2692-.0617-.5366-.1185-.8007-.1139-.5204-.4085-.9837-.8316-1.3075-.2085-.1477-.4411-.2581-.6873-.3264-.3075-.0894-.6288-.0636-.9347-.1392-.0744-.0131-.1456-.0407-.2094-.0813s-.1189-.0933-.1623-.1552-.0742-.1318-.0906-.2056-.0181-.1501-.005-.2246c.0293-.1444.1101-.2732.2274-.3624.1173-.0891.2631-.1325.41-.1221 1.945.1409 3.3367 1.1478 3.5343 3.4364.025.1611.025.3251 0 .4862-.0184.1086-.0725.2079-.1537.2823s-.1849.1196-.2947.1283c-.4193 0 .1907-.012 0 0z"/></g></svg>