<svg fill="none" height="70" viewBox="0 0 71 70" width="71" xmlns="http://www.w3.org/2000/svg"><path d="m70.8887 0h-70.000028v70h70.000028z" fill="#50abf1"/><path d="m14.791 48.8501c3.7381 2.3611 8.041 3.6763 12.4603 3.8087s8.7932-.9229 12.6659-3.0559 7.1025-5.2657 9.3527-9.0715 3.4385-8.1455 3.441-12.5668c0-.3401-.0063-.6786-.0189-1.0155.4928-.3889 3.5457-2.8341 4.2952-4.4086 0 0-2.4798 1.0297-4.9061 1.2722h-.022l.0126-.0079c.2235-.1496 3.3489-2.2783 3.7787-4.8132-1.3564.6903-2.7633 1.2767-4.2086 1.754-.4062.1354-.8313.2692-1.2706.392-1.3045-1.3919-3.0316-2.315-4.9138-2.626-1.8822-.3111-3.8144.0072-5.4974.9054-1.683.8983-3.0229 2.3264-3.8121 4.0633-.7891 1.7368-.9836 3.6854-.5532 5.5439-.6692-.0267-10.864-.5998-17.7917-8.9966 0 0-4.144 5.6587 2.4704 11.4749 0 0-2.0106-.0787-3.7457-1.1163 0 0-.6298 6.8553 6.8537 8.6077 0 0-1.4737.5573-3.826.1574 0 0 1.3163 5.5391 7.97 6.0571 0 0-5.2619 4.7533-12.7312 3.637z" fill="#fff"/></svg>