<svg fill="none" height="70" viewBox="0 0 71 70" width="71" xmlns="http://www.w3.org/2000/svg"><path d="m35.0245 28.8313c-1.22.0014-2.4122.3644-3.4259 1.0432s-1.8034 1.6429-2.2693 2.7705c-.4658 1.1275-.5869 2.3679-.348 3.5643.239 1.1963.8273 2.295 1.6905 3.1571.8633.862 1.9628 1.4488 3.1595 1.6861s2.4369.1145 3.5638-.3529 2.0899-1.2584 2.7673-2.2731c.6774-1.0146 1.0388-2.2074 1.0385-3.4274-.0023-1.6354-.6531-3.2031-1.8096-4.3594-1.1566-1.1562-2.7245-1.8066-4.36-1.8084zm0 0c-1.22.0014-2.4122.3644-3.4259 1.0432s-1.8034 1.6429-2.2693 2.7705c-.4658 1.1275-.5869 2.3679-.348 3.5643.239 1.1963.8273 2.295 1.6905 3.1571.8633.862 1.9628 1.4488 3.1595 1.6861s2.4369.1145 3.5638-.3529 2.0899-1.2584 2.7673-2.2731c.6774-1.0146 1.0388-2.2074 1.0385-3.4274-.0023-1.6354-.6531-3.2031-1.8096-4.3594-1.1566-1.1562-2.7245-1.8066-4.36-1.8084zm10.2769-10.0573h-20.552c-1.5794 0-3.0941.6274-4.2109 1.7442s-1.7442 2.6315-1.7442 4.2109v20.5469c0 1.5794.6274 3.0941 1.7442 4.2109s2.6315 1.7442 4.2109 1.7442h20.552c1.5794 0 3.0941-.6274 4.2109-1.7442s1.7442-2.6315 1.7442-4.2109v-20.552c0-1.5794-.6274-3.0941-1.7442-4.2109s-2.6315-1.7442-4.2109-1.7442zm-10.2769 26.9087c-2.113 0-4.1785-.6266-5.9354-1.8005-1.7569-1.174-3.1262-2.8425-3.9348-4.7946-.8086-1.9522-1.0202-4.1003-.608-6.1727s1.4297-3.976 2.9239-5.4701c1.4941-1.4941 3.3977-2.5116 5.4701-2.9239 2.0724-.4122 4.2205-.2006 6.1726.608 1.9522.8086 3.6207 2.1779 4.7947 3.9348 1.1739 1.7569 1.8004 3.8225 1.8004 5.9354-.0031 2.8325-1.1297 5.5481-3.1326 7.5509-2.0028 2.0029-4.7184 3.1295-7.5509 3.1327zm11.0272-19.1569c-.5001 0-.989-.1483-1.4048-.4262-.4159-.2779-.7399-.6729-.9312-1.135-.1914-.4621-.2413-.9705-.1436-1.461s.3386-.941.6924-1.2946c.3538-.3535.8045-.5942 1.295-.6915.4906-.0974.999-.0471 1.461.1445.462.1917.8567.516 1.1343.932.2777.416.4257.905.4253 1.4052-.0009.6701-.2676 1.3125-.7416 1.7862s-1.1166.74-1.7868.7404zm-11.0272 2.3055c-1.22.0014-2.4122.3644-3.4259 1.0432s-1.8034 1.6429-2.2693 2.7705c-.4658 1.1275-.5869 2.3679-.348 3.5643.239 1.1963.8273 2.295 1.6905 3.1571.8633.862 1.9628 1.4488 3.1595 1.6861s2.4369.1145 3.5638-.3529 2.0899-1.2584 2.7673-2.2731c.6774-1.0146 1.0388-2.2074 1.0385-3.4274-.0023-1.6354-.6531-3.2031-1.8096-4.3594-1.1566-1.1562-2.7245-1.8066-4.36-1.8084zm10.2769-10.0573h-20.552c-1.5794 0-3.0941.6274-4.2109 1.7442s-1.7442 2.6315-1.7442 4.2109v20.5469c0 1.5794.6274 3.0941 1.7442 4.2109s2.6315 1.7442 4.2109 1.7442h20.552c1.5794 0 3.0941-.6274 4.2109-1.7442s1.7442-2.6315 1.7442-4.2109v-20.552c0-1.5794-.6274-3.0941-1.7442-4.2109s-2.6315-1.7442-4.2109-1.7442zm-10.2769 26.9087c-2.113 0-4.1785-.6266-5.9354-1.8005-1.7569-1.174-3.1262-2.8425-3.9348-4.7946-.8086-1.9522-1.0202-4.1003-.608-6.1727s1.4297-3.976 2.9239-5.4701c1.4941-1.4941 3.3977-2.5116 5.4701-2.9239 2.0724-.4122 4.2205-.2006 6.1726.608 1.9522.8086 3.6207 2.1779 4.7947 3.9348 1.1739 1.7569 1.8004 3.8225 1.8004 5.9354-.0031 2.8325-1.1297 5.5481-3.1326 7.5509-2.0028 2.0029-4.7184 3.1295-7.5509 3.1327zm11.0272-19.1569c-.5001 0-.989-.1483-1.4048-.4262-.4159-.2779-.7399-.6729-.9312-1.135-.1914-.4621-.2413-.9705-.1436-1.461s.3386-.941.6924-1.2946c.3538-.3535.8045-.5942 1.295-.6915.4906-.0974.999-.0471 1.461.1445.462.1917.8567.516 1.1343.932.2777.416.4257.905.4253 1.4052-.0009.6701-.2676 1.3125-.7416 1.7862s-1.1166.74-1.7868.7404zm-11.0272 2.3055c-1.22.0014-2.4122.3644-3.4259 1.0432s-1.8034 1.6429-2.2693 2.7705c-.4658 1.1275-.5869 2.3679-.348 3.5643.239 1.1963.8273 2.295 1.6905 3.1571.8633.862 1.9628 1.4488 3.1595 1.6861s2.4369.1145 3.5638-.3529 2.0899-1.2584 2.7673-2.2731c.6774-1.0146 1.0388-2.2074 1.0385-3.4274-.0023-1.6354-.6531-3.2031-1.8096-4.3594-1.1566-1.1562-2.7245-1.8066-4.36-1.8084zm-34.9991094-28.8313v70h70.0000094v-70zm55.7400094 45.276c-.0027 2.7744-1.106 5.4344-3.0678 7.3962s-4.6218 3.0651-7.3962 3.0678h-20.552c-2.7744-.0027-5.4344-1.106-7.3962-3.0678s-3.0651-4.6218-3.0678-7.3962v-20.552c.0031-2.7743 1.1066-5.434 3.0683-7.3957s4.6214-3.0652 7.3957-3.0683h20.552c2.7744.0027 5.4344 1.106 7.3962 3.0678s3.0651 4.6218 3.0678 7.3962zm-10.464-26.502h-20.552c-1.5794 0-3.0941.6274-4.2109 1.7442s-1.7442 2.6315-1.7442 4.2109v20.5469c0 1.5794.6274 3.0941 1.7442 4.2109s2.6315 1.7442 4.2109 1.7442h20.552c1.5794 0 3.0941-.6274 4.2109-1.7442s1.7442-2.6315 1.7442-4.2109v-20.552c0-1.5794-.6274-3.0941-1.7442-4.2109s-2.6315-1.7442-4.2109-1.7442zm-10.2769 26.9087c-2.113 0-4.1785-.6266-5.9354-1.8005-1.7569-1.174-3.1262-2.8425-3.9348-4.7946-.8086-1.9522-1.0202-4.1003-.608-6.1727s1.4297-3.976 2.9239-5.4701c1.4941-1.4941 3.3977-2.5116 5.4701-2.9239 2.0724-.4122 4.2205-.2006 6.1726.608 1.9522.8086 3.6207 2.1779 4.7947 3.9348 1.1739 1.7569 1.8004 3.8225 1.8004 5.9354-.0031 2.8325-1.1297 5.5481-3.1326 7.5509-2.0028 2.0029-4.7184 3.1295-7.5509 3.1327zm11.0272-19.1569c-.5001 0-.989-.1483-1.4048-.4262-.4159-.2779-.7399-.6729-.9312-1.135-.1914-.4621-.2413-.9705-.1436-1.461s.3386-.941.6924-1.2946c.3538-.3535.8045-.5942 1.295-.6915.4906-.0974.999-.0471 1.461.1445.462.1917.8567.516 1.1343.932.2777.416.4257.905.4253 1.4052-.0009.6701-.2676 1.3125-.7416 1.7862s-1.1166.74-1.7868.7404zm-11.0272 2.3055c-1.22.0014-2.4122.3644-3.4259 1.0432s-1.8034 1.6429-2.2693 2.7705c-.4658 1.1275-.5869 2.3679-.348 3.5643.239 1.1963.8273 2.295 1.6905 3.1571.8633.862 1.9628 1.4488 3.1595 1.6861s2.4369.1145 3.5638-.3529 2.0899-1.2584 2.7673-2.2731c.6774-1.0146 1.0388-2.2074 1.0385-3.4274-.0023-1.6354-.6531-3.2031-1.8096-4.3594-1.1566-1.1562-2.7245-1.8066-4.36-1.8084zm0 0c-1.22.0014-2.4122.3644-3.4259 1.0432s-1.8034 1.6429-2.2693 2.7705c-.4658 1.1275-.5869 2.3679-.348 3.5643.239 1.1963.8273 2.295 1.6905 3.1571.8633.862 1.9628 1.4488 3.1595 1.6861s2.4369.1145 3.5638-.3529 2.0899-1.2584 2.7673-2.2731c.6774-1.0146 1.0388-2.2074 1.0385-3.4274-.0023-1.6354-.6531-3.2031-1.8096-4.3594-1.1566-1.1562-2.7245-1.8066-4.36-1.8084zm0 0c-1.22.0014-2.4122.3644-3.4259 1.0432s-1.8034 1.6429-2.2693 2.7705c-.4658 1.1275-.5869 2.3679-.348 3.5643.239 1.1963.8273 2.295 1.6905 3.1571.8633.862 1.9628 1.4488 3.1595 1.6861s2.4369.1145 3.5638-.3529 2.0899-1.2584 2.7673-2.2731c.6774-1.0146 1.0388-2.2074 1.0385-3.4274-.0023-1.6354-.6531-3.2031-1.8096-4.3594-1.1566-1.1562-2.7245-1.8066-4.36-1.8084zm10.2769-10.0573h-20.552c-1.5794 0-3.0941.6274-4.2109 1.7442s-1.7442 2.6315-1.7442 4.2109v20.5469c0 1.5794.6274 3.0941 1.7442 4.2109s2.6315 1.7442 4.2109 1.7442h20.552c1.5794 0 3.0941-.6274 4.2109-1.7442s1.7442-2.6315 1.7442-4.2109v-20.552c0-1.5794-.6274-3.0941-1.7442-4.2109s-2.6315-1.7442-4.2109-1.7442zm-10.2769 26.9087c-2.113 0-4.1785-.6266-5.9354-1.8005-1.7569-1.174-3.1262-2.8425-3.9348-4.7946-.8086-1.9522-1.0202-4.1003-.608-6.1727s1.4297-3.976 2.9239-5.4701c1.4941-1.4941 3.3977-2.5116 5.4701-2.9239 2.0724-.4122 4.2205-.2006 6.1726.608 1.9522.8086 3.6207 2.1779 4.7947 3.9348 1.1739 1.7569 1.8004 3.8225 1.8004 5.9354-.0031 2.8325-1.1297 5.5481-3.1326 7.5509-2.0028 2.0029-4.7184 3.1295-7.5509 3.1327zm11.0272-19.1569c-.5001 0-.989-.1483-1.4048-.4262-.4159-.2779-.7399-.6729-.9312-1.135-.1914-.4621-.2413-.9705-.1436-1.461s.3386-.941.6924-1.2946c.3538-.3535.8045-.5942 1.295-.6915.4906-.0974.999-.0471 1.461.1445.462.1917.8567.516 1.1343.932.2777.416.4257.905.4253 1.4052-.0009.6701-.2676 1.3125-.7416 1.7862s-1.1166.74-1.7868.7404zm-11.0272 2.3055c-1.22.0014-2.4122.3644-3.4259 1.0432s-1.8034 1.6429-2.2693 2.7705c-.4658 1.1275-.5869 2.3679-.348 3.5643.239 1.1963.8273 2.295 1.6905 3.1571.8633.862 1.9628 1.4488 3.1595 1.6861s2.4369.1145 3.5638-.3529 2.0899-1.2584 2.7673-2.2731c.6774-1.0146 1.0388-2.2074 1.0385-3.4274-.0023-1.6354-.6531-3.2031-1.8096-4.3594-1.1566-1.1562-2.7245-1.8066-4.36-1.8084zm0 0c-1.22.0014-2.4122.3644-3.4259 1.0432s-1.8034 1.6429-2.2693 2.7705c-.4658 1.1275-.5869 2.3679-.348 3.5643.239 1.1963.8273 2.295 1.6905 3.1571.8633.862 1.9628 1.4488 3.1595 1.6861s2.4369.1145 3.5638-.3529 2.0899-1.2584 2.7673-2.2731c.6774-1.0146 1.0388-2.2074 1.0385-3.4274-.0023-1.6354-.6531-3.2031-1.8096-4.3594-1.1566-1.1562-2.7245-1.8066-4.36-1.8084zm0 0c-1.22.0014-2.4122.3644-3.4259 1.0432s-1.8034 1.6429-2.2693 2.7705c-.4658 1.1275-.5869 2.3679-.348 3.5643.239 1.1963.8273 2.295 1.6905 3.1571.8633.862 1.9628 1.4488 3.1595 1.6861s2.4369.1145 3.5638-.3529 2.0899-1.2584 2.7673-2.2731c.6774-1.0146 1.0388-2.2074 1.0385-3.4274-.0023-1.6354-.6531-3.2031-1.8096-4.3594-1.1566-1.1562-2.7245-1.8066-4.36-1.8084zm10.2769-10.0573h-20.552c-1.5794 0-3.0941.6274-4.2109 1.7442s-1.7442 2.6315-1.7442 4.2109v20.5469c0 1.5794.6274 3.0941 1.7442 4.2109s2.6315 1.7442 4.2109 1.7442h20.552c1.5794 0 3.0941-.6274 4.2109-1.7442s1.7442-2.6315 1.7442-4.2109v-20.552c0-1.5794-.6274-3.0941-1.7442-4.2109s-2.6315-1.7442-4.2109-1.7442zm-10.2769 26.9087c-2.113 0-4.1785-.6266-5.9354-1.8005-1.7569-1.174-3.1262-2.8425-3.9348-4.7946-.8086-1.9522-1.0202-4.1003-.608-6.1727s1.4297-3.976 2.9239-5.4701c1.4941-1.4941 3.3977-2.5116 5.4701-2.9239 2.0724-.4122 4.2205-.2006 6.1726.608 1.9522.8086 3.6207 2.1779 4.7947 3.9348 1.1739 1.7569 1.8004 3.8225 1.8004 5.9354-.0031 2.8325-1.1297 5.5481-3.1326 7.5509-2.0028 2.0029-4.7184 3.1295-7.5509 3.1327zm11.0272-19.1569c-.5001 0-.989-.1483-1.4048-.4262-.4159-.2779-.7399-.6729-.9312-1.135-.1914-.4621-.2413-.9705-.1436-1.461s.3386-.941.6924-1.2946c.3538-.3535.8045-.5942 1.295-.6915.4906-.0974.999-.0471 1.461.1445.462.1917.8567.516 1.1343.932.2777.416.4257.905.4253 1.4052-.0009.6701-.2676 1.3125-.7416 1.7862s-1.1166.74-1.7868.7404zm-11.0272 2.3055c-1.22.0014-2.4122.3644-3.4259 1.0432s-1.8034 1.6429-2.2693 2.7705c-.4658 1.1275-.5869 2.3679-.348 3.5643.239 1.1963.8273 2.295 1.6905 3.1571.8633.862 1.9628 1.4488 3.1595 1.6861s2.4369.1145 3.5638-.3529 2.0899-1.2584 2.7673-2.2731c.6774-1.0146 1.0388-2.2074 1.0385-3.4274-.0023-1.6354-.6531-3.2031-1.8096-4.3594-1.1566-1.1562-2.7245-1.8066-4.36-1.8084z" fill="#c536a4"/></svg>