<svg fill="none" height="132" viewBox="0 0 119 132" width="119" xmlns="http://www.w3.org/2000/svg"><g fill="#fff"><path d="m47.7664 128.306c1.023 0 2.7815-.331 4.1649-2.548-.7907-1.758-1.3542-5.311-1.4354-6.604-.4075-6.616 2.1418-12.84 4.933-13.011 2.0443-.123 3.681 1.812 3.8694 4.948.5017 8.244-2.2424 11.686-3.6161 14.652.2322 1.152 2.1823 3.112 4.0253 3.112.6803 0 1.5036-.341 1.7098-.617-.138-.475-.2761-1.09-.2761-1.98 0-4.777 3.0722-8.804 5.7335-8.804 2.1157 0 3.3433 2.798 3.3433 4.644 0 2.181-1.843 3.959-4.5709 5.665.4791.475 1.3624.82 2.1158.82 3.8921 0 5.9299-4.71 7.4384-9.011.2728-.822.7518-1.981 1.7049-1.981 1.64 0 2.3236 10.783 5.0466 10.783 1.1626 0 2.1174-2.39 2.1174-4.228 0-1.366-.4774-1.502-.4774-3.483 0-2.181 1.161-4.022 2.7328-4.022.9547 0 1.299.95 1.299 2.109 0 4.368-3.142 12.49-7.7778 12.49-3.4862 0-3.2134-6.005-4.4409-6.005-1.3705 0-3.2816 6.075-10.0315 6.075-1.0977 0-2.2538-.546-3.207-1.64-1.6367 1.094-3.0055 1.57-4.5757 1.57-2.5217 0-3.6144-2.593-4.6374-2.593-1.2308 0-2.5915 2.663-6.6898 2.663-3.2752 0-3.8224-4.365-4.9785-4.365-1.0262 0-2.5947 4.365-4.2996 4.365-2.8708 0-3.4797-7.575-6.0079-7.575-1.9794 0-8.2324 7.693-9.9293 7.518-.6835-.072-.9693-.583-.8979-1.265.0958-.943.9077-3.47 1.2389-4.667.5521-2.075 1.0587-4.35 1.3413-5.076.2809-.73 1.0392-1.253 1.6464-1.196.3069.029.3995.601.4937 1.071.3442 1.688.8264 3.409 1.3688 3.409.958 0 4.1243-6.075 5.9656-6.075 2.2554 0 2.5266 9.556 5.5938 9.556 1.0263 0 1.7797-1.226 2.46-2.731.0698-2.53.7502-6.138 2.7977-6.138 1.4354 0 2.119 3.204 1.0912 6.005 0 3.341 2.1823 4.16 3.6177 4.16zm54.5916-8.187c-.845 3.507-3.4094 8.667-7.2349 8.667-.885 0-2.4568-.342-2.4568-1.23 0-.957 6.0095-1.088 6.0095-5.664 0-1.703-1.5685-4.095-3.8905-4.095-3.0705 0-6.0663 3.346-6.0663 7.987 0 4.16 2.585 5.526 5.1765 5.526 4.5075 0 7.2355-3.689 8.6675-6.758.685 2.047 1.09 6.758 2.801 6.758.68 0 1.161-.343 1.983-2.183 2.039-4.575 4.02-9.828 6.753-9.828 1.021 0 .409 1.844 2.866 1.844 1.157 0 1.973-.954 1.973-2.052 0-1.57-1.431-2.794-3.613-2.794-6.414 0-7.776 9.622-8.801 9.622-1.708 0-1.161-7.711-2.392-7.711-1.093 0-1.628 1.302-1.775 1.911zm-45.2696-7.187c-.1186-1.906-.5797-2.767-1.6043-2.699-1.3591.083-1.9875 4.36-1.7098 8.853.177 2.933.6138 3.384 1.0197 3.356.7518-.043 2.5558-5.283 2.2944-9.51zm-11.0984-4.007c-.0958-1.093-.9531-1.84-2.1141-1.84-1.2957 0-2.5152 1.359-2.3853 3.067.0828 1.124.747 2.051 2.0492 2.051 1.4971 0 2.5883-1.707 2.4502-3.278zm21.2273 13.92c0-1.158-.617-2.112-1.3623-2.112-.6203 0-2.0492.678-2.0492 2.864 0 1.711.6089 2.523.8866 2.871 1.9761-.616 2.5249-2.257 2.5249-3.623zm26.6782-2.314c1.4354 0 1.8462 1.699 1.5052 2.725-.3442 1.023-1.5701 2.187-3.4813 2.528-.4108-1.026-.6154-5.253 1.9761-5.253zm-78.5765-4.845c-.1964-.62-.7631-2.015-.919-3.045-.341-2.279.8508-3.781 1.9453-4.125 1.2291-.343 1.7081.272 2.1823 1.708.6154 2.182.6836 5.046.4774 9.141-.2696 5.597-3.0689 12.354-10.02832 12.214-6.00787-.131-8.66595-4.023-8.9419876-9.96-.1298999-2.798.0681976-5.594 1.2291776-9.552.61378-2.118 1.16261-2.871 3.07051-3.279 1.50034-.272 1.36557 1.294 1.02458 3.144-.74854 4.093-1.0944 6.069-.81836 10.712.26791 4.912 2.52493 6.824 4.98166 6.824 3.68424.07 5.32104-3 6.00624-7.44.5423-3.546.1348-5.252-.2095-6.342z"/><path d="m95.8067 26.9037c.4725 3.4391 5.6833 8.0749 7.0953 7.9661.944-.0812 1.306-4.4913 1.306-7.9661 0-1.9907.109-3.5495-.942-3.9132-1.667 3.3693-6.045 4.0577-7.4593 3.9132zm.289-1.5214c3.7622 0 7.2063-3.0056 7.2063-5.6491 0-1.2324-.581-2.2456-2.066-2.4258.254.3263.363.5796.363 1.1577 0 1.9923-3.0368 4.2023-6.3347 4.2023-1.1967 0-1.5588.8313-1.5588 1.2665 0 1.0148.9792 1.4484 2.3902 1.4484zm-.7956-4.0919c-.5067 0-1.2325 0-1.6319-.7956-.3264-.6528-.2176-1.7033-.833-2.1742.6154.1802 1.2682.1802 1.7764.1802 1.6319 0 3.1907-1.122 4.3857-1.122.7892 0 1.0427.5082 1.0427 1.0132 0 1.5962-3.2169 2.8984-4.7399 2.8984z"/><path d="m14.2998 49.6804c1.2292 0 .9759-7.5326 2.9682-7.5326.4709 0 .6154.4709.6154 1.0506 0 1.7017-.8329 4.2006-.8329 5.576 0 .6884.1802.906.5066.906.8703 0 2.3901-8.2941 3.8759-8.2941.4708 0 .6868.4709.6868.9434 0 1.7374-2.2083 6.7337-2.2083 8.1463 0 .216.0731.3979.2533.3979.9061 0 2.7165-3.91 3.2946-5.865.3264-1.0149.7615-1.5588 1.1594-1.5588.362 0 .6884.3994.6884 1.2324 0 1.955-1.8121 6.5535-3.4034 9.6337-1.2308 2.3886-3.15 5.8277-3.15 7.7469 0 .9775.1786 1.9907 1.5929 3.2232-2.3187-.1445-3.2605-.3621-4.1276-2.1726-3.8743 7.7128 7.1331 6.9529 3.366 13.7954-.6884-1.2292-6.1199-2.4974-6.1199-9.6678 0-6.1914 5.4315-9.8124 5.4315-12.3844 0-.505-.1787-.9401-.6512-1.3396-1.195-1.0148-1.2324-1.8445-2.1709-1.8445-.6901 0-1.5231 1.5912-.6544 3.0039.2907.4709.544.7599.544 1.1951 0 1.0132-1.5946 3.7281-2.7149 3.7281-1.122 0-1.9908-2.7847-1.9908-7.2776 0-3.9831.9045-8.0019 2.0265-8.0019.3264 0 .4351.2176.4351.5066 0 .4709-.1445 1.4127-.1445 3.004 0 1.7033.3979 1.8494.7242 1.8494z"/><path d="m23.5319 60.2886c1.5231 0 2.788-1.1236 2.788-3.6193v-3.6957c0-1.411.1088-3.0039 1.0522-4.1276-.1088.4709-.1088.9792-.1088 1.4484 0 3.1144 1.7374 5.2512 1.7374 8.2568 0 1.1204-.3264 1.7374-1.1935 1.7374-.8346 0-.7615-.7615-.9434-.7615-.1445 0-.3621.4708-.3621.9791 0 .7599.544 1.955 2.0638 1.955 1.3055 0 2.3545-1.1951 2.3545-2.5347 0-3.2572-2.5347-6.8798-2.5347-10.3546 0-1.5231.3978-2.5363.7242-3.3336 0 7.2078 6.1199 12.4574 6.1199 15.4613 0 .6885-.5066 1.2325-1.2665 1.2325-.8346 0-1.2325-.6528-1.2325-1.161 0-.2533-.0373-.3248-.1445-.3248-.2159 0-.8687.7242-.8687 1.6676 0 1.1935.9759 2.6435 2.788 2.6435 2.0622 0 3.1858-1.7407 3.1858-3.2962 0-3.8012-7.4238-9.559-7.4238-15.7147 0-1.0505.1802-2.7522.9418-4.0561-4.7803 3.077-6.2628 7.1705-6.2628 10.7557 0 3.1144-.1088 4.6683-1.7017 4.6683-.8346 0-1.0506-.7583-1.3412-.7583-.2176 0-.3264.6511-.3264.8314 0 1.3396.9791 2.1011 1.955 2.1011z"/><path d="m86.2866 24.115c1.5945 0 2.7912-.7242 2.7912-1.1594 0-.1429-.2176-.2533-.6901-.2533-.4709 0-1.4127-.0357-3.189-.3247-1.5231-.255-2.6825-.833-3.1176-.833-.1446 0-.2176.0714-.2176.1802 0 .9418 1.7406 2.3902 4.4231 2.3902zm-7.8931-4.5985c.4595-.3085 2.499.1803 5.1392-1.1236.3247-.1803.6511-.2533.9401-.2533 1.2698 0 .9418 1.4484 2.1044 1.4484.9044 0 2.0654-.7616 2.7539-.7616 1.0798 0 2.637 3.405 2.637 4.9979 0 1.8478-2.7815 2.9699-6.081 2.9699-4.8111 0-7.7128-4.1991-7.7128-6.9156 0-.2176.1104-.2906.2192-.3621z"/><path d="m24.2928 73.9391c-1.1934.2907-3.1143 2.171-3.1143 5.1441 0 3.5479 3.8028 9.0167 10.0672 9.0167 5.2853 0 6.5892-3.6567 6.5892-6.1216 0-5.4688-3.366-9.3073-7.7469-9.3073-2.3902 0-4.527 1.7407-4.527 4.3094 0 2.3918 1.8104 5.9754 6.1199 5.9754 2.028 0 3.2215-1.4484 3.2215-3.1127 0-1.6302-1.4841-3.8743-3.6567-3.8743-.6527 0-1.122.4319-1.122 1.1204 0 .8687 1.1951 1.7391 2.6792 1.7391.3621 0 .6511-.0715.7972-.1446.0715.1088.1088.2907.1088.4352 0 .833-.7988 1.3412-2.028 1.3412-1.8462 0-3.6226-1.3769-3.6226-3.5527 0-1.3007 1.1236-2.2424 2.7522-2.2424 3.2232 0 5.1425 2.8594 5.1425 5.7221 0 2.5687-1.4111 4.0561-4.3078 4.0561-5.7952 0-8.6189-5.2155-7.3524-10.5041z"/><path d="m62.8203 87.9189c0 .7972.6527 1.4484 1.4484 1.4484.7972 0 1.4483-.6512 1.4483-1.4484 0-.7973-.6511-1.45-1.4483-1.45-.7957 0-1.4484.6527-1.4484 1.45zm2.8074 7.237c1.7358 0 1.6465-.1445 2.1905-.1445.5423 0 .5797.3264.5797.544 0 .7972-1.7764 1.7763-4.9249 1.7763-1.8478 0-2.9698-.9791-3.2962-2.0654-1.8088 1.1578-4.5611 2.2083-7.2776 2.2083-7.4222 0-9.3057-3.2247-11.6228-4.272-1.7764-.7973-4.4913.7615-8.2925-3.4765.5066.1088 1.1951.1461 1.739.1461 3.3287 0 5.1035-1.6286 5.1035-4.2379 0-.3264-.0358-.6836-.0731-1.0084 1.0148.3978 3.3336 2.1336 3.8759 5.209.0731.3637 1.5572.6885 2.4973.6885 1.3055 0 2.9715-.544 3.2232-2.6776 4.3467-.3621 7.2808-2.9325 7.8962-6.1946 1.5556.5082 3.3287 1.9209 3.7639 2.6467.6154-.2176 1.3396-.3264 2.1726-.3264 1.1577 0 2.4632.2176 4.0187.6901.0731-.4725.1462-1.0522.8704-1.0522 1.0863 0 .7956 1.1951 1.1577 1.8803.1819.3621 1.0895.5797 1.0895 1.3039 0 .6901-.5829.9434-.9434.9434-.1461 0-.3263-.0357-.4367-.0714-.7226.2533-.7583 5.4655-3.8012 5.4655-2.2441 0-4.3078-1.8462-5.2139-4.1617-.2549-.6884-.7956-1.1236-1.3039-1.1236-.578 0-.9044.1088-1.5912.8703-1.955 2.1336-5.2155 3.9798-9.2343 3.9798-1.2324 0-2.2083-.1087-2.4632-.1087-.1445 0-.1445.0357-.1445.0714 0 .2549 1.2308 1.234 3.9116 1.234 6.3716 0 7.9304-3.5868 8.9436-3.5868.1445 0 .578 0 .8313.5797 1.4841 3.4732 4.7268 4.2704 6.7548 4.2704z"/><path d="m87.591 72.0916c-.7599 0-4.967 5.6133-7.6755 5.6133-.6527 0-1.195-1.2325-1.195-2.1694 0-.5082.3231-.8703 1.4857-1.1236 6.2254-1.4143 4.8485-6.0858 10.1679-6.0858 2.9325 0 6.1946 1.9923 6.1946 6.4836 0 4.7803-6.8035 10.7168-7.8183 10.7168-.8347 0-1.7391-1.1935-1.7391-1.9908 0-.2516.1088-.5796.833-.8687 3.4716-1.3785 5.4623-4.5627 5.4623-6.1946 0-.3621-.1802-.7193-.6528-.7193-.6137 0-3.2507 6.0079-6.1864 6.0079-2.0297 0-4.0951-1.8446-4.0951-2.7149 0-1.4484 5.8698-4.1276 5.8698-6.1573 0-.7615-.3605-.7972-.6511-.7972zm3.9051-2.2441c-.5066 0-1.0489.3995-1.0489 1.3786 0 1.083.833 1.7715 1.3038 1.9891.2533.1445.6528.2906 1.0474.2906 1.0522 0 1.8851-.2906 1.8851-1.1609 0-1.1188-1.6302-2.4974-3.1874-2.4974z"/><path d="m23.8582 27.9163c0 .7973.6527 1.45 1.45 1.45.7956 0 1.4467-.6527 1.4467-1.45 0-.7956-.6511-1.4484-1.4467-1.4484-.7973 0-1.45.6528-1.45 1.4484zm-1.8819-3.2588c0 .7956.6511 1.4483 1.4467 1.4483.7973 0 1.45-.6527 1.45-1.4483 0-.7957-.6527-1.4484-1.45-1.4484-.7956 0-1.4467.6527-1.4467 1.4484zm-1.3039 9.9211c-.8346.2175-2.5704 1.2324-2.5704 3.0412 0 1.3039 1.0116 2.1369 2.2814 2.1369.6511 0 1.122-.1445 1.411-.3621-1.0132-.9775-1.3753-2.0638-1.3753-3.1484 0-.7616.1088-1.2325.2533-1.6676zm-8.8706.5082c-.0357.1819-.0357.3621-.0357.5423 0 1.7017.9044 2.6435 2.0995 2.6435.9028 0 1.955-.544 2.8952-1.739-.3978.0714-.8687.1071-1.3039.1071-1.338 0-2.7864-.3588-3.6551-1.5539zm-1.2681 3.2215c0 2.7523.833 4.0561 2.3171 4.0561 1.1593 0 2.7165-.8329 4.5611-2.4258-1.411.3263-2.4973.5423-3.4748.5423-1.3039 0-2.3155-.5066-3.4034-2.1726zm9.3788-14.4838c.1802-.5797.3247-1.3023.3247-2.0995 0-1.7374-.7972-4.3825-3.2588-4.3825-1.4111 0-2.4276 1.122-2.4276 2.4632 0 2.861 2.8611 4.0188 5.3617 4.0188zm-3.0803 9.1254c-1.1934 0-2.4973-1.4841-2.4973-2.8237 0-.7241.5423-1.6302.9418-1.6302.1445 0 .2175.1088.2533.3637.2175 1.7732 1.3753 2.788 2.4632 3.293.1088.0731.1802.1088.1802.1818 0 .2533-.6884.6154-1.3412.6154zm3.3336-4.4182c.25.341.9417.7616.9417 1.0149 0 .5066-.2906 1.1593-.8703 1.1593-1.2681 0-2.2814-1.9192-2.2814-3.0072 0-.6868.3995-.7582.9402-.7582.2549 0 .3621.0357.544.1445.3263.1802.3263.9044.7258 1.4467zm-8.5085 4.4913c-.0682.1121-.1088.2533-.1088.3995 0 .3247.3621.6868.6869.6868.2906 0 .4709-.0714.6154-.0714.8687 0 1.8462.6137 3.2588.6137.8314 0 1.8105-.2533 3.0413-.867 2.6061-1.3055 3.6226-4.5271 3.6226-5.071 0-.6885-.5537-.5992-1.0165-1.2324-.4611-.6301-.2841-1.1902-.578-1.4841-.1689-.1689-.6869-.1803-1.3412-.2534-.2176-.0243-.5066-.0357-.7957-.0357-1.195 0-2.611.1462-4.2006 1.1594-3.142 2.0037-2.6792 5.3226-3.1842 6.1556zm12.0206-1.4484c-.7972.9402-1.6302 2.5347-1.6302 4.1633 0 1.955 1.1967 3.5836 3.0429 3.5836 1.7731 0 2.6061-1.5198 2.6061-3.0753 0-2.4259-2.2083-4.1292-4.0188-4.6716zm-7.7485-6.9529s-1.0522.7957-2.3544.7957c-1.5556 0-2.788-1.1578-2.788-2.7864 0-1.1236.5797-2.2813 1.9193-2.861-.0358.2176-.0358.3978-.0358.6154 0 2.0638 1.1578 3.6209 3.2589 4.2363z"/><path d="m79.7697 36.6418c0 .8346.6901 1.5231 1.5133 1.5231.8346 0 1.5231-.6885 1.5231-1.5231 0-.8314-.6885-1.5182-1.5231-1.5182-.8232 0-1.5133.6868-1.5133 1.5182zm.1088 4.5627c0 .9434.7615 1.7034 1.6968 1.7034.9418 0 1.7033-.76 1.7033-1.7034 0-.9401-.7615-1.7-1.7033-1.7-.9353 0-1.6968.7599-1.6968 1.7zm-5.2171 3.0787c0 1.3753 1.122 2.4989 2.5006 2.4989 1.3753 0 2.5005-1.1236 2.5005-2.4989s-1.1252-2.499-2.5005-2.499c-1.3786 0-2.5006 1.1237-2.5006 2.499zm1.3396-5.1051c0 .7973.6511 1.4484 1.45 1.4484.7973 0 1.4484-.6511 1.4484-1.4484 0-.7956-.6511-1.4484-1.4484-1.4484-.7989 0-1.45.6528-1.45 1.4484zm-4.7414 2.8968c0 .7972.6528 1.4467 1.4419 1.4467.7989 0 1.4517-.6495 1.4517-1.4467 0-.7973-.6528-1.4484-1.4517-1.4484-.7891 0-1.4419.6511-1.4419 1.4484zm3.7265-8.4711c0 1.2665 1.0506 2.3154 2.3188 2.3154 1.2697 0 2.3203-1.0489 2.3203-2.3154 0-1.2698-1.0506-2.3187-2.3203-2.3187-1.2682 0-2.3188 1.0489-2.3188 2.3187zm2.7182-4.4556c0 .7599.6154 1.3753 1.3769 1.3753.7616 0 1.3786-.6154 1.3786-1.3753s-.617-1.3769-1.3786-1.3769c-.7615 0-1.3769.617-1.3769 1.3769zm-6.5518 3.4764c0 .7616.6154 1.377 1.3688 1.377.7615 0 1.3769-.6154 1.3769-1.377 0-.7599-.6154-1.3753-1.3769-1.3753-.7534 0-1.3688.6154-1.3688 1.3753zm-.1819 4.7057c0 1.2324.9791 2.2099 2.2018 2.2099 1.2324 0 2.2132-.9775 2.2132-2.2099 0-1.2292-.9808-2.2067-2.2132-2.2067-1.2227 0-2.2018.9775-2.2018 2.2067zm-4.5644 2.3187c0 1.1236.9402 2.0621 2.0638 2.0621 1.122 0 2.0654-.9385 2.0654-2.0621 0-1.122-.9434-2.0638-2.0654-2.0638-1.1236 0-2.0638.9418-2.0638 2.0638zm1.2309-5.1051c0 .7957.6527 1.4484 1.4467 1.4484.7989 0 1.4516-.6527 1.4516-1.4484 0-.7956-.6527-1.4484-1.4516-1.4484-.794 0-1.4467.6528-1.4467 1.4484zm12.7123 11.1519c0-.7242.6527-1.3396 1.3688-1.3396.7989 0 1.4143.6154 1.4143 1.3396 0 .833-.6154 1.4127-1.4143 1.4127-.7161 0-1.3688-.5797-1.3688-1.4127z"/><path d="m81.2837 87.3388c.1819 0 .3994.1071.3994.7615 0 .7956-.3621 1.8446-1.6594 2.6776-.9061.6154-2.1385 1.1236-3.9506 1.1561.289-.8671.5066-1.7732.5066-2.6386 0-.2907-.0341-.5083-.0714-.833h.4725c2.861 0 4.0951-1.1236 4.3029-1.1236zm.2907-3.5853c.2939-.2484.362-.6511.362-1.0505v-.833c0-1.0506-1.5864-1.6644-3.7622-1.6644-2.6451 0-4.0577 1.1919-4.0577 1.7001v1.6676c0 .6885 1.5945 1.3769 3.5511 1.3769 1.5588 0 2.9731-.3978 3.9068-1.1967zm1.8835.3995c-.9418.7258-3.1436 2.3512-6.8051 2.3512-1.9566 0-2.827-.6154-3.1176-.6154-.3621 0-.7616.3621-1.1594.8346-.8606 1.0148-1.9842 2.8984-1.9842 4.9605 0 1.4484 1.1236 2.8919 3.2166 2.8919 6.7776 0 11.8437-4.2347 11.8437-7.6722 0-1.9534-1.1578-2.7506-1.994-2.7506z"/><path d="m84.7271 53.699c0 .9044.2906 1.955 1.1967 1.955.7599 0 1.4126-1.1578 1.4126-2.4259 0-1.4484-.2533-2.572-.2533-3.1517 0-.2517.1088-.3605.2533-.3605.544.0357 1.0522 1.5198 1.6319 1.5198.6528 0 1.6238-1.195 2.0216-1.195.1088 0 .1445.1445.1445.1802 0 .5439-.833 1.7406-.833 2.2099 0 .3978 2.1011.4709 2.1011.833 0 .544-2.2018.5439-3.2523 1.0148-1.0149.4336-1.6319.9775-1.6319 1.7017s.7242.8671 1.7407.8671c2.4194 0 4.121-1.3022 4.6634-1.3022.1088 0 .1802.073.1802.1818 0 .3621-1.2308 1.5556-1.2308 2.0995 0 .6154 2.2473 1.338 2.2116 1.7001-.0358.1088-.1819.1445-.4352.1445-.3995 0-1.0149-.1072-1.4874-.1072-.289 0-.5423.0358-.6527.1803-.2501.2906.0731 2.2083-.4303 2.2083-.4725 0-1.7049-4.2705-4.4864-4.2705-.3995 0-.6885.3248-.6885.8687 0 1.4468 1.4127 3.1127 2.7539 3.91.6073.3978 1.6237.7973 1.6237 1.0149 0 .4319-2.3122.0357-2.3122.7582 0 .6528.2907 1.6319.2907 2.21 0 .1818-.0374.3978-.255.3978-.4335 0-1.4857-1.9907-1.9939-1.9907-.4336 0-1.3753 1.1934-1.7764 1.1934-.1072 0-.1786-.1088-.1786-.2143 0-.8346 1.3396-2.7165 1.3396-4.5644 0-.8687-.1088-2.7522-1.161-2.7522-.8687 0-1.8478 1.3753-2.283 2.7522-.2533.7957-.0714 3.8743-.6511 3.8743-.544 0-.3995-2.0638-1.1253-2.0638-.5342 0-1.6935.9775-2.093.9775-.0714 0-.1445-.0373-.1445-.1088 0-.4335 1.0506-1.8462 1.0506-2.1368 0-.5424-2.3918-.6138-2.3918-1.049 0-.2533.9418-.4351 1.8121-.5797 1.8413-.3263 4.5595-1.6659 4.5595-3.5462 0-2.1012-2.0313-3.0072-3.3628-3.8775-.6901-.4336-1.45-.7941-1.45-1.0847 0-.2907.8703-.2907 1.2324-.2907.5423 0 1.0798-.0357 1.0798-.4692 0-.328-.0747-.9775-.0747-1.4841 0-.3637.0374-.6544.1835-.6544.5423 0 1.3039 1.7748 1.666 1.7748.5796 0 1.3769-1.4484 1.9225-1.4484.1786 0 .2517.1104.2517.4351 0 1.3396-.6885 2.8595-.6885 4.165zm-17.2718-10.6096c.3994 3.077 4.5302 1.5198 4.5302 5.2496 0 .5439-.1445 1.3412-.1445 2.0264 0 .7989.0715 1.4874.6804 1.4874.6154 0 .7615-.4352.7615-1.0149 0-.5813-.1461-1.3039-.1461-1.7017 0-1.2681.906-1.5572 1.45-1.5572 1.3785 0 2.4291 1.4127 4.4945 1.4127-.4709 2.3171-5.2561 1.7001-5.2561 4.2364 0 1.2681 1.2698 1.5555 2.1028 1.5555.7615 0 1.0165-.1088 1.0165-.7583 0-.3637-.0747-.7615-.0747-1.0148 0-.1461.1104-.2907.2922-.2907.7973 0 4.7024 2.9699 4.7024 3.8759 0 .8314-4.1243 1.6644-5.3194 1.6644-.3621 0-.4352-.2533-.4352-.3978 0-.2534.6154-1.0149.6154-1.4484 0-.3248-.5423-.5424-1.9939-.5424-.6885 0-1.1951.0715-1.1951.6171 0 .9758 1.5945 2.1709 1.5945 3.0753 0 .7242-.4351 1.1594-1.5945 1.1594-.9791 0-2.4567-.7615-2.4567-2.0281 0-1.0132 1.044-2.0264 1.044-2.6418 0-.1819-.138-.4725-.5731-.4725-1.3413 0-1.7034 3.5479-6.4496 3.9457.7616-.6869 1.4127-1.4468 1.4127-3.0023 0-.7616-.1802-1.3786-.1802-2.2099 0-1.0863.5066-1.6303 1.2308-1.6303 1.3396 0 1.9907 1.8819 2.8626 1.8819.4725 0 .9791-.4319.9791-1.0846 0-2.7523-5.2901-2.3545-5.2901-6.2287 0-1.0506.3604-2.3528 1.3396-4.1633z"/><path d="m74.3336 66.6249c0 .5066.3621.906.8704.906.5796 0 .9434-.5082.9434-1.0879 0-.7583-.6901-1.8105-1.3429-1.8105-.2906 0-.1802.4352-.2549.9061-.0357.3605-.216.7956-.216 1.0863zm-1.8835-4.8161c3.8044.7242 5.8698 3.5853 5.8698 6.2645 0 1.8478-1.1593 3.5462-3.189 3.5462-1.8478 0-3.1809-1.2649-3.1809-3.2945 0-1.5199 1.1869-3.1128 1.1869-4.6699 0-.6154-.1802-1.2308-.6868-1.8463zm-4.8128 6.1573c.3605.3589.4709.7226.4709 1.0847 0 .5439-.2533 1.1236-.2533 1.739 0 .8671.6511 1.6286 1.5912 1.6286 1.0165 0 1.7066-.7989 1.7066-1.7358 0-1.3769-1.4175-2.7165-3.5154-2.7165zm11.9881-2.3171c.2533.3946.3621.794.3621 1.1561 0 1.0149-.6884 1.955-.6884 3.0072 0 1.1951.906 2.171 2.2765 2.171 1.4857 0 2.5005-1.1935 2.5005-2.6062 0-1.9192-1.739-3.5478-4.4507-3.7281zm-11.1194-1.9225c1.6676.2176 2.067.7973 2.067 1.2698 0 .7956-.7258 1.0473-1.4159 1.0473-.5066 0-1.0863-.1072-1.7017-.1072-.7972 0-1.5929.1803-2.2456.9418.4709.0731 1.1593.3978 1.1593 1.1236 0 2.0995-5.8308.3605-5.8308 5.7578 0 2.8595 2.9698 5.9754 7.4595 5.9754 2.3203 0 3.806-.7615 3.806-1.6318 0-.6869-1.2308-.2176-1.2308-.7973 0-.2533.4336-.7258.4336-1.1236 0-.177-.1445-.5034-.4336-.5034-.6543 0-1.8851 1.0473-4.3857 1.0473-1.955 0-3.8743-1.1204-3.8743-2.6418 0-.3248.1445-.5082.3621-.5082s.5066.1461.7599.1461c.2192 0 .255-.1461.255-.544 0-.3978 0-1.5214.6868-1.5214.6885 0 1.9923 2.5363 6.9935 2.5363 1.6595 0 4.8842-.3264 6.0809-1.4127-.0373 3.9831-3.1533 9.2327-9.6694 9.2327-6.771 0-10.3936-5.4331-10.3936-10.4294 0-5.5402 4.5254-10.5706 10.72-10.5706 1.5913 0 2.9341.5407 2.9341 1.2292 0 .9434-2.3544.3637-2.5363 1.4841z"/><path d="m45.0778 22.3768c2.3901 0 3.4748 2.0638 3.4748 4.3809 0 1.0132-.2874 2.499-.7583 2.499s-.3994-.833-.4709-1.5946c-.073-.9758-.2533-1.1934-.5796-1.1934-.6171 0-1.0133 1.4467-1.0133 2.788 0 .8313.1445 1.7747.7957 1.7747.3621 0 .6884-.1818.9044-.3994-.1445 1.6659-1.3769 3.116-3.1143 3.116-3.1858 0-4.3809-3.7314-4.743-5.904-1.9193 2.0281-3.6924 3.5138-6.8798 3.5138-2.9683 0-4.3095-2.1726-4.3095-4.2364 0-.617.2176-2.2099.9792-2.2099.9044 0 .1087 2.9682 1.8819 2.9682.4351 0 1.2308-.3621 1.6659-1.5555.2533-.7258.3995-1.4841.3995-2.1369 0-.9791-.2176-1.5929-.9402-1.5929-.617 0-1.3785.4693-1.6318.7226.8703-2.6077 2.9698-3.9473 5.2853-3.9473 2.8626 0 4.3825 2.5363 4.3825 5.36 0 .3978-.0374.8329-.1088 1.2308 1.2308-2.0281 2.9341-3.5837 4.7803-3.5837zm-2.7896 4.2721c0-.6154-.1445-.7599-.289-.7599-.3621 0-.76.4352-1.3396 1.4127.073 1.3038.2906 1.8835.6527 1.8835.3962 0 .9759-1.2698.9759-2.5363zm-4.9606 1.4841c.3979 0 .9061-.4351 1.8479-1.4841.073-.4709.073-.906.073-1.4484 0-.7242-.2906-1.5214-.7242-1.5214-1.0879 0-1.6302 2.8984-1.6302 3.6599 0 .4319.216.794.4335.794zm5.904 3.2248c.9044 0 1.9176-3.4781 1.9176-5.6506 0-.4709-.0714-.9775-.289-.9775-.7615 0-2.0281 3.5852-2.0281 5.5402 0 .7615.1819 1.0879.3995 1.0879zm-8.8705-1.9923c1.2308 0 2.6402-6.6623 2.6402-7.7859 0-.2907-.1072-.5083-.3605-.5083-1.122 0-2.6792 6.3375-2.6792 7.7502 0 .2549.0731.544.3995.544z"/><path d="m38.3056 32.1167c-1.5571 0-1.6286 1.8851-1.6286 5.6847-1.1577-2.4973-3.077-5.1765-5.3226-5.1765-1.5199 0-2.0995 1.0148-2.0995 2.7863 0 .3638.0357.9077.1088 1.2308.1802-.6137.7615-.867 1.4841-.867 1.5571 0 3.4407 1.1934 4.6715 2.8237-1.4127-.2533-2.7896-.5066-3.9473-.5066-.7242 0-1.377.073-1.9193.3263-1.0506.4693-2.4632 2.0265-2.4632 4.3809 0 .3621.0373.7599.1104 1.1951 1.2665-2.8253 4.6341-4.0919 6.8067-4.0919.4352 0 .7599.0358 1.0132.0715-1.122 1.0132-1.3753 2.7896-1.4483 3.983-.0358.5797-.2533.6171-.6512.6171 0 1.1934.9418 2.9698.9418 3.8742 0 .3248-.1818.6154-.3621.6885 0 1.5929 1.5929 2.7523 1.5929 3.7655 0 .2533-.0731.4709-.1818.5796.1087.6528 1.8608 1.7488 2.0881 2.2977.2777.6673.591.781.7729.781.6154 0 1.5913-.7258 1.5913-1.377 0-.2175-.1803-.4708-.3232-.5796-.6884-.5066-1.0521-1.5929-1.3412-2.3171-.2549 0-.5829-.1072-.6966-.5326-.1981-.7502-.2078-2.1466-.4984-2.9812-.4709-.1072-.6885-.2891-.6885-1.2649 0-.4725.2906-2.3187.2906-2.9715-.2175 0-.5066-.1445-.5066-.5797 0-1.1577 1.1594-2.0637 1.4841-3.5479 2.0654 1.5199 2.5704 3.0771 2.5704 4.454 0 .7226-.1088 1.4127-.2533 2.0654 1.5215-.7615 3.8028-1.8836 3.8028-4.1649 0-1.3412-.6154-2.8253-4.7072-3.405 1.2665-.4709 2.861-.7226 4.2006-.7226 2.3171 0 3.6567.7226 3.9457 2.3512.4709-.7226.8346-1.5572.8346-2.3155 0-1.7763-1.4873-2.9341-3.3692-2.9341-2.2083 0-4.1633 1.1578-6.2645 2.572.9434-1.955 1.5929-3.1143 2.7523-3.1143.1819 0 .3637.0373.544.0731-.4352-1.5929-2.0638-3.1517-2.9342-3.1517z"/><path d="m99.3164 58.2239c1.8116 0 3.2606 2.3544 3.2606 5.1066 0 2.9309-1.377 6.1183-3.8322 8.2893-.0373-4.8859-6.0192-3.3287-6.0192-6.8782 0-1.5198 1.0879-2.5347 2.3934-2.5347 1.161 0 2.0654.3264 2.7182.9791-.6528-.6154-.9792-1.4857-.9792-2.3171 0-1.3785.8704-2.645 2.4584-2.645z"/><path d="m72.4496 21.1812c-.2906-.4709-1.3704-.7225-1.877-.7225-1.5962 0-2.6825 1.122-2.9 2.1368-.1445-.3637-.255-.7972-.255-1.2324 0-1.5929 1.0879-3.5479 3.7347-3.5479 2.3122 0 3.2166 1.2308 3.5446 1.2308.3605 0 .7242-.3637 1.0148-.3637.3979 0 .3979.617.3979 1.0522 0 1.4467-.6512 3.9457-2.283 4.8517-.2907-.617-.8704-1.3038-1.8056-1.7374-.2533-.1088-.3621-.3263-.3621-.5439 0-.3978.3621-.9061.7907-1.1237zm-5.4655 2.6435c.9418.906 1.7731 1.3039 2.788 1.3039.401 0 .8719-.1072 1.1269-.1072.3247 0 .5423.1429.5423.3962 0 .3994-.3621 1.0506-.7973 1.4143.4352.1802.9061.2533 1.4143.2533 2.0573 0 4.4134-1.3055 4.4134-4.5627.4351.578.6901 1.7747.6901 2.317 0 3.9474-2.9001 5.4672-5.5744 5.4672-1.7406 0-2.611-.5797-2.8302-.5797-.6852 0-.6495 1.377-1.1204 1.3412-.8346-.1445-1.5929-1.9923-1.5929-3.9473 0-1.1593.2891-2.3902.9402-3.2962z"/><path d="m35.9886.795597c0-.217583-1.0863-.435165-2.5704-.435165-2.3528 0-2.0281 1.956618-3.8369 1.956618-1.8836 0-1.4143-2.029687-3.8045-2.029687-1.4484 0-2.7863.254929-2.7863.579678 0 .435169 1.7017.254929 1.7017 1.450009 0 1.26652-3.6567 1.63024-3.6567 2.39016 0 .25168.2874.36047.6495.36047.7972 0 2.0638-.36047 2.9698-.36047.5083 0 .9791.10716.9791.57805 0 .90605-1.9566 2.5363-1.9566 3.26049 0 .21758.1803.29065.3621.29065.7242 0 1.955-1.84783 3.1144-1.84783 1.9192 0 .6527 4.09183 1.7017 4.09183 1.0879 0 .617-4.02038 2.1725-4.02038 1.2698 0 2.21 2.78798 3.0787 2.78798.2175 0 .3994-.18024.3994-.43517 0-.75829-1.0879-2.31709-1.0879-3.33031 0-.6154.4352-.90605 1.0148-.90605.8314 0 1.955.50661 2.5688.50661.2176 0 .4352-.07144.4352-.32475 0-.8687-3.2215-1.81048-3.2215-2.93249 0-1.12363 1.7731-1.12363 1.7731-1.630243zm8.5101 3.694033c0 .65112 2.2813 2.06378 3.3319 2.06378.6138 0 .7956-.83298.7956-1.70331 0-1.08467-.4692-1.12039-1.4126-1.12039-1.1935 0-2.7149.32638-2.7149.75992zm3.7671 7.16887c0-2.1726-5.8764-6.11831-5.9397-7.82-.0065-.15588.0779-.31013.2094-.44978 1.0068-1.06031 5.1863-1.83483 5.1863-2.739262 0-.469263-.8703-.469261-1.3055-.469261-3.366 0-8.2909 1.230803-8.2909 2.425883 0 1.23242 4.4166 4.23798 4.4166 5.72209 0 .39944-.2533.54395-.6527.54395-1.2292 0-3.91-1.48573-5.1765-1.48573-.5797 0-.7973.39782-.7973.9775 0 1.73901 2.0638 5.03361 2.0638 6.00951 0 .1088-.0357.2533-.1802.2533-.6528 0-3.7282-3.6193-4.8161-3.6193-.3978 0-.4335.5423-.4335 1.3395v1.2308c0 .833-.0374 1.3396-.4336 1.3396-.9417 0-1.3785-2.6434-2.2813-2.6434-.9418 0-1.1237 4.7072-2.0281 4.7072-1.0505 0-.1445-5.1781-1.1593-5.1781-1.122 0-2.3902 3.4407-3.1875 3.4407-.289 0-.3604-.2906-.3604-.5439 0-1.049.6137-2.7507.6137-3.7639 0-.5082-.1445-.7973-.578-.7973-1.1236 0-3.5869 1.8105-4.527 1.8105-.1445 0-.3248-.073-.3248-.2176 0-.8687 3.9457-3.62091 3.9457-4.85172 0-1.1967-5.433-.39781-5.433-1.77475 0-1.15774 3.8775-2.35444 3.8775-3.5479 0-1.052184-4.6001-1.5214492-6.3732-1.5214492-2.1385 0-3.2946.2516822-3.2946.8687072 0 .941772 4.8518 1.232422 4.8518 2.063782 0 .79726-5.0337 2.93249-5.0337 4.16329 0 1.08792 7.0958.07307 7.0958 1.19671 0 1.2308-6.1897 6.55183-6.1897 8.32663 0 .3994.2906.5796.6868.5796 1.8836 0 6.7694-3.5836 8.1107-3.5836.4708 0 .5082.5781.5082 1.0847 0 .9434-.3264 2.3901-.3264 3.4407 0 .833.2176 1.4127.9402 1.4127 1.3412 0 2.572-2.2814 3.4764-2.2814 1.1577 0 .4725 6.698 2.2099 6.698 1.4841 0 2.0995-7.242 3.0397-7.242.9434 0 1.7049 2.1012 2.572 2.1012 1.0863 0 .5797-3.6567 1.739-3.6567 1.2666 0 4.8859 4.3451 6.5178 4.3451.505 0 .6852-.3994.6852-.9076 0-1.9177-2.6776-6.2612-2.6776-7.6381 0-.3621.1072-.4709.505-.4709 1.4143 0 5.5419 1.955 7.4969 1.955.6527 0 1.0522-.3621 1.0522-.833zm-33.0628-2.09953c0 .72423-2.7506 3.14843-3.7265 3.14843-.3621 0-.4709-.4335-.4709-.8313 0-.7226.3247-1.7375.7242-2.06383.4692-.43516 1.5555-.6495 2.3885-.6495.505 0 1.0847.10555 1.0847.3962zm26.6148 3.72973c0 1.2665 4.5271 7.4579 5.3958 7.4579.7258 0 1.2665-1.2665 1.2665-2.3544 0-.2874-.0715-.5765-.2143-.7957-.6528-.9044-5.2512-4.5254-6.2661-4.5254-.1104 0-.1819.1088-.1819.2176z"/><path d="m99.968 2.31755c0 .50499.398.90281.906.90281.507 0 .906-.39782.906-.90281 0-.50823-.399-.90605-.906-.90605-.508 0-.906.39782-.906.90605zm-5.9007 8.00185c0-2.57203-6.1507-3.22315-6.1507-3.80283 0-.46926 3.4358-1.26815 5.209-1.30387-2.7149-3.47482-6.586-3.11273-6.586-3.72813 0-.36372 2.8984-1.08791 5.5744-1.08791 2.244 0 4.3451.506609 4.3451 2.2083 0 .9434-.7599 1.92089-.7599 3.36928 0 .79726.3962 1.4841 1.45 1.4841 1.1237 0 1.377-1.19508 1.377-2.46322 0-1.04895-.1819-1.84621-.1819-2.35282 0-1.52145 1.0441-2.534668 2.5297-2.534668 1.233 0 1.522.542331 3.334.542331-.979.579677-1.34 1.631867-1.34 2.136857 0 1.52145.979 2.57202.979 5.68637 0 5.71881-5.3582 7.74691-11.9149 7.74691-1.804 0-3.7249-.1445-5.61-.4335-.2891-.0358-.3621-.1088-.3621-.2891 0-.4725 2.5736-.7258 2.5736-3.0413 0-.906-.2906-1.7747-.2906-2.1011 0-.1802.1445-.289.2906-.289.544 0 1.6319 2.0995 3.6534 2.0995.5391 0 1.8803-.1819 1.8803-1.8462zm6.1167-3.65669c0 3.22151-2.3463 5.68479-6.5892 6.37159.4725.0357.9077.0357 1.3429.0357 4.9573 0 6.7693-2.244 6.7693-4.12593 0-1.05056-.58-1.99234-1.523-2.28136z"/><path d="m97.6927 53.336c.5796-1.8104 1.3055-3.0786 2.4923-5.0336-1.1868-.6138-4.3402-1.9193-4.3402-4.0561 0-2.4973 3.116-4.4523 3.7606-4.4523.2891 0 .3621.2533.3621.7242 0 1.3022-.6154 3.4033-.6154 4.5254 0 1.0132.6529 1.9923 1.2329 1.9923.615 0 2.318-2.1726 2.318-4.3094 0-3.8402-3.3706-4.9979-4.4131-4.9979-.9791 0-2.7538 1.5929-6.9204 1.5929-7.7826 0-9.559-7.7096-9.559-11.0789 0-.1445.0357-.1818.0714-.1818.1819 0 .9434.9434 3.4067.9434 1.2681 0 2.4275-.3264 4.2769-.3264 4.3387 0 6.2596 3.0072 8.942 6.8425 1.6225 1.0132 5.5015 2.6434 5.5015 7.2419 0 4.0561-4.3145 6.3018-5.357 10.6453 1.659-.1786 2.639-3.1501 4.34-3.1501.871 0 1.27.6885 1.27 1.7764 0 1.5913-.906 3.983-2.647 5.4672.038-.1462.038-.3264.038-.544 0-1.0132-.398-2.46-1.559-2.46-1.8041 0-2.3854 1.9534-3.3986 3.582-1.0506-3.6908-2.4648-7.0243-4.9979-9.0524-2.5655-2.0638-6.9886-.9418-6.9886-4.7072 0-1.0149.6527-2.4616.6527-3.621 0-.3978-.073-.7599-.2906-1.0506 3.4797 1.3055 2.2473 3.621 4.3857 6.0112 1.3331 1.5214 5.0272 2.9698 7.1673 9.2342.0341-.1818.0714-.6511.0714-.9775 0-5.36-7.0942-10.6112-7.7096-12.7838 4.1211.4709 4.8453 1.4858 6.8036 6.9172.3978 1.1236 1.7033 3.9116 1.7033 5.2869zm-.9418-17.5624c0-.7599-1.9225-.8314-2.1028-2.9682-.0373-.3264-.1445-.9045-.5439-.9045-.6528 0-.1462 1.9907-.8703 1.9907-1.6644 0-2.2067-3.2588-2.8237-3.2588-.1462 0-.3183.1088-.3183.5439 0 .3979.0731.6528.0731 1.1204 0 .4725-.1088.7973-.544.7973-.9791 0-1.8478-2.2798-2.6824-2.2798-.1819 0-.3621.1088-.3621.2891 0 .4351.7242 1.2308.7242 1.6302 0 .8687-2.3545.3978-2.3545 1.122 0 .3264.3248.4336.76.4336.7615 0 1.9582-.3248 2.5736-.3248.3621 0 .906.0731.906.5423 0 .5067-1.3038 1.1578-1.3038 1.6287 0 .2176.2176.3247.3978.3247.9791 0 2.71-1.7 3.9425-1.7.2159 0 .7582.1087.7582.4351 0 .4693-1.2291 1.3006-1.2291 1.9891 0 .1819.1088.3995.3263.3995.6479 0 1.5183-1.7017 2.7507-1.7017.4725 0 1.161.1818 1.5231.1818.2906 0 .3994-.1818.3994-.2906z"/><path d="m69.7728 14.0827c.5813 0 .69 1.4143.8005 2.2457.0714.4352.1445.4709.3263.4709.4352 0 1.122-1.666 1.5864-1.666.6869 0 2.5363 1.9193 5.6166 1.9193 4.3792 0 8.5101-3.0786 8.5101-8.50846 0-5.24958-3.6973-8.328209-8.8008-8.328209-2.4258 0-4.2039 1.195079-5.1456 1.195079-.5716.03572-1.4419-1.41104052-1.8771-1.41104052-.1802 0-.3621.36047552-.3621.97587552 0 .399445 0 1.665965-.4351 1.665965-.872 0-4.238-2.497326-4.238-1.5929 0 .83298 2.244 3.36766 2.244 4.01878 0 .65275-2.2083 1.26815-2.2083 1.70331 0 .79564 2.3544.94015 2.3544 1.955 0 1.01322-2.4632 1.8105-2.4632 2.572 0 .6138 2.4632.1803 2.4632.9402s-1.8104 3.2946-1.8104 4.0171c0 .1819.0357.1819.1802.1819.6868 0 2.7506-2.3545 3.2589-2.3545zm1.0538-5.93638c0-.39782-1.4159-1.15773-1.4159-1.5929 0-.07144.0714-.10879.1818-.10879.3995 0 1.0879.14614 1.6319.14614.4725 0 .5439-2.02806.8995-2.02806.2517 0 .6869 1.91927 1.088 1.91927.4692 0 1.3379-.54396 1.7016-.54396.0731 0 .1446.03572.1446.10879 0 .25331-.9061 1.22918-.9061 1.51983 0 .32637 2.0297.72419 2.0297 1.01484 0 .3621-2.0654.32638-2.0654.65275 0 .25168.7615 1.26657.7615 1.59127 0 .0731-.0373.1104-.1088.1104-.2906 0-1.4143-.5082-1.7406-.5082-.3978 0-1.0425 1.4841-1.3688 1.4841-.1088 0-.1803-.1445-.1803-.3264l-.0747-1.4484c0-.14448-.0698-.28899-.2517-.28899-.4351 0-1.2697-.03735-1.5247-.03735-.1818 0-.2533-.03572-.2533-.10717 0-.29065 1.4517-1.30387 1.4517-1.55717zm7.0584 6.87978c-2.5363 0-4.2039-1.2665-4.2039-1.9192 0-.3264.2176-.5424.5083-.5424.7972 0 2.5362 1.2292 3.1159 1.2292.1445 0 .2533-.0714.2533-.289 0-.6528-.6154-1.7374-.6154-2.2798 0-.1445.1088-.2533.3264-.2533.9775 0 2.4291.3995 3.1907.3995.2516 0 .3231-.1462.3231-.2907 0-.7972-2.3544-2.3544-2.3544-2.82529 0-.43516 2.9276-1.08791 2.9276-1.77313 0-.72582-3.9798-.21921-3.9798-.90606 0-.50823.7615-1.37693.7615-1.77475 0-.18186-.1445-.25331-.3978-.25331-.3264 0-2.0654.68847-2.7896.68847-.3637 0-.7989-.07307-.7989-.57968 0-.8346 1.4143-1.73903 3.6242-1.73903 3.5804 0 5.7205 2.46323 5.7205 6.5908 0 5.21388-3.6551 6.51768-5.6117 6.51768z"/><path d="m53.3702 77.669c0 .3264-.1088.6901-.3994 1.0506-.3962-.7242-1.5199-1.0879-2.0281-1.0863-3.7281 0-2.3171 5.3957-6.3002 5.3957-1.6643 0-1.8104-.2175-2.4258-.2175-.2533 0-.3979.1087-.3979.3263 0 .9434 1.3396 3.2589 5.0694 3.2589 3.7297 0 7.315-2.2797 7.315-5.1083 0-.4693-.1088-.9726-.3264-1.4809.1445-.2176.5082-.3621.8346-.3621.5781 0 .9044.6528 1.4468.6528.5813 0 1.0148-.4352 1.0148-1.0149 0-.4709-.2533-.7972-.6884-1.0164.2906-.216.5066-.5797.5066-.9775 0-.6154-.4336-1.1919-1.1594-1.1919-.3264 0-.5423.1088-.7956.3589-.0715-.6495-.4336-1.2649-1.122-1.2649-.544 0-.9434.3978-.9434 1.0148 0 .5748.3994 1.0473.3994 1.6627z"/><path d="m43.6297 79.0469c-1.0863 0-2.7165-1.1594-2.7165-1.8122 0-.5439.5082-.8346.9044-.8346.9061 0 2.5347 1.1237 2.5347 2.0655 0 .2549-.1819.5813-.7226.5813zm-10.1029-8.1107c2.8967.721 4.3451 2.2781 4.6341 4.1276.2907 1.7715.6528 3.2215 1.3396 3.9457.9061 1.0165 2.6792 1.9177 4.238 1.9177 1.3039 0 2.3512-.4303 2.3512-1.627 0-1.3039-1.7731-4.2364-4.3809-4.2364-.2516 0-.578.0373-.9401.0373-.3264 0-.7973-.073-1.0879-.3263-.5781-.5083-.7583-3.2248-1.8462-4.8534-1.1935-1.8105-2.4974-2.3187-4.2705-2.3187-1.2665 0-2.6808.6884-2.6808 1.7033 0 .6154.3264 1.0489 2.6435 1.6302z"/><path d="m51.7046 66.5157c0-1.6286-3.3693-1.6643-3.3693-4.1275 0-.617.3995-1.666 1.1967-2.7896.3264 1.8835 1.0863 2.861 2.7166 3.478 3.2215 1.1935 3.6566 3.004 3.6566 4.9249 0 3.2605-2.2813 7.315-8.1463 7.315-4.7089 0-8.0765-4.2007-8.0765-7.7486 0-.9791.2533-2.0654.8687-2.0654.5439 0 .7258.4336 1.1577.8687 1.6319 1.6303 3.405 2.0638 5.977 2.0638 2.3171 0 4.0188-.9401 4.0188-1.9193zm.1445 2.6078c-1.2421.5683-1.7374.4709-1.7374 1.7406 0 .4693-.1088 1.0831-.1088 1.4095 0 .4335.0731.6884.5781.6884 1.3055 0 3.3693-2.2083 3.3693-4.0918 0-.5082-.2907-.7226-.6171-.7226-.2906 0-.6137.5781-1.4841.9759zm-11.5513-18.285c0-2.3188 5.5045-3.5496 5.5045-6.4106 0-.4709-.1803-1.3023-.5066-1.9193 1.9192 1.0506 3.3303 2.827 3.3303 4.2737 0 2.499-2.6061 3.6567-2.6061 5.2155 0 1.8105 2.7879 2.0995 2.7879 4.3452 0 1.8445-2.645 3.9814-2.645 6.3716 0 1.8462 1.3054 3.366 3.2962 3.6193-.6512.1461-1.2308.2549-1.8462.2549-3.6583 0-7.4238-3.0039-7.4238-6.5908 0-1.7747.7615-3.3287 1.9193-4.4523 1.0148.8687 2.028 1.4484 2.6791 1.4484.5797 0 .8346-.289.8346-.7242 0-1.3412-5.3242-2.5704-5.3242-5.4314z"/><path d="m19.2949 68.7252c.1526 1.2373 1.3054 2.1742 2.6077 2.0297.4693-.052.906-.1819 1.1967-.3621.289 1.1577 1.2616 1.903 2.5753 1.7309 1.3331-.1737 2.2407-1.2243 2.0962-2.5655-.0389-.3605-.1088-.5797-.2176-.833 0 0 .177-.0178.3102-.0438 1.3071-.2468 2.1888-1.2958 2.08-2.5639-.1445-1.3023-1.3136-2.27-2.5331-2.1206-.4708.0584-.9076.237-1.1983.492-.3264-1.0847-1.3477-2.0297-2.7425-1.7975-1.2584.2078-2.0914 1.2762-1.9647 2.6304.0195.2192.0714.4709.1802.7226 0 0-.2127.0325-.3588.0536-1.0571.1575-2.2035 1.2211-2.0313 2.6272zm6.7661-1.424c.0893.7567-.4514 1.4386-1.2081 1.5279-.755.0877-1.4402-.4546-1.5263-1.2097-.0893-.7566.4514-1.4418 1.2081-1.5295.7567-.0893 1.4403.453 1.5263 1.2113z"/></g></svg>