<svg width="119" height="132" viewBox="0 0 119 132" fill="none" xmlns="http://www.w3.org/2000/svg">
<path d="M47.7664 128.306C48.7894 128.306 50.5479 127.975 51.9313 125.758C51.1406 124 50.5771 120.447 50.4959 119.154C50.0884 112.538 52.6377 106.314 55.4289 106.143C57.4732 106.02 59.1099 107.955 59.2983 111.091C59.8 119.335 57.0559 122.777 55.6822 125.743C55.9144 126.895 57.8645 128.855 59.7075 128.855C60.3878 128.855 61.2111 128.514 61.4173 128.238C61.2793 127.763 61.1412 127.148 61.1412 126.258C61.1412 121.481 64.2134 117.454 66.8747 117.454C68.9904 117.454 70.218 120.252 70.218 122.098C70.218 124.279 68.375 126.057 65.6471 127.763C66.1262 128.238 67.0095 128.583 67.7629 128.583C71.655 128.583 73.6928 123.873 75.2013 119.572C75.4741 118.75 75.9531 117.591 76.9062 117.591C78.5462 117.591 79.2298 128.374 81.9528 128.374C83.1154 128.374 84.0702 125.984 84.0702 124.146C84.0702 122.78 83.5928 122.644 83.5928 120.663C83.5928 118.482 84.7538 116.641 86.3256 116.641C87.2803 116.641 87.6246 117.591 87.6246 118.75C87.6246 123.118 84.4826 131.24 79.8468 131.24C76.3606 131.24 76.6334 125.235 75.4059 125.235C74.0354 125.235 72.1243 131.31 65.3744 131.31C64.2767 131.31 63.1206 130.764 62.1674 129.67C60.5307 130.764 59.1619 131.24 57.5917 131.24C55.07 131.24 53.9773 128.647 52.9543 128.647C51.7235 128.647 50.3628 131.31 46.2645 131.31C42.9893 131.31 42.4421 126.945 41.286 126.945C40.2598 126.945 38.6913 131.31 36.9864 131.31C34.1156 131.31 33.5067 123.735 30.9785 123.735C28.9991 123.735 22.7461 131.428 21.0492 131.253C20.3657 131.181 20.0799 130.67 20.1513 129.988C20.2471 129.045 21.059 126.518 21.3902 125.321C21.9423 123.246 22.4489 120.971 22.7315 120.245C23.0124 119.515 23.7707 118.992 24.3779 119.049C24.6848 119.078 24.7774 119.65 24.8716 120.12C25.2158 121.808 25.698 123.529 26.2404 123.529C27.1984 123.529 30.3647 117.454 32.206 117.454C34.4614 117.454 34.7326 127.01 37.7998 127.01C38.8261 127.01 39.5795 125.784 40.2598 124.279C40.3296 121.749 41.01 118.141 43.0575 118.141C44.4929 118.141 45.1765 121.345 44.1487 124.146C44.1487 127.487 46.331 128.306 47.7664 128.306ZM102.358 120.119C101.513 123.626 98.9486 128.786 95.1231 128.786C94.2381 128.786 92.6663 128.444 92.6663 127.556C92.6663 126.599 98.6758 126.468 98.6758 121.892C98.6758 120.189 97.1073 117.797 94.7853 117.797C91.7148 117.797 88.719 121.143 88.719 125.784C88.719 129.944 91.304 131.31 93.8955 131.31C98.403 131.31 101.131 127.621 102.563 124.552C103.248 126.599 103.653 131.31 105.364 131.31C106.044 131.31 106.525 130.967 107.347 129.127C109.386 124.552 111.367 119.299 114.1 119.299C115.121 119.299 114.509 121.143 116.966 121.143C118.123 121.143 118.939 120.189 118.939 119.091C118.939 117.521 117.508 116.297 115.326 116.297C108.912 116.297 107.55 125.919 106.525 125.919C104.817 125.919 105.364 118.208 104.133 118.208C103.04 118.208 102.505 119.51 102.358 120.119ZM57.0884 112.932C56.9698 111.026 56.5087 110.165 55.4841 110.233C54.125 110.316 53.4966 114.593 53.7743 119.086C53.9513 122.019 54.3881 122.47 54.794 122.442C55.5458 122.399 57.3498 117.159 57.0884 112.932ZM45.99 108.925C45.8942 107.832 45.0369 107.085 43.8759 107.085C42.5802 107.085 41.3607 108.444 41.4906 110.152C41.5734 111.276 42.2376 112.203 43.5398 112.203C45.0369 112.203 46.1281 110.496 45.99 108.925ZM67.2173 122.845C67.2173 121.687 66.6003 120.733 65.855 120.733C65.2347 120.733 63.8058 121.411 63.8058 123.597C63.8058 125.308 64.4147 126.12 64.6924 126.468C66.6685 125.852 67.2173 124.211 67.2173 122.845ZM93.8955 120.531C95.3309 120.531 95.7417 122.23 95.4007 123.256C95.0565 124.279 93.8306 125.443 91.9194 125.784C91.5086 124.758 91.304 120.531 93.8955 120.531ZM15.319 115.686C15.1226 115.066 14.5559 113.671 14.4 112.641C14.059 110.362 15.2508 108.86 16.3453 108.516C17.5744 108.173 18.0534 108.788 18.5276 110.224C19.143 112.406 19.2112 115.27 19.005 119.365C18.7354 124.962 15.9361 131.719 8.97668 131.579C2.96881 131.448 0.31073 127.556 0.0346924 121.619C-0.0952075 118.821 0.10289 116.025 1.26387 112.067C1.87765 109.949 2.42648 109.196 4.33438 108.788C5.83472 108.516 5.69995 110.082 5.35896 111.932C4.61042 116.025 4.26456 118.001 4.5406 122.644C4.80851 127.556 7.06553 129.468 9.52226 129.468C13.2065 129.538 14.8433 126.468 15.5285 122.028C16.0708 118.482 15.6633 116.776 15.319 115.686Z" fill="white"/>
<path d="M95.8067 26.9037C96.2792 30.3428 101.49 34.9786 102.902 34.8698C103.846 34.7886 104.208 30.3785 104.208 26.9037C104.208 24.913 104.317 23.3542 103.266 22.9905C101.599 26.3598 97.221 27.0482 95.8067 26.9037ZM96.0957 25.3823C99.8579 25.3823 103.302 22.3767 103.302 19.7332C103.302 18.5008 102.721 17.4876 101.236 17.3074C101.49 17.6337 101.599 17.887 101.599 18.4651C101.599 20.4574 98.5622 22.6674 95.2643 22.6674C94.0676 22.6674 93.7055 23.4987 93.7055 23.9339C93.7055 24.9487 94.6847 25.3823 96.0957 25.3823ZM95.3001 21.2904C94.7934 21.2904 94.0676 21.2904 93.6682 20.4948C93.3418 19.842 93.4506 18.7915 92.8352 18.3206C93.4506 18.5008 94.1034 18.5008 94.6116 18.5008C96.2435 18.5008 97.8023 17.3788 98.9973 17.3788C99.7865 17.3788 100.04 17.887 100.04 18.392C100.04 19.9882 96.8231 21.2904 95.3001 21.2904Z" fill="white"/>
<path d="M14.2998 49.6804C15.529 49.6804 15.2757 42.1478 17.268 42.1478C17.7389 42.1478 17.8834 42.6187 17.8834 43.1984C17.8834 44.9001 17.0505 47.399 17.0505 48.7744C17.0505 49.4628 17.2307 49.6804 17.5571 49.6804C18.4274 49.6804 19.9472 41.3863 21.433 41.3863C21.9038 41.3863 22.1198 41.8572 22.1198 42.3297C22.1198 44.0671 19.9115 49.0634 19.9115 50.476C19.9115 50.692 19.9846 50.8739 20.1648 50.8739C21.0709 50.8739 22.8813 46.9639 23.4594 45.0089C23.7858 43.994 24.2209 43.4501 24.6188 43.4501C24.9808 43.4501 25.3072 43.8495 25.3072 44.6825C25.3072 46.6375 23.4951 51.236 21.9038 54.3162C20.673 56.7048 18.7538 60.1439 18.7538 62.0631C18.7538 63.0406 18.9324 64.0538 20.3467 65.2863C18.028 65.1418 17.0862 64.9242 16.2191 63.1137C12.3448 70.8265 23.3522 70.0666 19.5851 76.9091C18.8967 75.6799 13.4652 74.4117 13.4652 67.2413C13.4652 61.0499 18.8967 57.4289 18.8967 54.8569C18.8967 54.3519 18.718 53.9168 18.2455 53.5173C17.0505 52.5025 17.0131 51.6728 16.0746 51.6728C15.3845 51.6728 14.5515 53.264 15.4202 54.6767C15.7109 55.1476 15.9642 55.4366 15.9642 55.8718C15.9642 56.885 14.3696 59.5999 13.2493 59.5999C12.1273 59.5999 11.2585 56.8152 11.2585 52.3223C11.2585 48.3392 12.163 44.3204 13.285 44.3204C13.6114 44.3204 13.7201 44.538 13.7201 44.827C13.7201 45.2979 13.5756 46.2397 13.5756 47.831C13.5756 49.5343 13.9735 49.6804 14.2998 49.6804Z" fill="white"/>
<path d="M23.5319 60.2886C25.055 60.2886 26.3199 59.165 26.3199 56.6693V52.9736C26.3199 51.5626 26.4287 49.9697 27.3721 48.846C27.2633 49.3169 27.2633 49.8252 27.2633 50.2944C27.2633 53.4088 29.0007 55.5456 29.0007 58.5512C29.0007 59.6716 28.6743 60.2886 27.8072 60.2886C26.9726 60.2886 27.0457 59.5271 26.8638 59.5271C26.7193 59.5271 26.5017 59.9979 26.5017 60.5062C26.5017 61.2661 27.0457 62.4612 28.5655 62.4612C29.871 62.4612 30.92 61.2661 30.92 59.9265C30.92 56.6693 28.3853 53.0467 28.3853 49.5719C28.3853 48.0488 28.7831 47.0356 29.1095 46.2383C29.1095 53.4461 35.2294 58.6957 35.2294 61.6996C35.2294 62.3881 34.7228 62.9321 33.9629 62.9321C33.1283 62.9321 32.7304 62.2793 32.7304 61.7711C32.7304 61.5178 32.6931 61.4463 32.5859 61.4463C32.37 61.4463 31.7172 62.1705 31.7172 63.1139C31.7172 64.3074 32.6931 65.7574 34.5052 65.7574C36.5674 65.7574 37.691 64.0167 37.691 62.4612C37.691 58.66 30.2672 52.9022 30.2672 46.7465C30.2672 45.696 30.4474 43.9943 31.209 42.6904C26.4287 45.7674 24.9462 49.8609 24.9462 53.4461C24.9462 56.5605 24.8374 58.1144 23.2445 58.1144C22.4099 58.1144 22.1939 57.3561 21.9033 57.3561C21.6857 57.3561 21.5769 58.0072 21.5769 58.1875C21.5769 59.5271 22.556 60.2886 23.5319 60.2886Z" fill="white"/>
<path d="M86.2866 24.115C87.8811 24.115 89.0778 23.3908 89.0778 22.9556C89.0778 22.8127 88.8602 22.7023 88.3877 22.7023C87.9168 22.7023 86.975 22.6666 85.1987 22.3776C83.6756 22.1226 82.5162 21.5446 82.0811 21.5446C81.9365 21.5446 81.8635 21.616 81.8635 21.7248C81.8635 22.6666 83.6041 24.115 86.2866 24.115ZM78.3935 19.5165C78.853 19.208 80.8925 19.6968 83.5327 18.3929C83.8574 18.2126 84.1838 18.1396 84.4728 18.1396C85.7426 18.1396 85.4146 19.588 86.5772 19.588C87.4816 19.588 88.6426 18.8264 89.3311 18.8264C90.4109 18.8264 91.9681 22.2314 91.9681 23.8243C91.9681 25.6721 89.1866 26.7942 85.8871 26.7942C81.076 26.7942 78.1743 22.5951 78.1743 19.8786C78.1743 19.661 78.2847 19.588 78.3935 19.5165Z" fill="white"/>
<path d="M24.2928 73.9391C23.0994 74.2298 21.1785 76.1101 21.1785 79.0832C21.1785 82.6311 24.9813 88.0999 31.2457 88.0999C36.531 88.0999 37.8349 84.4432 37.8349 81.9783C37.8349 76.5095 34.4689 72.671 30.088 72.671C27.6978 72.671 25.561 74.4117 25.561 76.9804C25.561 79.3722 27.3714 82.9558 31.6809 82.9558C33.7089 82.9558 34.9024 81.5074 34.9024 79.8431C34.9024 78.2129 33.4183 75.9688 31.2457 75.9688C30.593 75.9688 30.1237 76.4007 30.1237 77.0892C30.1237 77.9579 31.3188 78.8283 32.8029 78.8283C33.165 78.8283 33.454 78.7568 33.6001 78.6837C33.6716 78.7925 33.7089 78.9744 33.7089 79.1189C33.7089 79.9519 32.9101 80.4601 31.6809 80.4601C29.8347 80.4601 28.0583 79.0832 28.0583 76.9074C28.0583 75.6067 29.1819 74.665 30.8105 74.665C34.0337 74.665 35.953 77.5244 35.953 80.3871C35.953 82.9558 34.5419 84.4432 31.6452 84.4432C25.85 84.4432 23.0263 79.2277 24.2928 73.9391Z" fill="white"/>
<path d="M62.8203 87.9189C62.8203 88.7161 63.473 89.3673 64.2687 89.3673C65.0659 89.3673 65.717 88.7161 65.717 87.9189C65.717 87.1216 65.0659 86.4689 64.2687 86.4689C63.473 86.4689 62.8203 87.1216 62.8203 87.9189ZM65.6277 95.1559C67.3635 95.1559 67.2742 95.0114 67.8182 95.0114C68.3605 95.0114 68.3979 95.3378 68.3979 95.5554C68.3979 96.3526 66.6215 97.3317 63.473 97.3317C61.6252 97.3317 60.5032 96.3526 60.1768 95.2663C58.368 96.4241 55.6157 97.4746 52.8992 97.4746C45.477 97.4746 43.5935 94.2499 41.2764 93.2026C39.5 92.4053 36.7851 93.9641 32.9839 89.7261C33.4905 89.8349 34.179 89.8722 34.7229 89.8722C38.0516 89.8722 39.8264 88.2436 39.8264 85.6343C39.8264 85.3079 39.7906 84.9507 39.7533 84.6259C40.7681 85.0237 43.0869 86.7595 43.6292 89.8349C43.7023 90.1986 45.1864 90.5234 46.1265 90.5234C47.432 90.5234 49.098 89.9794 49.3497 87.8458C53.6964 87.4837 56.6305 84.9133 57.2459 81.6512C58.8015 82.1594 60.5746 83.5721 61.0098 84.2979C61.6252 84.0803 62.3494 83.9715 63.1824 83.9715C64.3401 83.9715 65.6456 84.1891 67.2011 84.6616C67.2742 84.1891 67.3473 83.6094 68.0715 83.6094C69.1578 83.6094 68.8671 84.8045 69.2292 85.4897C69.4111 85.8518 70.3187 86.0694 70.3187 86.7936C70.3187 87.4837 69.7358 87.737 69.3753 87.737C69.2292 87.737 69.049 87.7013 68.9386 87.6656C68.216 87.9189 68.1803 93.1311 65.1374 93.1311C62.8933 93.1311 60.8296 91.2849 59.9235 88.9694C59.6686 88.281 59.1279 87.8458 58.6196 87.8458C58.0416 87.8458 57.7152 87.9546 57.0284 88.7161C55.0734 90.8497 51.8129 92.6959 47.7941 92.6959C46.5617 92.6959 45.5858 92.5872 45.3309 92.5872C45.1864 92.5872 45.1864 92.6229 45.1864 92.6586C45.1864 92.9135 46.4172 93.8926 49.098 93.8926C55.4696 93.8926 57.0284 90.3058 58.0416 90.3058C58.1861 90.3058 58.6196 90.3058 58.8729 90.8855C60.357 94.3587 63.5997 95.1559 65.6277 95.1559Z" fill="white"/>
<path d="M87.591 72.0916C86.8311 72.0916 82.624 77.7049 79.9155 77.7049C79.2628 77.7049 78.7205 76.4724 78.7205 75.5355C78.7205 75.0273 79.0436 74.6652 80.2062 74.4119C86.4316 72.9976 85.0547 68.3261 90.3741 68.3261C93.3066 68.3261 96.5687 70.3184 96.5687 74.8097C96.5687 79.59 89.7652 85.5265 88.7504 85.5265C87.9157 85.5265 87.0113 84.333 87.0113 83.5357C87.0113 83.2841 87.1201 82.9561 87.8443 82.667C91.3159 81.2885 93.3066 78.1043 93.3066 76.4724C93.3066 76.1103 93.1264 75.7531 92.6538 75.7531C92.0401 75.7531 89.4031 81.761 86.4674 81.761C84.4377 81.761 82.3723 79.9164 82.3723 79.0461C82.3723 77.5977 88.2421 74.9185 88.2421 72.8888C88.2421 72.1273 87.8816 72.0916 87.591 72.0916ZM91.4961 69.8475C90.9895 69.8475 90.4472 70.247 90.4472 71.2261C90.4472 72.3091 91.2802 72.9976 91.751 73.2152C92.0043 73.3597 92.4038 73.5058 92.7984 73.5058C93.8506 73.5058 94.6835 73.2152 94.6835 72.3449C94.6835 71.2261 93.0533 69.8475 91.4961 69.8475Z" fill="white"/>
<path d="M23.8582 27.9163C23.8582 28.7136 24.5109 29.3663 25.3082 29.3663C26.1038 29.3663 26.7549 28.7136 26.7549 27.9163C26.7549 27.1207 26.1038 26.4679 25.3082 26.4679C24.5109 26.4679 23.8582 27.1207 23.8582 27.9163ZM21.9763 24.6575C21.9763 25.4531 22.6274 26.1058 23.423 26.1058C24.2203 26.1058 24.873 25.4531 24.873 24.6575C24.873 23.8618 24.2203 23.2091 23.423 23.2091C22.6274 23.2091 21.9763 23.8618 21.9763 24.6575ZM20.6724 34.5786C19.8378 34.7961 18.102 35.811 18.102 37.6198C18.102 38.9237 19.1136 39.7567 20.3834 39.7567C21.0345 39.7567 21.5054 39.6122 21.7944 39.3946C20.7812 38.4171 20.4191 37.3308 20.4191 36.2462C20.4191 35.4846 20.5279 35.0137 20.6724 34.5786ZM11.8018 35.0868C11.7661 35.2687 11.7661 35.4489 11.7661 35.6291C11.7661 37.3308 12.6705 38.2726 13.8656 38.2726C14.7684 38.2726 15.8206 37.7286 16.7608 36.5336C16.363 36.605 15.8921 36.6407 15.4569 36.6407C14.1189 36.6407 12.6705 36.2819 11.8018 35.0868ZM10.5337 38.3083C10.5337 41.0606 11.3667 42.3644 12.8508 42.3644C14.0101 42.3644 15.5673 41.5315 17.4119 39.9386C16.0009 40.2649 14.9146 40.4809 13.9371 40.4809C12.6332 40.4809 11.6216 39.9743 10.5337 38.3083ZM19.9125 23.8245C20.0927 23.2448 20.2372 22.5222 20.2372 21.725C20.2372 19.9876 19.44 17.3425 16.9784 17.3425C15.5673 17.3425 14.5508 18.4645 14.5508 19.8057C14.5508 22.6667 17.4119 23.8245 19.9125 23.8245ZM16.8322 32.9499C15.6388 32.9499 14.3349 31.4658 14.3349 30.1262C14.3349 29.4021 14.8772 28.496 15.2767 28.496C15.4212 28.496 15.4942 28.6048 15.53 28.8597C15.7475 30.6329 16.9053 31.6477 17.9932 32.1527C18.102 32.2258 18.1734 32.2615 18.1734 32.3345C18.1734 32.5878 17.485 32.9499 16.8322 32.9499ZM20.1658 28.5317C20.4158 28.8727 21.1075 29.2933 21.1075 29.5466C21.1075 30.0532 20.8169 30.7059 20.2372 30.7059C18.9691 30.7059 17.9558 28.7867 17.9558 27.6987C17.9558 27.0119 18.3553 26.9405 18.896 26.9405C19.1509 26.9405 19.2581 26.9762 19.44 27.085C19.7663 27.2652 19.7663 27.9894 20.1658 28.5317ZM11.6573 33.023C11.5891 33.1351 11.5485 33.2763 11.5485 33.4225C11.5485 33.7472 11.9106 34.1093 12.2354 34.1093C12.526 34.1093 12.7063 34.0379 12.8508 34.0379C13.7195 34.0379 14.697 34.6516 16.1096 34.6516C16.941 34.6516 17.9201 34.3983 19.1509 33.7846C21.757 32.4791 22.7735 29.2575 22.7735 28.7136C22.7735 28.0251 22.2198 28.1144 21.757 27.4812C21.2959 26.8511 21.4729 26.291 21.179 25.9971C21.0101 25.8282 20.4921 25.8168 19.8378 25.7437C19.6202 25.7194 19.3312 25.708 19.0421 25.708C17.8471 25.708 16.4311 25.8542 14.8415 26.8674C11.6995 28.8711 12.1623 32.19 11.6573 33.023ZM23.6779 31.5746C22.8807 32.5148 22.0477 34.1093 22.0477 35.7379C22.0477 37.6929 23.2444 39.3215 25.0906 39.3215C26.8637 39.3215 27.6967 37.8017 27.6967 36.2462C27.6967 33.8203 25.4884 32.117 23.6779 31.5746ZM15.9294 24.6217C15.9294 24.6217 14.8772 25.4174 13.575 25.4174C12.0194 25.4174 10.787 24.2596 10.787 22.631C10.787 21.5074 11.3667 20.3497 12.7063 19.77C12.6705 19.9876 12.6705 20.1678 12.6705 20.3854C12.6705 22.4492 13.8283 24.0063 15.9294 24.6217Z" fill="white"/>
<path d="M79.7697 36.6418C79.7697 37.4764 80.4598 38.1649 81.283 38.1649C82.1176 38.1649 82.8061 37.4764 82.8061 36.6418C82.8061 35.8104 82.1176 35.1236 81.283 35.1236C80.4598 35.1236 79.7697 35.8104 79.7697 36.6418ZM79.8785 41.2045C79.8785 42.1479 80.64 42.9079 81.5753 42.9079C82.5171 42.9079 83.2786 42.1479 83.2786 41.2045C83.2786 40.2644 82.5171 39.5045 81.5753 39.5045C80.64 39.5045 79.8785 40.2644 79.8785 41.2045ZM74.6614 44.2832C74.6614 45.6585 75.7834 46.7821 77.162 46.7821C78.5373 46.7821 79.6625 45.6585 79.6625 44.2832C79.6625 42.9079 78.5373 41.7842 77.162 41.7842C75.7834 41.7842 74.6614 42.9079 74.6614 44.2832ZM76.001 39.1781C76.001 39.9754 76.6521 40.6265 77.451 40.6265C78.2483 40.6265 78.8994 39.9754 78.8994 39.1781C78.8994 38.3825 78.2483 37.7297 77.451 37.7297C76.6521 37.7297 76.001 38.3825 76.001 39.1781ZM71.2596 42.0749C71.2596 42.8721 71.9124 43.5216 72.7015 43.5216C73.5004 43.5216 74.1532 42.8721 74.1532 42.0749C74.1532 41.2776 73.5004 40.6265 72.7015 40.6265C71.9124 40.6265 71.2596 41.2776 71.2596 42.0749ZM74.9861 33.6038C74.9861 34.8703 76.0367 35.9192 77.3049 35.9192C78.5746 35.9192 79.6252 34.8703 79.6252 33.6038C79.6252 32.334 78.5746 31.2851 77.3049 31.2851C76.0367 31.2851 74.9861 32.334 74.9861 33.6038ZM77.7043 29.1482C77.7043 29.9081 78.3197 30.5235 79.0812 30.5235C79.8428 30.5235 80.4598 29.9081 80.4598 29.1482C80.4598 28.3883 79.8428 27.7713 79.0812 27.7713C78.3197 27.7713 77.7043 28.3883 77.7043 29.1482ZM71.1525 32.6246C71.1525 33.3862 71.7679 34.0016 72.5213 34.0016C73.2828 34.0016 73.8982 33.3862 73.8982 32.6246C73.8982 31.8647 73.2828 31.2493 72.5213 31.2493C71.7679 31.2493 71.1525 31.8647 71.1525 32.6246ZM70.9706 37.3303C70.9706 38.5627 71.9497 39.5402 73.1724 39.5402C74.4048 39.5402 75.3856 38.5627 75.3856 37.3303C75.3856 36.1011 74.4048 35.1236 73.1724 35.1236C71.9497 35.1236 70.9706 36.1011 70.9706 37.3303ZM66.4062 39.649C66.4062 40.7726 67.3464 41.7111 68.47 41.7111C69.592 41.7111 70.5354 40.7726 70.5354 39.649C70.5354 38.527 69.592 37.5852 68.47 37.5852C67.3464 37.5852 66.4062 38.527 66.4062 39.649ZM67.6371 34.5439C67.6371 35.3396 68.2898 35.9923 69.0838 35.9923C69.8827 35.9923 70.5354 35.3396 70.5354 34.5439C70.5354 33.7483 69.8827 33.0955 69.0838 33.0955C68.2898 33.0955 67.6371 33.7483 67.6371 34.5439ZM80.3494 45.6958C80.3494 44.9716 81.0021 44.3562 81.7182 44.3562C82.5171 44.3562 83.1325 44.9716 83.1325 45.6958C83.1325 46.5288 82.5171 47.1085 81.7182 47.1085C81.0021 47.1085 80.3494 46.5288 80.3494 45.6958Z" fill="white"/>
<path d="M81.2837 87.3388C81.4656 87.3388 81.6831 87.4459 81.6831 88.1003C81.6831 88.8959 81.321 89.9449 80.0237 90.7779C79.1176 91.3933 77.8852 91.9015 76.0731 91.934C76.3621 91.0669 76.5797 90.1608 76.5797 89.2954C76.5797 89.0047 76.5456 88.7871 76.5083 88.4624H76.9808C79.8418 88.4624 81.0759 87.3388 81.2837 87.3388ZM81.5744 83.7535C81.8683 83.5051 81.9364 83.1024 81.9364 82.703V81.87C81.9364 80.8194 80.35 80.2056 78.1742 80.2056C75.5291 80.2056 74.1165 81.3975 74.1165 81.9057V83.5733C74.1165 84.2618 75.711 84.9502 77.6676 84.9502C79.2264 84.9502 80.6407 84.5524 81.5744 83.7535ZM83.4579 84.153C82.5161 84.8788 80.3143 86.5042 76.6528 86.5042C74.6962 86.5042 73.8258 85.8888 73.5352 85.8888C73.1731 85.8888 72.7736 86.2509 72.3758 86.7234C71.5152 87.7382 70.3916 89.6218 70.3916 91.6839C70.3916 93.1323 71.5152 94.5758 73.6082 94.5758C80.3858 94.5758 85.4519 90.3411 85.4519 86.9036C85.4519 84.9502 84.2941 84.153 83.4579 84.153Z" fill="white"/>
<path d="M84.7271 53.699C84.7271 54.6034 85.0177 55.654 85.9238 55.654C86.6837 55.654 87.3364 54.4962 87.3364 53.2281C87.3364 51.7797 87.0831 50.6561 87.0831 50.0764C87.0831 49.8247 87.1919 49.7159 87.3364 49.7159C87.8804 49.7516 88.3886 51.2357 88.9683 51.2357C89.6211 51.2357 90.5921 50.0407 90.9899 50.0407C91.0987 50.0407 91.1344 50.1852 91.1344 50.2209C91.1344 50.7648 90.3014 51.9615 90.3014 52.4308C90.3014 52.8286 92.4025 52.9017 92.4025 53.2638C92.4025 53.8078 90.2007 53.8077 89.1502 54.2786C88.1353 54.7122 87.5183 55.2561 87.5183 55.9803C87.5183 56.7045 88.2425 56.8474 89.259 56.8474C91.6784 56.8474 93.38 55.5452 93.9224 55.5452C94.0312 55.5452 94.1026 55.6182 94.1026 55.727C94.1026 56.0891 92.8718 57.2826 92.8718 57.8265C92.8718 58.4419 95.1191 59.1645 95.0834 59.5266C95.0476 59.6354 94.9015 59.6711 94.6482 59.6711C94.2487 59.6711 93.6333 59.5639 93.1608 59.5639C92.8718 59.5639 92.6185 59.5997 92.5081 59.7442C92.258 60.0348 92.5812 61.9525 92.0778 61.9525C91.6053 61.9525 90.3729 57.682 87.5914 57.682C87.1919 57.682 86.9029 58.0068 86.9029 58.5507C86.9029 59.9975 88.3156 61.6634 89.6568 62.4607C90.2641 62.8585 91.2805 63.258 91.2805 63.4756C91.2805 63.9075 88.9683 63.5113 88.9683 64.2338C88.9683 64.8866 89.259 65.8657 89.259 66.4438C89.259 66.6256 89.2216 66.8416 89.004 66.8416C88.5705 66.8416 87.5183 64.8509 87.0101 64.8509C86.5765 64.8509 85.6348 66.0443 85.2337 66.0443C85.1265 66.0443 85.0551 65.9355 85.0551 65.83C85.0551 64.9954 86.3947 63.1135 86.3947 61.2656C86.3947 60.3969 86.2859 58.5134 85.2337 58.5134C84.365 58.5134 83.3859 59.8887 82.9507 61.2656C82.6974 62.0613 82.8793 65.1399 82.2996 65.1399C81.7556 65.1399 81.9001 63.0761 81.1743 63.0761C80.6401 63.0761 79.4808 64.0536 79.0813 64.0536C79.0099 64.0536 78.9368 64.0163 78.9368 63.9448C78.9368 63.5113 79.9874 62.0986 79.9874 61.808C79.9874 61.2656 77.5956 61.1942 77.5956 60.759C77.5956 60.5057 78.5374 60.3239 79.4077 60.1793C81.249 59.853 83.9672 58.5134 83.9672 56.6331C83.9672 54.5319 81.9359 53.6259 80.6044 52.7556C79.9143 52.322 79.1544 51.9615 79.1544 51.6709C79.1544 51.3802 80.0247 51.3802 80.3868 51.3802C80.9291 51.3802 81.4666 51.3445 81.4666 50.911C81.4666 50.583 81.3919 49.9335 81.3919 49.4269C81.3919 49.0632 81.4293 48.7725 81.5754 48.7725C82.1177 48.7725 82.8793 50.5473 83.2414 50.5473C83.821 50.5473 84.6183 49.0989 85.1639 49.0989C85.3425 49.0989 85.4156 49.2093 85.4156 49.534C85.4156 50.8736 84.7271 52.3935 84.7271 53.699ZM67.4553 43.0894C67.8547 46.1664 71.9855 44.6092 71.9855 48.339C71.9855 48.8829 71.841 49.6802 71.841 50.3654C71.841 51.1643 71.9125 51.8528 72.5214 51.8528C73.1368 51.8528 73.2829 51.4176 73.2829 50.8379C73.2829 50.2566 73.1368 49.534 73.1368 49.1362C73.1368 47.8681 74.0428 47.579 74.5868 47.579C75.9653 47.579 77.0159 48.9917 79.0813 48.9917C78.6104 51.3088 73.8252 50.6918 73.8252 53.2281C73.8252 54.4962 75.095 54.7836 75.928 54.7836C76.6895 54.7836 76.9445 54.6748 76.9445 54.0253C76.9445 53.6616 76.8698 53.2638 76.8698 53.0105C76.8698 52.8644 76.9802 52.7198 77.162 52.7198C77.9593 52.7198 81.8644 55.6897 81.8644 56.5957C81.8644 57.4271 77.7401 58.2601 76.545 58.2601C76.1829 58.2601 76.1098 58.0068 76.1098 57.8623C76.1098 57.6089 76.7252 56.8474 76.7252 56.4139C76.7252 56.0891 76.1829 55.8715 74.7313 55.8715C74.0428 55.8715 73.5362 55.943 73.5362 56.4886C73.5362 57.4644 75.1307 58.6595 75.1307 59.5639C75.1307 60.2881 74.6956 60.7233 73.5362 60.7233C72.5571 60.7233 71.0795 59.9618 71.0795 58.6952C71.0795 57.682 72.1235 56.6688 72.1235 56.0534C72.1235 55.8715 71.9855 55.5809 71.5504 55.5809C70.2091 55.5809 69.847 59.1288 65.1008 59.5266C65.8624 58.8397 66.5135 58.0798 66.5135 56.5243C66.5135 55.7627 66.3333 55.1457 66.3333 54.3144C66.3333 53.2281 66.8399 52.6841 67.5641 52.6841C68.9037 52.6841 69.5548 54.566 70.4267 54.566C70.8992 54.566 71.4058 54.1341 71.4058 53.4814C71.4058 50.7291 66.1157 51.1269 66.1157 47.2527C66.1157 46.2021 66.4761 44.8999 67.4553 43.0894Z" fill="white"/>
<path d="M74.3336 66.6249C74.3336 67.1315 74.6957 67.5309 75.204 67.5309C75.7836 67.5309 76.1474 67.0227 76.1474 66.443C76.1474 65.6847 75.4573 64.6325 74.8045 64.6325C74.5139 64.6325 74.6243 65.0677 74.5496 65.5386C74.5139 65.8991 74.3336 66.3342 74.3336 66.6249ZM72.4501 61.8088C76.2545 62.533 78.3199 65.3941 78.3199 68.0733C78.3199 69.9211 77.1606 71.6195 75.1309 71.6195C73.2831 71.6195 71.95 70.3546 71.95 68.325C71.95 66.8051 73.1369 65.2122 73.1369 63.6551C73.1369 63.0397 72.9567 62.4243 72.4501 61.8088ZM67.6373 67.9661C67.9978 68.325 68.1082 68.6887 68.1082 69.0508C68.1082 69.5947 67.8549 70.1744 67.8549 70.7898C67.8549 71.6569 68.506 72.4184 69.4461 72.4184C70.4626 72.4184 71.1527 71.6195 71.1527 70.6826C71.1527 69.3057 69.7352 67.9661 67.6373 67.9661ZM79.6254 65.649C79.8787 66.0436 79.9875 66.443 79.9875 66.8051C79.9875 67.82 79.2991 68.7601 79.2991 69.8123C79.2991 71.0074 80.2051 71.9833 81.5756 71.9833C83.0613 71.9833 84.0761 70.7898 84.0761 69.3771C84.0761 67.4579 82.3371 65.8293 79.6254 65.649ZM68.506 63.7265C70.1736 63.9441 70.573 64.5238 70.573 64.9963C70.573 65.7919 69.8472 66.0436 69.1571 66.0436C68.6505 66.0436 68.0708 65.9364 67.4554 65.9364C66.6582 65.9364 65.8625 66.1167 65.2098 66.8782C65.6807 66.9513 66.3691 67.276 66.3691 68.0018C66.3691 70.1013 60.5383 68.3623 60.5383 73.7596C60.5383 76.6191 63.5081 79.735 67.9978 79.735C70.3181 79.735 71.8038 78.9735 71.8038 78.1032C71.8038 77.4163 70.573 77.8856 70.573 77.3059C70.573 77.0526 71.0066 76.5801 71.0066 76.1823C71.0066 76.0053 70.8621 75.6789 70.573 75.6789C69.9187 75.6789 68.6879 76.7262 66.1873 76.7262C64.2323 76.7262 62.313 75.6058 62.313 74.0844C62.313 73.7596 62.4575 73.5762 62.6751 73.5762C62.8927 73.5762 63.1817 73.7223 63.435 73.7223C63.6542 73.7223 63.69 73.5762 63.69 73.1783C63.69 72.7805 63.69 71.6569 64.3768 71.6569C65.0653 71.6569 66.3691 74.1932 71.3703 74.1932C73.0298 74.1932 76.2545 73.8668 77.4512 72.7805C77.4139 76.7636 74.2979 82.0132 67.7818 82.0132C61.0108 82.0132 57.3882 76.5801 57.3882 71.5838C57.3882 66.0436 61.9136 61.0132 68.1082 61.0132C69.6995 61.0132 71.0423 61.5539 71.0423 62.2424C71.0423 63.1858 68.6879 62.6061 68.506 63.7265Z" fill="white"/>
<path d="M45.0778 22.3768C47.4679 22.3768 48.5526 24.4406 48.5526 26.7577C48.5526 27.7709 48.2652 29.2567 47.7943 29.2567C47.3234 29.2567 47.3949 28.4237 47.3234 27.6621C47.2504 26.6863 47.0701 26.4687 46.7438 26.4687C46.1267 26.4687 45.7305 27.9154 45.7305 29.2567C45.7305 30.088 45.875 31.0314 46.5262 31.0314C46.8883 31.0314 47.2146 30.8496 47.4306 30.632C47.2861 32.2979 46.0537 33.748 44.3163 33.748C41.1305 33.748 39.9354 30.0166 39.5733 27.844C37.654 29.8721 35.8809 31.3578 32.6935 31.3578C29.7252 31.3578 28.384 29.1852 28.384 27.1214C28.384 26.5044 28.6016 24.9115 29.3632 24.9115C30.2676 24.9115 29.4719 27.8797 31.2451 27.8797C31.6802 27.8797 32.4759 27.5176 32.911 26.3242C33.1643 25.5984 33.3105 24.8401 33.3105 24.1873C33.3105 23.2082 33.0929 22.5944 32.3703 22.5944C31.7533 22.5944 30.9918 23.0637 30.7385 23.317C31.6088 20.7093 33.7083 19.3697 36.0238 19.3697C38.8864 19.3697 40.4063 21.906 40.4063 24.7297C40.4063 25.1275 40.3689 25.5626 40.2975 25.9605C41.5283 23.9324 43.2316 22.3768 45.0778 22.3768ZM42.2882 26.6489C42.2882 26.0335 42.1437 25.889 41.9992 25.889C41.6371 25.889 41.2392 26.3242 40.6596 27.3017C40.7326 28.6055 40.9502 29.1852 41.3123 29.1852C41.7085 29.1852 42.2882 27.9154 42.2882 26.6489ZM37.3276 28.133C37.7255 28.133 38.2337 27.6979 39.1755 26.6489C39.2485 26.178 39.2485 25.7429 39.2485 25.2005C39.2485 24.4763 38.9579 23.6791 38.5243 23.6791C37.4364 23.6791 36.8941 26.5775 36.8941 27.339C36.8941 27.7709 37.1101 28.133 37.3276 28.133ZM43.2316 31.3578C44.136 31.3578 45.1492 27.8797 45.1492 25.7072C45.1492 25.2363 45.0778 24.7297 44.8602 24.7297C44.0987 24.7297 42.8321 28.3149 42.8321 30.2699C42.8321 31.0314 43.014 31.3578 43.2316 31.3578ZM34.3611 29.3655C35.5919 29.3655 37.0013 22.7032 37.0013 21.5796C37.0013 21.2889 36.8941 21.0713 36.6408 21.0713C35.5188 21.0713 33.9616 27.4088 33.9616 28.8215C33.9616 29.0764 34.0347 29.3655 34.3611 29.3655Z" fill="white"/>
<path d="M38.3056 32.1167C36.7485 32.1167 36.677 34.0018 36.677 37.8014C35.5193 35.3041 33.6 32.6249 31.3544 32.6249C29.8345 32.6249 29.2549 33.6397 29.2549 35.4112C29.2549 35.775 29.2906 36.3189 29.3637 36.642C29.5439 36.0283 30.1252 35.775 30.8478 35.775C32.4049 35.775 34.2885 36.9684 35.5193 38.5987C34.1066 38.3454 32.7297 38.0921 31.572 38.0921C30.8478 38.0921 30.195 38.1651 29.6527 38.4184C28.6021 38.8877 27.1895 40.4449 27.1895 42.7993C27.1895 43.1614 27.2268 43.5592 27.2999 43.9944C28.5664 41.1691 31.934 39.9025 34.1066 39.9025C34.5418 39.9025 34.8665 39.9383 35.1198 39.974C33.9978 40.9872 33.7445 42.7636 33.6715 43.957C33.6357 44.5367 33.4182 44.5741 33.0203 44.5741C33.0203 45.7675 33.9621 47.5439 33.9621 48.4483C33.9621 48.7731 33.7803 49.0637 33.6 49.1368C33.6 50.7297 35.1929 51.8891 35.1929 52.9023C35.1929 53.1556 35.1198 53.3732 35.0111 53.4819C35.1198 54.1347 36.8719 55.2307 37.0992 55.7796C37.3769 56.4469 37.6902 56.5606 37.8721 56.5606C38.4875 56.5606 39.4634 55.8348 39.4634 55.1836C39.4634 54.9661 39.2831 54.7128 39.1402 54.604C38.4518 54.0974 38.0881 53.0111 37.799 52.2869C37.5441 52.2869 37.2161 52.1797 37.1024 51.7543C36.9043 51.0041 36.8946 49.6077 36.604 48.7731C36.1331 48.6659 35.9155 48.484 35.9155 47.5082C35.9155 47.0357 36.2061 45.1895 36.2061 44.5367C35.9886 44.5367 35.6995 44.3922 35.6995 43.957C35.6995 42.7993 36.8589 41.8933 37.1836 40.4091C39.249 41.929 39.754 43.4862 39.754 44.8631C39.754 45.5857 39.6452 46.2758 39.5007 46.9285C41.0222 46.167 43.3035 45.0449 43.3035 42.7636C43.3035 41.4224 42.6881 39.9383 38.5963 39.3586C39.8628 38.8877 41.4573 38.636 42.7969 38.636C45.114 38.636 46.4536 39.3586 46.7426 40.9872C47.2135 40.2646 47.5772 39.43 47.5772 38.6717C47.5772 36.8954 46.0899 35.7376 44.208 35.7376C41.9997 35.7376 40.0447 36.8954 37.9435 38.3096C38.8869 36.3546 39.5364 35.1953 40.6958 35.1953C40.8777 35.1953 41.0595 35.2326 41.2398 35.2684C40.8046 33.6755 39.176 32.1167 38.3056 32.1167Z" fill="white"/>
<path d="M99.3164 58.2239C101.128 58.2239 102.577 60.5783 102.577 63.3305C102.577 66.2614 101.2 69.4488 98.7448 71.6198C98.7075 66.7339 92.7256 68.2911 92.7256 64.7416C92.7256 63.2218 93.8135 62.2069 95.119 62.2069C96.28 62.2069 97.1844 62.5333 97.8372 63.186C97.1844 62.5706 96.858 61.7003 96.858 60.8689C96.858 59.4904 97.7284 58.2239 99.3164 58.2239Z" fill="white"/>
<path d="M72.4496 21.1812C72.159 20.7103 71.0792 20.4587 70.5726 20.4587C68.9764 20.4587 67.8901 21.5807 67.6726 22.5955C67.5281 22.2318 67.4176 21.7983 67.4176 21.3631C67.4176 19.7702 68.5055 17.8152 71.1523 17.8152C73.4645 17.8152 74.3689 19.046 74.6969 19.046C75.0574 19.046 75.4211 18.6823 75.7117 18.6823C76.1096 18.6823 76.1096 19.2993 76.1096 19.7345C76.1096 21.1812 75.4584 23.6802 73.8266 24.5862C73.5359 23.9692 72.9562 23.2824 72.021 22.8488C71.7677 22.74 71.6589 22.5225 71.6589 22.3049C71.6589 21.9071 72.021 21.3988 72.4496 21.1812ZM66.9841 23.8247C67.9259 24.7307 68.7572 25.1286 69.7721 25.1286C70.1731 25.1286 70.644 25.0214 70.899 25.0214C71.2237 25.0214 71.4413 25.1643 71.4413 25.4176C71.4413 25.817 71.0792 26.4682 70.644 26.8319C71.0792 27.0121 71.5501 27.0852 72.0583 27.0852C74.1156 27.0852 76.4717 25.7797 76.4717 22.5225C76.9068 23.1005 77.1618 24.2972 77.1618 24.8395C77.1618 28.7869 74.2617 30.3067 71.5874 30.3067C69.8468 30.3067 68.9764 29.727 68.7572 29.727C68.072 29.727 68.1077 31.104 67.6368 31.0682C66.8022 30.9237 66.0439 29.0759 66.0439 27.1209C66.0439 25.9616 66.333 24.7307 66.9841 23.8247Z" fill="white"/>
<path d="M35.9886 0.795597C35.9886 0.578014 34.9023 0.360432 33.4182 0.360432C31.0654 0.360432 31.3901 2.31705 29.5813 2.31705C27.6977 2.31705 28.167 0.287363 25.7768 0.287363C24.3284 0.287363 22.9905 0.542292 22.9905 0.867041C22.9905 1.30221 24.6922 1.12197 24.6922 2.31705C24.6922 3.58357 21.0355 3.94729 21.0355 4.70721C21.0355 4.95889 21.3229 5.06768 21.685 5.06768C22.4822 5.06768 23.7488 4.70721 24.6548 4.70721C25.1631 4.70721 25.6339 4.81437 25.6339 5.28526C25.6339 6.19131 23.6773 7.82156 23.6773 8.54575C23.6773 8.76333 23.8576 8.8364 24.0394 8.8364C24.7636 8.8364 25.9944 6.98857 27.1538 6.98857C29.073 6.98857 27.8065 11.0804 28.8555 11.0804C29.9434 11.0804 29.4725 7.06002 31.028 7.06002C32.2978 7.06002 33.238 9.848 34.1067 9.848C34.3242 9.848 34.5061 9.66776 34.5061 9.41283C34.5061 8.65454 33.4182 7.09574 33.4182 6.08252C33.4182 5.46712 33.8534 5.17647 34.433 5.17647C35.2644 5.17647 36.388 5.68308 37.0018 5.68308C37.2194 5.68308 37.437 5.61164 37.437 5.35833C37.437 4.48963 34.2155 3.54785 34.2155 2.42584C34.2155 1.30221 35.9886 1.30221 35.9886 0.795597ZM44.4987 4.48963C44.4987 5.14075 46.78 6.55341 47.8306 6.55341C48.4444 6.55341 48.6262 5.72043 48.6262 4.8501C48.6262 3.76543 48.157 3.72971 47.2136 3.72971C46.0201 3.72971 44.4987 4.05609 44.4987 4.48963ZM48.2658 11.6585C48.2658 9.4859 42.3894 5.54019 42.3261 3.8385C42.3196 3.68262 42.404 3.52837 42.5355 3.38872C43.5423 2.32841 47.7218 1.55389 47.7218 0.649458C47.7218 0.180195 46.8515 0.180197 46.4163 0.180197C43.0503 0.180197 38.1254 1.411 38.1254 2.60608C38.1254 3.8385 42.542 6.84406 42.542 8.32817C42.542 8.72761 42.2887 8.87212 41.8893 8.87212C40.6601 8.87212 37.9793 7.38639 36.7128 7.38639C36.1331 7.38639 35.9155 7.78421 35.9155 8.36389C35.9155 10.1029 37.9793 13.3975 37.9793 14.3734C37.9793 14.4822 37.9436 14.6267 37.7991 14.6267C37.1463 14.6267 34.0709 11.0074 32.983 11.0074C32.5852 11.0074 32.5495 11.5497 32.5495 12.3469V13.5777C32.5495 14.4107 32.5121 14.9173 32.1159 14.9173C31.1742 14.9173 30.7374 12.2739 29.8346 12.2739C28.8928 12.2739 28.7109 16.9811 27.8065 16.9811C26.756 16.9811 27.662 11.803 26.6472 11.803C25.5252 11.803 24.257 15.2437 23.4597 15.2437C23.1707 15.2437 23.0993 14.9531 23.0993 14.6998C23.0993 13.6508 23.713 11.9491 23.713 10.9359C23.713 10.4277 23.5685 10.1386 23.135 10.1386C22.0114 10.1386 19.5481 11.9491 18.608 11.9491C18.4635 11.9491 18.2832 11.8761 18.2832 11.7315C18.2832 10.8628 22.2289 8.11059 22.2289 6.87978C22.2289 5.68308 16.7959 6.48197 16.7959 5.10503C16.7959 3.94729 20.6734 2.75059 20.6734 1.55713C20.6734 0.504946 16.0733 0.0356808 14.3002 0.0356808C12.1617 0.0356808 11.0056 0.287363 11.0056 0.904388C11.0056 1.84616 15.8574 2.13681 15.8574 2.96817C15.8574 3.76543 10.8237 5.90066 10.8237 7.13146C10.8237 8.21938 17.9195 7.20453 17.9195 8.32817C17.9195 9.55897 11.7298 14.88 11.7298 16.6548C11.7298 17.0542 12.0204 17.2344 12.4166 17.2344C14.3002 17.2344 19.186 13.6508 20.5273 13.6508C20.9981 13.6508 21.0355 14.2289 21.0355 14.7355C21.0355 15.6789 20.7091 17.1256 20.7091 18.1762C20.7091 19.0092 20.9267 19.5889 21.6493 19.5889C22.9905 19.5889 24.2213 17.3075 25.1257 17.3075C26.2834 17.3075 25.5982 24.0055 27.3356 24.0055C28.8197 24.0055 29.4351 16.7635 30.3753 16.7635C31.3187 16.7635 32.0802 18.8647 32.9473 18.8647C34.0336 18.8647 33.527 15.208 34.6863 15.208C35.9529 15.208 39.5722 19.5531 41.2041 19.5531C41.7091 19.5531 41.8893 19.1537 41.8893 18.6455C41.8893 16.7278 39.2117 12.3843 39.2117 11.0074C39.2117 10.6453 39.3189 10.5365 39.7167 10.5365C41.131 10.5365 45.2586 12.4915 47.2136 12.4915C47.8663 12.4915 48.2658 12.1294 48.2658 11.6585ZM15.203 9.55897C15.203 10.2832 12.4524 12.7074 11.4765 12.7074C11.1144 12.7074 11.0056 12.2739 11.0056 11.8761C11.0056 11.1535 11.3303 10.1386 11.7298 9.81227C12.199 9.37711 13.2853 9.16277 14.1183 9.16277C14.6233 9.16277 15.203 9.26832 15.203 9.55897ZM41.8178 13.2887C41.8178 14.5552 46.3449 20.7466 47.2136 20.7466C47.9394 20.7466 48.4801 19.4801 48.4801 18.3922C48.4801 18.1048 48.4086 17.8157 48.2658 17.5965C47.613 16.6921 43.0146 13.0711 41.9997 13.0711C41.8893 13.0711 41.8178 13.1799 41.8178 13.2887Z" fill="white"/>
<path d="M99.968 2.31755C99.968 2.82254 100.366 3.22036 100.874 3.22036C101.381 3.22036 101.78 2.82254 101.78 2.31755C101.78 1.80932 101.381 1.4115 100.874 1.4115C100.366 1.4115 99.968 1.80932 99.968 2.31755ZM94.0673 10.3194C94.0673 7.74737 87.9166 7.09625 87.9166 6.51657C87.9166 6.04731 91.3524 5.24842 93.1256 5.2127C90.4107 1.73788 86.5396 2.09997 86.5396 1.48457C86.5396 1.12085 89.438 0.39666 92.114 0.39666C94.358 0.39666 96.4591 0.903269 96.4591 2.60496C96.4591 3.54836 95.6992 4.52585 95.6992 5.97424C95.6992 6.7715 96.0954 7.45834 97.1492 7.45834C98.2729 7.45834 98.5262 6.26326 98.5262 4.99512C98.5262 3.94617 98.3443 3.14891 98.3443 2.6423C98.3443 1.12085 99.3884 0.107632 100.874 0.107632C102.107 0.107632 102.396 0.649963 104.208 0.649963C103.229 1.22964 102.868 2.28183 102.868 2.78682C102.868 4.30827 103.847 5.35884 103.847 8.47319C103.847 14.192 98.4888 16.2201 91.9321 16.2201C90.1281 16.2201 88.2072 16.0756 86.3221 15.7866C86.033 15.7508 85.96 15.6778 85.96 15.4975C85.96 15.025 88.5336 14.7717 88.5336 12.4562C88.5336 11.5502 88.243 10.6815 88.243 10.3551C88.243 10.1749 88.3875 10.0661 88.5336 10.0661C89.0776 10.0661 90.1655 12.1656 92.187 12.1656C92.7261 12.1656 94.0673 11.9837 94.0673 10.3194ZM100.184 6.66271C100.184 9.88422 97.8377 12.3475 93.5948 13.0343C94.0673 13.07 94.5025 13.07 94.9377 13.07C99.895 13.07 101.707 10.826 101.707 8.94407C101.707 7.89351 101.127 6.95173 100.184 6.66271Z" fill="white"/>
<path d="M97.6927 53.336C98.2723 51.5256 98.9982 50.2574 100.185 48.3024C98.9982 47.6886 95.8448 46.3831 95.8448 44.2463C95.8448 41.749 98.9608 39.794 99.6054 39.794C99.8945 39.794 99.9675 40.0473 99.9675 40.5182C99.9675 41.8204 99.3521 43.9215 99.3521 45.0436C99.3521 46.0568 100.005 47.0359 100.585 47.0359C101.2 47.0359 102.903 44.8633 102.903 42.7265C102.903 38.8863 99.5324 37.7286 98.4899 37.7286C97.5108 37.7286 95.7361 39.3215 91.5695 39.3215C83.7869 39.3215 82.0105 31.6119 82.0105 28.2426C82.0105 28.0981 82.0462 28.0608 82.0819 28.0608C82.2638 28.0608 83.0253 29.0042 85.4886 29.0042C86.7567 29.0042 87.9161 28.6778 89.7655 28.6778C94.1042 28.6778 96.0251 31.685 98.7075 35.5203C100.33 36.5335 104.209 38.1637 104.209 42.7622C104.209 46.8183 99.8945 49.064 98.852 53.4075C100.511 53.2289 101.491 50.2574 103.192 50.2574C104.063 50.2574 104.462 50.9459 104.462 52.0338C104.462 53.6251 103.556 56.0168 101.815 57.501C101.853 57.3548 101.853 57.1746 101.853 56.957C101.853 55.9438 101.455 54.497 100.294 54.497C98.4899 54.497 97.9086 56.4504 96.8954 58.079C95.8448 54.3882 94.4306 51.0547 91.8975 49.0266C89.332 46.9628 84.9089 48.0848 84.9089 44.3194C84.9089 43.3045 85.5616 41.8578 85.5616 40.6984C85.5616 40.3006 85.4886 39.9385 85.271 39.6478C88.7507 40.9533 87.5183 43.2688 89.6567 45.659C90.9898 47.1804 94.6839 48.6288 96.824 54.8932C96.8581 54.7114 96.8954 54.2421 96.8954 53.9157C96.8954 48.5557 89.8012 43.3045 89.1858 41.1319C93.3069 41.6028 94.0311 42.6177 95.9894 48.0491C96.3872 49.1727 97.6927 51.9607 97.6927 53.336ZM96.7509 35.7736C96.7509 35.0137 94.8284 34.9422 94.6481 32.8054C94.6108 32.479 94.5036 31.9009 94.1042 31.9009C93.4514 31.9009 93.958 33.8916 93.2339 33.8916C91.5695 33.8916 91.0272 30.6328 90.4102 30.6328C90.264 30.6328 90.0919 30.7416 90.0919 31.1767C90.0919 31.5746 90.165 31.8295 90.165 32.2971C90.165 32.7696 90.0562 33.0944 89.621 33.0944C88.6419 33.0944 87.7732 30.8146 86.9386 30.8146C86.7567 30.8146 86.5765 30.9234 86.5765 31.1037C86.5765 31.5388 87.3007 32.3345 87.3007 32.7339C87.3007 33.6026 84.9462 33.1317 84.9462 33.8559C84.9462 34.1823 85.271 34.2895 85.7062 34.2895C86.4677 34.2895 87.6644 33.9647 88.2798 33.9647C88.6419 33.9647 89.1858 34.0378 89.1858 34.507C89.1858 35.0137 87.882 35.6648 87.882 36.1357C87.882 36.3533 88.0996 36.4604 88.2798 36.4604C89.2589 36.4604 90.9898 34.7604 92.2223 34.7604C92.4382 34.7604 92.9805 34.8691 92.9805 35.1955C92.9805 35.6648 91.7514 36.4961 91.7514 37.1846C91.7514 37.3665 91.8602 37.5841 92.0777 37.5841C92.7256 37.5841 93.596 35.8824 94.8284 35.8824C95.3009 35.8824 95.9894 36.0642 96.3515 36.0642C96.6421 36.0642 96.7509 35.8824 96.7509 35.7736Z" fill="white"/>
<path d="M69.7728 14.0827C70.3541 14.0827 70.4628 15.497 70.5733 16.3284C70.6447 16.7636 70.7178 16.7993 70.8996 16.7993C71.3348 16.7993 72.0216 15.1333 72.486 15.1333C73.1729 15.1333 75.0223 17.0526 78.1026 17.0526C82.4818 17.0526 86.6127 13.974 86.6127 8.54414C86.6127 3.29456 82.9154 0.215931 77.8119 0.215931C75.3861 0.215931 73.608 1.41101 72.6663 1.41101C72.0947 1.44673 71.2244 -3.05176e-05 70.7892 -3.05176e-05C70.609 -3.05176e-05 70.4271 0.360445 70.4271 0.975845C70.4271 1.37529 70.4271 2.64181 69.992 2.64181C69.12 2.64181 65.754 0.144484 65.754 1.04891C65.754 1.88189 67.998 4.41657 67.998 5.06769C67.998 5.72044 65.7897 6.33584 65.7897 6.771C65.7897 7.56664 68.1441 7.71115 68.1441 8.726C68.1441 9.73922 65.6809 10.5365 65.6809 11.298C65.6809 11.9118 68.1441 11.4783 68.1441 12.2382C68.1441 12.9981 66.3337 15.5328 66.3337 16.2553C66.3337 16.4372 66.3694 16.4372 66.5139 16.4372C67.2007 16.4372 69.2645 14.0827 69.7728 14.0827ZM70.8266 8.14632C70.8266 7.7485 69.4107 6.98859 69.4107 6.55342C69.4107 6.48198 69.4821 6.44463 69.5925 6.44463C69.992 6.44463 70.6804 6.59077 71.2244 6.59077C71.6969 6.59077 71.7683 4.56271 72.1239 4.56271C72.3756 4.56271 72.8108 6.48198 73.2119 6.48198C73.6811 6.48198 74.5498 5.93802 74.9135 5.93802C74.9866 5.93802 75.0581 5.97374 75.0581 6.04681C75.0581 6.30012 74.152 7.27599 74.152 7.56664C74.152 7.89301 76.1817 8.29083 76.1817 8.58148C76.1817 8.94358 74.1163 8.90786 74.1163 9.23423C74.1163 9.48591 74.8778 10.5008 74.8778 10.8255C74.8778 10.8986 74.8405 10.9359 74.769 10.9359C74.4784 10.9359 73.3547 10.4277 73.0284 10.4277C72.6306 10.4277 71.9859 11.9118 71.6596 11.9118C71.5508 11.9118 71.4793 11.7673 71.4793 11.5854L71.4046 10.137C71.4046 9.99252 71.3348 9.84801 71.1529 9.84801C70.7178 9.84801 69.8832 9.81066 69.6282 9.81066C69.4464 9.81066 69.3749 9.77494 69.3749 9.70349C69.3749 9.41284 70.8266 8.39962 70.8266 8.14632ZM77.885 15.0261C75.3487 15.0261 73.6811 13.7596 73.6811 13.1069C73.6811 12.7805 73.8987 12.5645 74.1894 12.5645C74.9866 12.5645 76.7256 13.7937 77.3053 13.7937C77.4498 13.7937 77.5586 13.7223 77.5586 13.5047C77.5586 12.8519 76.9432 11.7673 76.9432 11.2249C76.9432 11.0804 77.052 10.9716 77.2696 10.9716C78.2471 10.9716 79.6987 11.3711 80.4603 11.3711C80.7119 11.3711 80.7834 11.2249 80.7834 11.0804C80.7834 10.2832 78.429 8.726 78.429 8.25511C78.429 7.81995 81.3566 7.1672 81.3566 6.48198C81.3566 5.75616 77.3768 6.26277 77.3768 5.57592C77.3768 5.06769 78.1383 4.19899 78.1383 3.80117C78.1383 3.61931 77.9938 3.54786 77.7405 3.54786C77.4141 3.54786 75.6751 4.23633 74.9509 4.23633C74.5872 4.23633 74.152 4.16326 74.152 3.65665C74.152 2.82205 75.5663 1.91762 77.7762 1.91762C81.3566 1.91762 83.4967 4.38085 83.4967 8.50842C83.4967 13.7223 79.8416 15.0261 77.885 15.0261Z" fill="white"/>
<path d="M53.3702 77.669C53.3702 77.9954 53.2614 78.3591 52.9708 78.7196C52.5746 77.9954 51.4509 77.6317 50.9427 77.6333C47.2146 77.6333 48.6256 83.029 44.6425 83.029C42.9782 83.029 42.8321 82.8115 42.2167 82.8115C41.9634 82.8115 41.8188 82.9202 41.8188 83.1378C41.8188 84.0812 43.1584 86.3967 46.8882 86.3967C50.6179 86.3967 54.2032 84.117 54.2032 81.2884C54.2032 80.8191 54.0944 80.3158 53.8768 79.8075C54.0213 79.5899 54.385 79.4454 54.7114 79.4454C55.2895 79.4454 55.6158 80.0982 56.1582 80.0982C56.7395 80.0982 57.173 79.663 57.173 79.0833C57.173 78.6124 56.9197 78.2861 56.4846 78.0669C56.7752 77.8509 56.9912 77.4872 56.9912 77.0894C56.9912 76.474 56.5576 75.8975 55.8318 75.8975C55.5054 75.8975 55.2895 76.0063 55.0362 76.2564C54.9647 75.6069 54.6026 74.9915 53.9142 74.9915C53.3702 74.9915 52.9708 75.3893 52.9708 76.0063C52.9708 76.5811 53.3702 77.0536 53.3702 77.669Z" fill="white"/>
<path d="M43.6297 79.0469C42.5434 79.0469 40.9132 77.8875 40.9132 77.2347C40.9132 76.6908 41.4214 76.4001 41.8176 76.4001C42.7237 76.4001 44.3523 77.5238 44.3523 78.4656C44.3523 78.7205 44.1704 79.0469 43.6297 79.0469ZM33.5268 70.9362C36.4235 71.6572 37.8719 73.2143 38.1609 75.0638C38.4516 76.8353 38.8137 78.2853 39.5005 79.0095C40.4066 80.026 42.1797 80.9272 43.7385 80.9272C45.0424 80.9272 46.0897 80.4969 46.0897 79.3002C46.0897 77.9963 44.3166 75.0638 41.7088 75.0638C41.4572 75.0638 41.1308 75.1011 40.7687 75.1011C40.4423 75.1011 39.9714 75.0281 39.6808 74.7748C39.1027 74.2665 38.9225 71.55 37.8346 69.9214C36.6411 68.1109 35.3372 67.6027 33.5641 67.6027C32.2976 67.6027 30.8833 68.2911 30.8833 69.306C30.8833 69.9214 31.2097 70.3549 33.5268 70.9362Z" fill="white"/>
<path d="M51.7046 66.5157C51.7046 64.8871 48.3353 64.8514 48.3353 62.3882C48.3353 61.7712 48.7348 60.7222 49.532 59.5986C49.8584 61.4821 50.6183 62.4596 52.2486 63.0766C55.4701 64.2701 55.9052 66.0806 55.9052 68.0015C55.9052 71.262 53.6239 75.3165 47.7589 75.3165C43.05 75.3165 39.6824 71.1158 39.6824 67.5679C39.6824 66.5888 39.9357 65.5025 40.5511 65.5025C41.095 65.5025 41.2769 65.9361 41.7088 66.3712C43.3407 68.0015 45.1138 68.435 47.6858 68.435C50.0029 68.435 51.7046 67.4949 51.7046 66.5157ZM51.8491 69.1235C50.607 69.6918 50.1117 69.5944 50.1117 70.8641C50.1117 71.3334 50.0029 71.9472 50.0029 72.2736C50.0029 72.7071 50.076 72.962 50.581 72.962C51.8865 72.962 53.9503 70.7537 53.9503 68.8702C53.9503 68.362 53.6596 68.1476 53.3332 68.1476C53.0426 68.1476 52.7195 68.7257 51.8491 69.1235ZM40.2978 50.8385C40.2978 48.5197 45.8023 47.2889 45.8023 44.4279C45.8023 43.957 45.622 43.1256 45.2957 42.5086C47.2149 43.5592 48.626 45.3356 48.626 46.7823C48.626 49.2813 46.0199 50.439 46.0199 51.9978C46.0199 53.8083 48.8078 54.0973 48.8078 56.343C48.8078 58.1875 46.1628 60.3244 46.1628 62.7146C46.1628 64.5608 47.4682 66.0806 49.459 66.3339C48.8078 66.48 48.2282 66.5888 47.6128 66.5888C43.9545 66.5888 40.189 63.5849 40.189 59.998C40.189 58.2233 40.9505 56.6693 42.1083 55.5457C43.1231 56.4144 44.1363 56.9941 44.7874 56.9941C45.3671 56.9941 45.622 56.7051 45.622 56.2699C45.622 54.9287 40.2978 53.6995 40.2978 50.8385Z" fill="white"/>
<path d="M19.2949 68.7252C19.4475 69.9625 20.6003 70.8994 21.9026 70.7549C22.3719 70.7029 22.8086 70.573 23.0993 70.3928C23.3883 71.5505 24.3609 72.2958 25.6746 72.1237C27.0077 71.95 27.9153 70.8994 27.7708 69.5582C27.7319 69.1977 27.662 68.9785 27.5532 68.7252C27.5532 68.7252 27.7302 68.7074 27.8634 68.6814C29.1705 68.4346 30.0522 67.3856 29.9434 66.1175C29.7989 64.8152 28.6298 63.8475 27.4103 63.9969C26.9395 64.0553 26.5027 64.2339 26.212 64.4889C25.8856 63.4042 24.8643 62.4592 23.4695 62.6914C22.2111 62.8992 21.3781 63.9676 21.5048 65.3218C21.5243 65.541 21.5762 65.7927 21.685 66.0444C21.685 66.0444 21.4723 66.0769 21.3262 66.098C20.2691 66.2555 19.1227 67.3191 19.2949 68.7252ZM26.061 67.3012C26.1503 68.0579 25.6096 68.7398 24.8529 68.8291C24.0979 68.9168 23.4127 68.3745 23.3266 67.6194C23.2373 66.8628 23.778 66.1776 24.5347 66.0899C25.2914 66.0006 25.975 66.5429 26.061 67.3012Z" fill="white"/>
</svg>
