<svg fill="none" height="52" viewBox="0 0 76 52" width="76" xmlns="http://www.w3.org/2000/svg" xmlns:xlink="http://www.w3.org/1999/xlink"><mask id="a" fill="#fff"><path clip-rule="evenodd" d="m66.9592 1.58507c3.1701.85381 5.67 3.35311 6.5232 6.52382 1.5857 5.79141 1.5247 17.86331 1.5247 17.86331s0 12.0103-1.5241 17.8023c-.8538 3.1701-3.3531 5.67-6.5238 6.5232-5.792 1.5247-28.9594 1.5247-28.9594 1.5247s-23.1069 0-28.95934-1.5851c-3.17071-.8538-5.67001-3.3537-6.52382-6.5238-1.524086-5.731-1.524086-17.8023-1.524086-17.8023s0-12.0109 1.524086-17.80231c.85324-3.17015 3.41409-5.731 6.52326-6.58424 5.792-1.52465 28.9594-1.52465 28.9594-1.52465s23.1679 0 28.9599 1.58507zm-17.071 24.32643-19.2655 11.0961v-22.1922z" fill="#fff" fill-rule="evenodd"/></mask><path clip-rule="evenodd" d="m66.9592 1.58507c3.1701.85381 5.67 3.35311 6.5232 6.52382 1.5857 5.79141 1.5247 17.86331 1.5247 17.86331s0 12.0103-1.5241 17.8023c-.8538 3.1701-3.3531 5.67-6.5238 6.5232-5.792 1.5247-28.9594 1.5247-28.9594 1.5247s-23.1069 0-28.95934-1.5851c-3.17071-.8538-5.67001-3.3537-6.52382-6.5238-1.524086-5.731-1.524086-17.8023-1.524086-17.8023s0-12.0109 1.524086-17.80231c.85324-3.17015 3.41409-5.731 6.52326-6.58424 5.792-1.52465 28.9594-1.52465 28.9594-1.52465s23.1679 0 28.9599 1.58507zm-17.071 24.32643-19.2655 11.0961v-22.1922z" fill="#f00" fill-rule="evenodd"/><path d="m73.4824 8.10889-.9656.25986.0011.00421zm-6.5232-6.52382-.264.96455.0039.00105zm8.0479 24.38713-1-.0051v.0051zm-1.5241 17.8023.9656.26.0015-.0056zm-6.5238 6.5232.2546.9671.0052-.0014zm-57.91874-.0604.26142-.9652-.0014-.0004zm-6.52382-6.5238-.96641.257.00082.003zm0-35.60461-.96565-.2599-.00142.0054zm6.52326-6.58424-.25458-.967107-.01007.002763zm21.5828 35.48295h-1v1.73l1.4991-.8634zm19.2655-11.0961.4991.8666 1.5045-.8666-1.5045-.8665zm-19.2655-11.0961.4991-.8666-1.4991-.8634v1.73zm43.8254-6.96636c-.9459-3.51505-3.7147-6.2831-7.2288-7.229559l-.5202 1.931189c2.8262.76115 5.0571 2.9917 5.8177 5.81808zm.559 18.12316c1 .005 1 .0049 1 .0048 0-.0002 0-.0004 0-.0006 0-.0004 0-.0011 0-.0019 0-.0016 0-.004 0-.0071 0-.0062.0001-.0152.0001-.0271.0001-.0238.0002-.0588.0002-.1045.0001-.0913-.0001-.2254-.0008-.3978-.0014-.3448-.0053-.8428-.0149-1.4581-.0192-1.2302-.0614-2.9317-.1535-4.8164-.1828-3.7385-.5661-8.305-1.3913-11.31868l-1.929.52814c.7606 2.77774 1.1396 7.14284 1.3227 10.88824.0908 1.8571.1324 3.5356.1514 4.7498.0094.6069.0132 1.0973.0146 1.4353.0007.169.0009.2999.0008.3882 0 .0442-.0001.0777-.0002.1 0 .0111 0 .0194-.0001.0249v.006.0014.0003s0 0 1 .0051zm-.557 18.0567c.7914-3.0075 1.1748-7.553 1.3652-11.2765.0959-1.8764.1438-3.5695.1678-4.7935.012-.6123.018-1.1077.021-1.4506.0015-.1715.0022-.3048.0026-.3957.0002-.0454.0003-.0802.0003-.1038.0001-.0118.0001-.0208.0001-.0269 0-.0031 0-.0054 0-.007 0-.0009 0-.0015 0-.0019 0-.0003 0-.0005 0-.0006s0-.0002-1-.0002-1 0-1 0v.0003.0014.006c0 .0055 0 .0138-.0001.0249 0 .0222-.0001.0555-.0003.0995-.0003.0879-.0011.2182-.0025.3865-.003.3365-.0089.8247-.0207 1.4289-.0237 1.2089-.071 2.8804-.1656 4.7306-.1907 3.7296-.5693 8.0853-1.302 10.8697zm-7.2311 7.2345c3.5151-.9459 6.2831-3.7147 7.2296-7.2289l-1.9312-.5201c-.7611 2.8261-2.9917 5.0571-5.8181 5.8177zm-29.2192.559c0 1 .0001 1 .0004 1h.0008.0033.0129c.0113 0 .0281-.0001.0503-.0001.0444 0 .1102-.0001.1961-.0003.1719-.0004.4244-.0011.7476-.0026.6465-.003 1.5761-.009 2.7096-.0209 2.2664-.0239 5.3499-.0716 8.616-.1671 3.2644-.0955 6.7191-.239 9.7256-.4548 2.9789-.2139 5.6011-.5037 7.1514-.9118l-.5092-1.9341c-1.3457.3542-3.7915.6361-6.7854.851-2.9664.213-6.3895.3554-9.6409.4505-3.2498.0951-6.3202.1426-8.5786.1664-1.129.0119-2.0546.0178-2.6977.0208-.3215.0015-.5724.0022-.7428.0026-.0851.0002-.1501.0003-.1938.0003-.0218 0-.0383.0001-.0493.0001-.0055 0-.0096 0-.0123 0-.0014 0-.0024 0-.003 0-.0004 0-.0006 0-.0008 0-.0001 0-.0002 0-.0002 1zm-29.22076-.6199c1.56726.4245 4.19856.726 7.18096.9484 3.01.2245 6.4634.3736 9.7244.4729 3.2625.0993 6.3406.1489 8.6025.1737 1.1312.0125 2.0588.0187 2.7038.0218.3225.0015.5745.0023.7459.0027.0858.0002.1514.0003.1957.0003.0221 0 .0389.0001.0502.0001h.0128.0033.0009c.0002 0 .0003 0 .0003-1s0-1-.0002-1c-.0001 0-.0004 0-.0007 0-.0007 0-.0017 0-.003 0-.0027 0-.0068 0-.0123 0-.0109 0-.0274-.0001-.0491-.0001-.0436 0-.1084-.0001-.1933-.0003-.1699-.0004-.4201-.0012-.7409-.0027-.6415-.0031-1.5649-.0093-2.6914-.0216-2.2535-.0248-5.3179-.0742-8.5637-.173-3.2473-.0989-6.668-.2469-9.6365-.4683-2.9962-.2234-5.4479-.5163-6.80682-.8843zm-7.22799-7.229c.94646 3.5142 3.7145 6.2829 7.22939 7.2294l.52004-1.9312c-2.82653-.7611-5.05709-2.9922-5.81825-5.8183zm-.558496-18.0623c-1.00000029 0-1.00000029.0001-1.00000029.0002.00000006.0002.00000006.0004.00000012.0006.00000012.0004.0000003.0011.00000072.0019.00000083.0016.00000238.004.00000548.0071.00000614.0061.0000183.0152.00004226.027.00004786.0237.00014305.0587.00033212.1043.00037807.0913.00113171.2253.0026341.3975.00300444.3444.0090046.842.02098909 1.4566.0239604 1.2287.0718831 2.9276.1678064 4.8078.190303 3.7301.573679 8.2774 1.365866 11.2563l1.93282-.514c-.7319-2.7522-1.11057-7.106-1.30128-10.8442-.09459-1.8541-.14193-3.5312-.16559-4.7449-.01183-.6067-.01774-1.097-.02069-1.4351-.00147-.169-.00221-.2999-.00257-.3883-.00019-.0442-.00028-.0777-.00032-.1-.00002-.0112-.00004-.0196-.00004-.025 0-.0028-.00001-.0048-.00001-.0061 0-.0007 0-.0011 0-.0014 0-.0002 0-.0002 0-.0003 0 0 0 0-.999996 0zm.557016-18.05681c-.791412 3.00731-1.174846 7.55281-1.365201 11.27641-.0959241 1.8764-.1438483 3.5696-.1678099 4.7936-.01198504.6123-.01798556 1.1077-.02099029 1.4506-.00150245.1715-.00225621.3049-.00263434.3957-.00018907.0454-.00028426.0802-.00033218.1038-.00002396.0118-.00003612.0208-.00004226.027-.0000031.003-.00000465.0054-.00000548.007-.00000042.0008-.0000006.0014-.00000072.0019-.00000006.0002-.00000006.0004-.00000012.0005 0 .0002 0 .0003 1.00000029.0003h.999996c0-.0001 0-.0002 0-.0003 0-.0003 0-.0008 0-.0014 0-.0013.00001-.0033.00001-.006 0-.0055.00002-.0138.00004-.0249.00004-.0222.00013-.0556.00032-.0996.00036-.0879.0011-.2182.00257-.3865.00295-.3365.00886-.8247.02069-1.4289.02366-1.209.07099-2.8805.16558-4.7307.19067-3.7297.56928-8.0854 1.30195-10.86951zm7.22568-7.294084c-3.45254.947474-6.27917 3.777334-7.22424 7.288684l1.93127.5198c.7614-2.82894 3.05648-5.12078 5.82226-5.87979zm29.22405-.560306c0-1-.0002-1-.0004-1s-.0005 0-.0008 0c-.0008 0-.0019 0-.0033.000001-.0029 0-.0072.000002-.0129.000005-.0113.000006-.0281.000018-.0503.000041-.0444.000047-.1102.000141-.1961.000328-.1719.000374-.4244.001121-.7476.002614-.6465.002985-1.5761.008954-2.7096.020889-2.2665.023865-5.3499.071603-8.616.167131-3.2644.095482-6.7191.238925-9.7256.454771-2.9789.213864-5.6011.503741-7.15137.911816l.50913 1.934114c1.34574-.35425 3.79144-.63612 6.78544-.85106 2.9664-.21297 6.3895-.3554 9.6409-.4505 3.2498-.09505 6.3202-.1426 8.5786-.16638 1.129-.01189 2.0546-.01783 2.6977-.0208.3215-.00149.5724-.00223.7427-.0026.0852-.00019.1502-.00028.1939-.00032.0218-.00003.0383-.00004.0493-.00004.0055-.00001.0096-.00001.0123-.00001h.003.0008c.0001 0 .0002 0 .0002-1zm29.2239.62054c-1.5538-.4252-4.1792-.726733-7.1581-.949063-3.0073-.224458-6.4627-.373607-9.7275-.472881-3.2664-.099323-6.3502-.148957-8.6169-.173769-1.1336-.012409-2.0632-.018615-2.7098-.02172-.3233-.001552-.5759-.002329-.7478-.002717-.0859-.000195-.1517-.000292-.1961-.000341-.0222-.000024-.039-.000037-.0504-.000043-.0057-.000003-.0099-.000004-.0128-.000005-.0015-.000001-.0026-.000001-.0033-.000001-.0004 0-.0007 0-.0009 0s-.0003 0-.0003 1 0 1 .0002 1h.0007.003c.0027 0 .0068 0 .0123.00001.011 0 .0275.00001.0493.00004.0436.00005.1086.00014.1938.00033.1703.00039.4212.00116.7427.0027.643.00309 1.5686.00927 2.6975.02163 2.2583.02472 5.3285.07415 8.578.17296 3.2512.09886 6.6738.24692 9.6395.46826 2.9941.22347 5.4367.51634 6.7789.88368zm-36.1014 37.25366 19.2655-11.0961-.9982-1.7331-19.2655 11.0961zm-1.4991-23.0588v22.1922h2v-22.1922zm20.7646 10.2296-19.2655-11.0962-.9982 1.7331 19.2655 11.0962z" fill="#000" mask="url(#a)"/></svg>