<?xml version="1.0" standalone="no"?>
<!DOCTYPE svg PUBLIC "-//W3C//DTD SVG 20010904//EN"
 "http://www.w3.org/TR/2001/REC-SVG-20010904/DTD/svg10.dtd">
<svg version="1.0" xmlns="http://www.w3.org/2000/svg"
 width="700.000000pt" height="700.000000pt" viewBox="0 0 700.000000 700.000000"
 preserveAspectRatio="xMidYMid meet">
<metadata>
Created by potrace 1.14, written by Peter Selinger 2001-2017
</metadata>
<g transform="translate(0.000000,700.000000) scale(0.100000,-0.100000)"
fill="#000000" stroke="none">
<path d="M837 6984 c-399 -72 -708 -364 -810 -764 l-22 -85 0 -2635 0 -2635
22 -85 c49 -193 133 -341 272 -481 138 -138 289 -223 481 -272 l85 -22 2630 0
c2532 0 2633 1 2710 19 177 41 338 125 465 243 157 146 258 320 306 528 18 77
19 178 19 2710 l0 2630 -22 85 c-49 193 -133 341 -272 481 -134 135 -283 220
-476 272 l-80 22 -2615 2 c-2212 1 -2627 -1 -2693 -13z m2888 -954 c435 -40
911 -196 1228 -403 l86 -56 -50 -108 c-28 -59 -59 -127 -70 -150 -10 -24 -21
-43 -23 -43 -3 0 -36 20 -73 44 -270 173 -625 305 -975 361 -232 37 -584 37
-817 0 -436 -70 -744 -253 -917 -545 -92 -156 -137 -375 -116 -573 22 -207 85
-343 221 -477 239 -234 499 -342 1331 -550 451 -113 836 -237 1019 -329 162
-82 381 -264 488 -405 219 -290 261 -791 96 -1172 -192 -444 -641 -746 -1253
-843 -806 -128 -1648 52 -2205 470 -49 38 -121 97 -159 131 l-69 64 72 119
c40 66 80 130 88 143 l14 23 72 -67 c307 -284 754 -483 1259 -560 141 -21 525
-30 685 -15 271 26 479 78 658 166 134 66 218 129 321 238 160 171 223 325
231 572 12 331 -87 536 -353 732 -205 151 -437 236 -1099 403 -537 136 -895
247 -1082 336 -143 68 -295 176 -409 289 -159 158 -235 302 -285 537 -18 83
-22 137 -23 278 0 102 5 202 13 239 49 247 158 469 316 639 265 286 679 463
1195 511 136 12 456 13 585 1z"/>
</g>
</svg>
