<svg width="25" height="45" viewBox="0 0 25 45" fill="none" xmlns="http://www.w3.org/2000/svg">
<path opacity="1" fill-rule="evenodd" clip-rule="evenodd" d="M23.7002 1.42937C23.8577 1.58655 23.9828 1.77328 24.0681 1.97886C24.1534 2.18443 24.1973 2.40481 24.1973 2.62739C24.1973 2.84996 24.1534 3.07034 24.0681 3.27592C23.9828 3.48149 23.8577 3.66822 23.7002 3.8254L4.58948 22.9327L23.7002 42.04C24.0179 42.3577 24.1964 42.7887 24.1964 43.238C24.1964 43.6873 24.0179 44.1183 23.7002 44.436C23.3824 44.7538 22.9515 44.9323 22.5022 44.9323C22.0528 44.9323 21.6219 44.7538 21.3041 44.436L0.998829 24.1307C0.841249 23.9735 0.716225 23.7868 0.630921 23.5812C0.545617 23.3756 0.501709 23.1553 0.501709 22.9327C0.501709 22.7101 0.545617 22.4897 0.630921 22.2842C0.716225 22.0786 0.841249 21.8919 0.998829 21.7347L21.3041 1.42937C21.4613 1.27179 21.6481 1.14677 21.8536 1.06146C22.0592 0.976161 22.2796 0.932251 22.5022 0.932251C22.7247 0.932251 22.9451 0.976161 23.1507 1.06146C23.3563 1.14677 23.543 1.27179 23.7002 1.42937Z" fill="white"/>
</svg>
