<svg width="24" height="45" viewBox="0 0 24 45" fill="none" xmlns="http://www.w3.org/2000/svg">
<path opacity="1" fill-rule="evenodd" clip-rule="evenodd" d="M0.690702 1.42937C0.533123 1.58655 0.4081 1.77328 0.322796 1.97886C0.237492 2.18443 0.193583 2.40481 0.193583 2.62739C0.193583 2.84996 0.237492 3.07034 0.322796 3.27592C0.4081 3.48149 0.533123 3.66822 0.690702 3.8254L19.8014 22.9327L0.690702 42.04C0.372969 42.3577 0.194469 42.7887 0.194469 43.238C0.194469 43.6873 0.372969 44.1183 0.690702 44.436C1.00844 44.7538 1.43937 44.9323 1.88872 44.9323C2.33806 44.9323 2.769 44.7538 3.08673 44.436L23.392 24.1307C23.5496 23.9735 23.6746 23.7868 23.7599 23.5812C23.8453 23.3756 23.8892 23.1553 23.8892 22.9327C23.8892 22.7101 23.8453 22.4897 23.7599 22.2842C23.6746 22.0786 23.5496 21.8919 23.392 21.7347L3.08673 1.42937C2.92955 1.27179 2.74282 1.14677 2.53724 1.06146C2.33167 0.976161 2.11129 0.932251 1.88872 0.932251C1.66615 0.932251 1.44576 0.976161 1.24019 1.06146C1.03461 1.14677 0.847885 1.27179 0.690702 1.42937Z" fill="white"/>
</svg>
