<svg width="12" height="12" viewBox="0 0 12 12" fill="none" xmlns="http://www.w3.org/2000/svg">
<path d="M8.1466 4.43951C8.21284 4.36843 8.2489 4.2744 8.24718 4.17725C8.24547 4.0801 8.20611 3.98741 8.13741 3.9187C8.0687 3.85 7.97601 3.81064 7.87886 3.80893C7.78171 3.80721 7.68769 3.84327 7.6166 3.90951L4.6316 6.89451L3.3966 5.65951C3.32551 5.59327 3.23149 5.55721 3.13434 5.55893C3.03719 5.56064 2.94449 5.6 2.87579 5.6687C2.80708 5.73741 2.76773 5.8301 2.76601 5.92725C2.7643 6.0244 2.80036 6.11843 2.8666 6.18951L4.3666 7.68951C4.43691 7.75974 4.53222 7.79918 4.6316 7.79918C4.73097 7.79918 4.82629 7.75974 4.8966 7.68951L8.1466 4.43951Z" fill="#51AAE8" fill-opacity="0.93"/>
<path fill-rule="evenodd" clip-rule="evenodd" d="M5.50659 0.299316C2.46909 0.299316 0.0065918 2.76182 0.0065918 5.79932C0.0065918 8.83681 2.46909 11.2993 5.50659 11.2993C8.54409 11.2993 11.0066 8.83681 11.0066 5.79932C11.0066 2.76182 8.54409 0.299316 5.50659 0.299316ZM0.756592 5.79932C0.756592 4.53954 1.25704 3.33136 2.14783 2.44056C3.03863 1.54976 4.24681 1.04932 5.50659 1.04932C6.76637 1.04932 7.97455 1.54976 8.86535 2.44056C9.75614 3.33136 10.2566 4.53954 10.2566 5.79932C10.2566 7.05909 9.75614 8.26727 8.86535 9.15807C7.97455 10.0489 6.76637 10.5493 5.50659 10.5493C4.24681 10.5493 3.03863 10.0489 2.14783 9.15807C1.25704 8.26727 0.756592 7.05909 0.756592 5.79932Z" fill="#51AAE8" fill-opacity="0.93"/>
</svg>
